<svg xmlns="http://www.w3.org/2000/svg" xmlns:xlink="http://www.w3.org/1999/xlink" version="1.1" id="Layer_1" x="0px" y="0px" viewBox="0 0 256.6 131.5" style="enable-background:new 0 0 256.6 131.5;" xml:space="preserve">
<style type="text/css">
	.st0{fill:#de7c00;}
	.st1{fill:#4e5b31;}
</style>
<path id="feeding" class="st0" d="M158,74.8V54c0,0,1.8,0.6,3.5,0.6c1.7,0,3.6-0.6,3.6-0.6v20.7l0,23.1H158L158,74.8L158,74.8z   M7.3,87.9h7.3V75h17.9v-6.6H14.6v-7.1h20v-6.6H7.3V87.9z M43.6,87.9h27.3v-6.5H50.8v-7h17.7v-6.5H50.8v-6.7h19.8v-6.5H43.6  C43.6,54.7,43.6,87.9,43.6,87.9z M82,87.9h25.9v-6.5H89.2v-7h16.6v-6.5H89.2v-6.7h18.4v-6.5H82V87.9z M118.3,87.9h13.5  c10.4,0,17.6-7.2,17.6-16.6v-0.1c0-9.3-7.2-16.5-17.6-16.5h-13.5V87.9z M125.6,81.3v-20h6.2c6,0,10,4.1,10,10v0.1  c0,5.9-4,9.9-10,9.9C131.8,81.3,125.6,81.3,125.6,81.3z M175.4,87.9h7.3V66.8l15.1,21.1h6.3V54.7h-7.3v20.4l-14.6-20.4h-6.8V87.9z   M212.5,70.8c0,9.8,7.1,17,17.4,17c6.1,0,10.7-2.4,14.2-5.3V68.2h-14.4v6.3h7.3v4.7c-1.8,1.3-4.2,2-6.9,2c-5.9,0-10-4.5-10-10.5  v-0.1c0-5.6,4.2-10.3,9.5-10.3c3.8,0,6.1,1.2,8.7,3.4l4.6-5.5c-3.5-2.9-7.1-4.5-13-4.5C219.8,53.6,212.5,61.3,212.5,70.8L212.5,70.8  "/>
<path id="america" class="st1" d="M158,113.8v-16h7v15.7v17.3h-7V113.8z M0,131h7.4l3-7.4h14l3,7.4h7.6L20.9,97.6h-6.7L0,131z   M13.1,117.1l4.4-10.7l4.4,10.7H13.1z M41.3,131h6.9v-6.9v-14.8l9.5,13.9h0.2l9.6-14V131h7V97.8h-7.9l-8.6,13.8l-8.6-13.8h-7.9  C41.3,97.8,41.3,131,41.3,131z M85.2,131h25.6v-6.5H92.5v-7h16V111h-16v-6.7h18.2v-6.5H85.2V131z M149,131l-8.1-11.8  c4.2-1.6,7.1-4.9,7.1-10.3v-0.1c0-3.1-1-5.7-2.8-7.6c-2.2-2.2-5.4-3.4-9.7-3.4H121V131h7.3v-10.6h5h0.1l7.1,10.6H149 M128.3,113.9  v-9.5h6.6c3.6,0,5.7,1.6,5.7,4.7v0.1c0,2.8-2,4.7-5.6,4.7H128.3z M174.7,114.5c0,9.5,7.2,17,17,17c7,0,10.9-3,14.4-6.8l-4.6-4.5  c-2.7,2.7-5.8,4.6-9.5,4.6c-5.7,0-9.6-4.7-9.6-10.4v-0.1c0-5.7,4-10.3,9.6-10.3c3.6,0,6.6,1.8,9.2,4.5l4.8-5.1  c-3.5-3.6-7.3-6.1-14-6.1c-10.2,0-17.3,7.7-17.3,17.1V114.5 M211.4,130.5h7.4l3.2-7.4h15.6l3.2,7.4h7.4l-14.9-33.4h-7L211.4,130.5z   M224.6,116.7l5.2-11.5l5.1,11.5H224.6z"/>
<path id="logo" class="st0" d="M160.9,41.6c0,0-3.2-0.1-5.3-1.6c-4.1-3-4.9-8.1-4.9-8.1s4.8-1,8.4,2.4  C161.6,36.6,160.9,41.6,160.9,41.6 M162.2,41.6c0,0,3.2-0.1,5.3-1.6c4.1-3,4.9-8.1,4.9-8.1s-4.8-1-8.4,2.4  C161.4,36.6,162.2,41.6,162.2,41.6 M160.9,51.7c0,0,0.8-5-1.8-7.3c-3.6-3.3-8.4-2.4-8.4-2.4s0.8,5.1,4.9,8.1  C157.7,51.6,160.9,51.7,160.9,51.7 M162.2,51.7c0,0,3.2-0.1,5.3-1.6c4.1-3,4.9-8.1,4.9-8.1s-4.8-1-8.4,2.4  C161.4,46.7,162.2,51.7,162.2,51.7 M162.2,21.4c0,0,3.8-0.3,5.8-2.4c3.2-3.4,2.3-8.4,2.3-8.4s-4,0.3-6.7,3.8  C161.7,16.9,162.2,21.4,162.2,21.4 M160.9,21.4c0,0,0.5-4.6-1.4-7c-2.7-3.5-6.7-3.8-6.7-3.8s-0.9,5,2.3,8.4  C157,21.2,160.9,21.4,160.9,21.4 M161.6,0c-0.2,0.2-3.3,3.5-3.3,8.2c0,2.9,3,4.6,3.3,4.8c0.2-0.2,3.3-1.9,3.3-4.8  C164.8,3.5,161.8,0.2,161.6,0 M162.2,31.4c0,0,3.3,0.2,5.3-1.4c3.5-3,3.4-8.7,3.4-8.7s-5,0-7.3,3.7C162,27.4,162.2,31.4,162.2,31.4   M160.9,31.4c0,0,0.1-4-1.4-6.4c-2.3-3.7-7.3-3.7-7.3-3.7s-0.1,5.7,3.4,8.7C157.5,31.6,160.9,31.4,160.9,31.4"/>
<path id="copyright" class="st0" d="M252.1,62.9c-2.5,0-4.4-2-4.4-4.4c0-2.4,1.9-4.4,4.4-4.4c2.5,0,4.4,2,4.4,4.4  C256.6,60.9,254.6,62.9,252.1,62.9 M252.2,54.6c-2.2,0-3.9,1.8-3.9,3.9c0,2.2,1.7,3.9,3.9,3.9c2.2,0,3.9-1.8,3.9-3.9  C256.1,56.3,254.4,54.6,252.2,54.6 M253.3,59l1.1,1.7h-1.2l-1-1.5h-0.8v1.5h-1V56h2.1c1.1,0,1.8,0.6,1.8,1.5  C254.3,58.3,253.9,58.8,253.3,59 M252.4,56.9h-1v1.4h1c0.5,0,0.8-0.3,0.8-0.7C253.2,57.1,252.9,56.9,252.4,56.9"/>
</svg>