 <svg width="412" height="123" xmlns="http://www.w3.org/2000/svg"><g fill-rule="nonzero" fill="none"><path d="M359.246 70.448c3.528 0 6.309 2.922 6.309 7.614.1 4.652-3.567 8.52-8.227 8.68a6.09 6.09 0 01-2.177-.398l-.295-.121v5.693c0 .565.236.711.636.778l.104.015 1.575.184v1.004h-8.132v-1.004l1.298-.184c.435-.056.706-.164.743-.669l.004-.123V74.285c0-.976-.355-1.517-1.173-1.654l-.16-.02-.865-.092-.062-.885 5.69-1.157c.117.684.19 1.375.218 2.068a6.67 6.67 0 014.514-2.097zm37.417.998a4.33 4.33 0 011.397 3.117l-.003.237.031 8.56c0 .98.358 1.494 1.232 1.65l.16.025.743.09.06.885-5.07.824a4.895 4.895 0 01-.683-2.225 9.389 9.389 0 01-4.391 2.281 3.54 3.54 0 01-2.823-.878 3.522 3.522 0 01-1.166-2.712c0-1.97 1.239-3.257 3.38-4.085l.242-.09 4.604-1.675-.03-2.71a2.672 2.672 0 00-2.66-2.68c-1.423 0-2.072.73-2.042 1.644.04.51.186 1.005.43 1.454l.128.22-3.064 1.219a2.637 2.637 0 01-.492-1.614c0-2.345 3.647-4.657 6.555-4.657a4.351 4.351 0 013.462 1.12zm-155.735 0a4.33 4.33 0 011.395 3.117l-.003.237.034 8.56c0 .98.358 1.494 1.233 1.65l.16.025.739.09.062.885-5.072.824a4.974 4.974 0 01-.677-2.225 9.414 9.414 0 01-4.395 2.281 3.54 3.54 0 01-2.823-.878 3.522 3.522 0 01-1.166-2.712c0-1.97 1.237-3.257 3.378-4.085l.242-.09 4.608-1.675-.03-2.71a2.672 2.672 0 00-2.66-2.68c-1.425 0-2.073.73-2.042 1.644.04.51.186 1.005.427 1.454l.129.22-3.062 1.219a2.631 2.631 0 01-.493-1.614c0-2.345 3.646-4.657 6.556-4.657a4.35 4.35 0 013.46 1.12zm-31.756-1.03a9.604 9.604 0 013.875.822l.33.154.03 3.774h-1.145c-.74-1.948-1.638-3.288-3.831-3.288-1.642 0-2.567.824-2.567 2.042 0 1.022.513 1.85 2.424 2.537l.236.081 1.946.638c2.813.915 3.958 2.377 3.958 4.476 0 3.352-2.998 5.209-6.4 5.209a10.514 10.514 0 01-4.16-.871l-.356-.163-.216-4.206h1.331c.802 2.593 1.73 3.903 3.928 3.903 1.946 0 2.936-1.097 2.936-2.38 0-1.078-.397-1.992-2.127-2.601l-.224-.075-1.7-.55c-2.936-.942-4.235-2.285-4.235-4.54a5.378 5.378 0 011.927-3.745 5.403 5.403 0 014.04-1.216zm133.344 0a9.596 9.596 0 013.874.822l.33.154.033 3.774h-1.145c-.742-1.948-1.639-3.288-3.832-3.288-1.643 0-2.566.824-2.566 2.042 0 1.023.51 1.85 2.421 2.537l.236.081 1.948.639c2.818.914 3.959 2.376 3.959 4.476 0 3.352-2.999 5.208-6.399 5.208-1.434-.004-2.85-.301-4.163-.871l-.355-.163-.214-4.206h1.329c.799 2.593 1.73 3.903 3.925 3.903 1.948 0 2.938-1.097 2.938-2.38 0-1.078-.398-1.992-2.13-2.601l-.223-.075-1.696-.55c-2.938-.942-4.237-2.285-4.237-4.54a5.38 5.38 0 011.927-3.745 5.404 5.404 0 014.04-1.216zm-15.244 0a7.451 7.451 0 015.48 2.31 7.417 7.417 0 012.033 5.578 8.22 8.22 0 01-2.258 5.9 8.257 8.257 0 01-5.784 2.566 7.387 7.387 0 01-5.462-2.312 7.353 7.353 0 01-1.99-5.578 8.188 8.188 0 012.228-5.886 8.226 8.226 0 015.753-2.577zm-104.339 0a5.89 5.89 0 014.406 1.891 5.863 5.863 0 011.551 4.258l-.02.277v.943h-9.524c.186 3.41 2.008 6.364 5.196 6.364a7.82 7.82 0 003.626-1.135l.27-.174.708.855a10.71 10.71 0 01-5.965 3.017 7.372 7.372 0 01-5.366-2.45 7.337 7.337 0 01-1.84-5.594c-.31-4.18 2.778-7.842 6.958-8.251zm-27.459 0a5.89 5.89 0 014.405 1.892 5.863 5.863 0 011.55 4.257l-.02.277v.943h-9.522c.184 3.41 2.01 6.364 5.194 6.364a7.81 7.81 0 003.626-1.135l.27-.174.713.855a10.717 10.717 0 01-5.97 3.017 7.372 7.372 0 01-5.366-2.45 7.338 7.338 0 01-1.84-5.594c-.31-4.18 2.78-7.843 6.96-8.251zm74.354 1.033l.265.156v3.5h-1.083c-1.144-2.316-2.227-2.953-3.865-2.953-2.04 0-3.836 1.582-3.836 5.207 0 3.566 1.797 6.79 5.011 6.79a6.693 6.693 0 003.4-1.102l.25-.173.616.76a9.859 9.859 0 01-5.565 3.043 7.299 7.299 0 01-5.298-2.373 7.265 7.265 0 01-1.88-5.483 8.02 8.02 0 013.945-7.292 8.059 8.059 0 018.04-.08zm111.098-4.445v4.081h3.866v1.738h-3.866v9.47c.022 1.855.775 2.226 1.73 2.226a6.164 6.164 0 001.815-.32l.29-.106.338.912a8.893 8.893 0 01-4.113 1.614 3.635 3.635 0 01-2.891-1.116 3.618 3.618 0 01-.994-2.72l.02-.216v-9.744h-2.196v-1.738h2.196V68.71l3.805-1.705zm-202.834-3.321c4.672 0 7.423 2.74 7.423 6.153a6.283 6.283 0 01-4.64 6 42.335 42.335 0 004.424 7.128 5.678 5.678 0 003.761 2.519l.26.041.03.79a17.48 17.48 0 01-2.504.273 5.941 5.941 0 01-5.32-2.438 67.487 67.487 0 01-4.733-7.887c-.403-.025-1-.053-1.598-.06l-.256-.001v8.226c0 .382.175.569.503.646l.115.022 1.641.213v1.067h-9v-1.067l1.762-.183c.46-.057.763-.219.801-.836l.004-.14V65.907c0-.473-.262-.717-.686-.804l-.12-.02-1.76-.181v-1.063c1.175.03 2.443.056 3.522.03 2.91 0 4.517-.186 6.37-.186zm194.574 6.734a38.532 38.532 0 00-.088 2.518l-.002.467v10.995c0 .56.237.707.637.774l.103.015 1.298.184v1.005h-7.855V85.37l1.302-.184c.426-.056.699-.163.738-.658l.005-.131V74.255c0-.918-.25-1.514-.923-1.629l-.131-.016-1.144-.09-.06-.886c1.238-.242 4.915-.944 6.12-1.217zm-115.039.414l.187.132-.896 3.106a4.059 4.059 0 00-2.627-.76 4.424 4.424 0 00-2.972 2.49l-.091.221v8.377c0 .56.262.707.645.774l.098.015 1.422.184v1.005h-7.979V85.37l1.3-.184c.427-.056.697-.163.736-.658l.005-.131V74.285c0-.976-.301-1.547-1.034-1.66l-.143-.015-1.017-.09-.063-.886 5.69-1.157c.187 1.229.27 2.471.246 3.714 1.084-2.132 2.197-3.774 3.897-3.961a3.797 3.797 0 012.596.6zm19.392-8.125c-.027.749-.077 1.635-.09 2.6l-.002.419v7.156a6.847 6.847 0 014.856-2.404 4.296 4.296 0 013.301 1.192 4.276 4.276 0 011.307 3.01l-.003.243v9.475c0 .56.24.707.64.774l.104.015 1.145.184v1.005h-7.67V85.37l1.268-.184c.398-.056.69-.163.734-.658l.005-.131v-8.742a2.448 2.448 0 00-.766-1.939 2.46 2.46 0 00-1.985-.65 4.765 4.765 0 00-2.744 1.028l-.192.16v10.143c0 .56.236.707.638.774l.104.015 1.423.184v1.005h-7.825v-1.006l1.145-.183c.428-.056.697-.163.736-.658l.005-.132V66.458c0-1-.325-1.546-.928-1.661l-.125-.017-1.174-.091-.061-.85c1.268-.218 4.947-.885 6.154-1.133zm27.245 1.133v1.063l-1.762.181c-.463.06-.764.22-.801.837l-.005.14v8.163h10.02V66.06c0-.683-.268-.885-.707-.961l-.097-.015-1.762-.181v-1.063h9.308v1.063l-1.761.181c-.464.06-.765.22-.803.837l-.004.14v18.09c0 .684.27.887.71.961l.097.014 1.76.183v1.067h-9.307v-1.067l1.762-.183c.464-.057.763-.219.8-.836l.005-.14v-8.19h-10.02v8.19c0 .685.269.888.709.962l.096.014 1.762.183v1.067h-9.308v-1.067l1.762-.183c.46-.057.762-.219.8-.836l.004-.14V66.06c0-.683-.27-.885-.708-.961l-.096-.015-1.762-.181v-1.063h9.308zm102.793-1.133c-.03.749-.08 1.635-.092 2.6l-.003.419v18.672c0 .56.238.707.637.774l.103.015 1.269.184v1.005h-7.824v-1.006l1.298-.183c.432-.056.702-.163.74-.658l.006-.132V66.458c0-1-.33-1.546-.93-1.661l-.124-.017-1.174-.091-.06-.85c1.265-.218 4.946-.885 6.154-1.133zm-80.19 9.324c-2.285 0-3.772 2.344-3.772 6.335 0 4.17 1.734 6.792 4.116 6.792 2.223 0 3.769-2.317 3.769-6.336 0-4.141-1.794-6.791-4.113-6.791zm30.709.885a4.463 4.463 0 00-2.525.878l-.195.154v10.112c.748.615 1.69.95 2.66.946 2.165 0 4.327-1.952 4.327-6.244 0-3.565-1.7-5.846-4.267-5.846zm36.8 5.937l-2.874.914a2.287 2.287 0 00-1.828 2.467c-.046.594.163 1.18.577 1.61a2.1 2.1 0 001.588.644 5.901 5.901 0 002.308-.834l.26-.17-.03-4.631zm-155.733 0l-2.878.914a2.285 2.285 0 00-1.822 2.467 2.09 2.09 0 00.576 1.61 2.1 2.1 0 001.589.644c.82-.114 1.606-.4 2.308-.835l.259-.17-.032-4.63zM194.978 72c-1.465 0-2.728 1.45-3.033 4.05l-.028.274 6.308-.213c-.369-3.257-2.041-4.111-3.247-4.111zm27.46 0c-1.465 0-2.728 1.45-3.032 4.05l-.028.274 6.308-.213c-.372-3.257-2.043-4.111-3.248-4.111zm-45.24-6.64a19.56 19.56 0 00-1.695.043l-.563.047v9.137c.555.031 1.114.093 1.762.093a4.19 4.19 0 003.5-1.178 4.17 4.17 0 001.201-3.485 4.062 4.062 0 00-1.004-3.315 4.081 4.081 0 00-2.748-1.336l-.226-.01-.227.004zm194.34-1.981a2.316 2.316 0 01-.91 4.445 2.321 2.321 0 01-2.149-1.437 2.312 2.312 0 01.518-2.528 2.325 2.325 0 012.541-.48zM216.69 31.534v1.067l-1.736.18c-.524.063-.832.244-.832.974v18.701c0 5.391-3.217 8.041-8.474 8.805l-.432-.947a6.178 6.178 0 004.574-6.577V33.451c0-.455-.184-.67-.585-.699l-1.95-.15v-1.068h9.435zm15.395 6.578c-.06.855-.092 1.887-.092 2.984v9.961c0 1.036.405 1.553 1.393 1.673l.773.093.061.883-5.318.824a7.29 7.29 0 01-.527-2.255 7.812 7.812 0 01-4.884 2.345 4.186 4.186 0 01-3.145-1.098 4.167 4.167 0 01-1.34-3.044V41.95c0-.976-.278-1.583-1.053-1.643l-1.141-.093-.06-.883 6.119-1.22a43.062 43.062 0 00-.093 2.985v8.286c-.068.747.2 1.486.732 2.016a2.53 2.53 0 002.021.726 4.574 4.574 0 002.688-1.067V41.95c0-.976-.277-1.583-1.047-1.643l-1.144-.093-.062-.883 6.12-1.22zm166.91 1.217a5.405 5.405 0 014.04-1.217 9.603 9.603 0 014.203.976l.037 3.773h-1.144c-.747-1.947-1.644-3.287-3.835-3.287-1.644 0-2.567.824-2.567 2.042 0 1.066.555 1.918 2.656 2.62l1.948.638c2.814.914 3.959 2.374 3.959 4.478 0 3.348-2.999 5.207-6.401 5.207a10.507 10.507 0 01-4.515-1.035l-.215-4.206h1.329c.804 2.593 1.73 3.9 3.93 3.9 1.944 0 2.935-1.094 2.935-2.374 0-1.127-.432-2.073-2.35-2.681l-1.7-.549c-2.939-.942-4.237-2.282-4.237-4.537a5.38 5.38 0 011.926-3.748zM276.94 34.285a12.119 12.119 0 019.11-3.15c2.37.018 4.71.538 6.864 1.527l.093 4.84h-1.422a5.509 5.509 0 00-6.001-4.692c-4.76 0-8.008 3.932-7.886 9.961.123 6.09 3.433 9.959 8.07 9.959 3.99 0 5.135-1.31 6.033-4.965h1.422l-.062 4.905a16.148 16.148 0 01-7.577 1.83 11.45 11.45 0 01-8.827-2.923 11.396 11.396 0 01-3.73-8.5 12.063 12.063 0 013.913-8.792zm-27.226-3.878c-.03.85-.093 1.887-.093 3.014v17.636c0 1.036.402 1.582 1.393 1.673l.896.093.061.883-5.444.824a6.94 6.94 0 01-.525-2.226 6.288 6.288 0 01-7.559 1.462 6.26 6.26 0 01-3.294-6.943c-.1-4.652 3.566-8.519 8.226-8.68a6.139 6.139 0 012.474.516v-4.506c0-1.066-.37-1.613-1.053-1.677l-1.329-.088-.061-.854 6.308-1.127zm96.266 0c-.03.85-.093 1.887-.093 3.014v17.636c0 1.036.405 1.582 1.391 1.673l.897.093.061.883-5.442.824a7.001 7.001 0 01-.525-2.226 6.29 6.29 0 01-7.56 1.463 6.262 6.262 0 01-3.297-6.944c-.099-4.653 3.568-8.52 8.23-8.68a6.143 6.143 0 012.473.516v-4.506c0-1.066-.372-1.613-1.051-1.677l-1.33-.088-.062-.854 6.308-1.127zm-174.226 2.517a6.951 6.951 0 015.256-1.757c2.018.01 4.007.479 5.816 1.372v4.72h-1.237c-.991-3.319-2.63-4.356-5.072-4.356-2.443 0-4.02 1.281-4.02 3.41 0 1.77.864 3.018 3.496 3.872l2.845.911c4.421 1.431 5.566 3.443 5.566 6.365a7.416 7.416 0 01-2.578 5.248 7.45 7.45 0 01-5.586 1.759 16.724 16.724 0 01-6.617-1.37l-.032-5.055h1.422c.991 3.59 2.444 4.748 5.596 4.748 2.97 0 4.575-1.644 4.575-3.62 0-1.923-.864-3.201-3.614-4.085l-2.506-.795c-4.236-1.339-5.6-3.377-5.6-6.33a6.92 6.92 0 012.29-5.037zm88.135 5.188a5.891 5.891 0 014.404 1.893 5.864 5.864 0 011.53 4.535v.941H256.3c.186 3.412 2.009 6.366 5.195 6.366a7.835 7.835 0 003.897-1.307l.713.85a10.718 10.718 0 01-5.97 3.018 7.37 7.37 0 01-5.367-2.449 7.336 7.336 0 01-1.84-5.593c-.311-4.181 2.78-7.845 6.96-8.254zm108.42 0a5.89 5.89 0 014.404 1.893 5.863 5.863 0 011.53 4.534v.942h-9.522c.184 3.412 2.012 6.366 5.194 6.366a7.823 7.823 0 003.895-1.307l.713.85a10.722 10.722 0 01-5.97 3.018 7.37 7.37 0 01-5.365-2.45 7.335 7.335 0 01-1.84-5.593c-.311-4.18 2.78-7.844 6.96-8.253zM191.267 34.7v4.081h3.866v1.739h-3.866v9.468c.024 1.855.78 2.226 1.734 2.226a6.032 6.032 0 002.1-.425l.34.911a8.88 8.88 0 01-4.111 1.617 3.637 3.637 0 01-2.893-1.116 3.62 3.62 0 01-.975-2.938V40.52h-2.192V38.78h2.192v-2.377l3.805-1.704zm6.54 15.816a2.23 2.23 0 012.434-.464 2.22 2.22 0 011.355 2.072c-.001.586-.237 1.148-.655 1.56-.419.412-.985.64-1.572.633a2.226 2.226 0 01-2.059-1.378 2.217 2.217 0 01.496-2.423zm103.239-20.11c-.03.852-.092 1.888-.092 3.015v7.16a6.845 6.845 0 014.856-2.408 4.299 4.299 0 013.302 1.193 4.278 4.278 0 011.305 3.253v9.473c0 .608.281.73.742.794l1.145.182v1.002h-7.668v-1.002l1.266-.182c.432-.064.741-.186.741-.794v-8.741a2.449 2.449 0 00-.766-1.94 2.46 2.46 0 00-1.986-.65 4.77 4.77 0 00-2.937 1.19v10.142c0 .607.279.73.744.793l1.422.182v1.002h-7.824v-1.002l1.145-.182c.462-.064.74-.186.74-.793v-17.94c0-1.066-.37-1.613-1.053-1.677l-1.174-.088-.062-.854c1.268-.213 4.948-.884 6.154-1.127zm57.488 7.524a3.771 3.771 0 012.784.729l-.897 3.104a4.049 4.049 0 00-2.627-.757 4.414 4.414 0 00-3.062 2.709v8.378c0 .608.308.73.743.794l1.422.181v1.001h-7.979v-1.001l1.299-.182c.462-.064.74-.186.74-.794V41.98c0-1.035-.338-1.612-1.175-1.672l-1.017-.093-.064-.883 5.69-1.158c.188 1.23.271 2.472.248 3.716 1.083-2.133 2.195-3.777 3.895-3.959zm27.676.243a4.336 4.336 0 013.373 1.156c.906.851 1.4 2.05 1.36 3.29v9.473c0 .608.278.73.743.794l1.301.182v1.002h-7.824v-1.002l1.269-.182c.43-.064.738-.186.738-.794v-8.741a2.45 2.45 0 00-.766-1.939 2.463 2.463 0 00-1.984-.65 4.762 4.762 0 00-2.939 1.188v10.143c0 .607.308.73.74.793l1.269.182v1.002h-7.825v-1.002l1.299-.182c.468-.064.746-.186.746-.793V41.98c0-1.036-.341-1.613-1.178-1.673l-1.02-.093-.061-.883 5.693-1.158c.14.836.222 1.68.244 2.528a6.831 6.831 0 014.822-2.528zm-57.98-7.766c-.03.85-.094 1.887-.094 3.014v18.672c0 .607.278.73.743.793l1.265.182v1.002h-7.822v-1.002l1.303-.182c.462-.064.739-.186.739-.793v-17.94c0-1.066-.372-1.613-1.05-1.677l-1.18-.088-.06-.854c1.27-.213 4.951-.884 6.156-1.127zm-8.845 7.705a42.925 42.925 0 00-.094 2.984v10.997c0 .607.277.73.747.793l1.298.182v1.002h-7.857v-1.002l1.3-.182c.463-.064.74-.186.74-.793V41.95c0-.976-.277-1.583-1.053-1.643l-1.14-.093-.066-.883c1.238-.243 4.918-.946 6.125-1.22zm20.072 1.767c-2.168 0-4.334 1.95-4.334 6.242 0 3.565 1.7 5.851 4.267 5.851a4.489 4.489 0 002.725-1.037V40.824a4.168 4.168 0 00-2.658-.945zm-96.268 0c-2.165 0-4.33 1.95-4.33 6.243 0 3.564 1.7 5.85 4.267 5.85a4.482 4.482 0 002.722-1.036V40.824a4.17 4.17 0 00-2.659-.945zm124.622-.183c-1.513 0-2.813 1.552-3.06 4.328l6.308-.218c-.37-3.257-2.04-4.11-3.248-4.11zm-108.42 0c-1.514 0-2.814 1.552-3.06 4.328l6.309-.218c-.37-3.257-2.041-4.11-3.249-4.11zm135.788-8.101a2.316 2.316 0 011.69.75c.435.474.652 1.107.6 1.747a7.558 7.558 0 01-3.805 5.816l-.617-.547c1.112-.945 1.825-1.795 1.825-2.74 0-1.035-.778-1.526-1.952-1.92a2.462 2.462 0 01.386-2.092 2.473 2.473 0 011.873-1.014zm-79.465-.029a2.322 2.322 0 012.536-.485 2.313 2.313 0 01-.904 4.443c-.94.001-1.788-.565-2.146-1.433a2.31 2.31 0 01.514-2.525zm91.3-11.332a4.668 4.668 0 013.35 1.33 4.56 4.56 0 011.371 3.302c0 2.553-2.09 4.624-4.672 4.63-2.583.007-4.683-2.054-4.697-4.607-.013-2.553 2.066-4.635 4.648-4.655zm-2.8 1.942a3.793 3.793 0 00-.808 4.184 3.87 3.87 0 003.608 2.328 3.758 3.758 0 002.744-1.096 3.67 3.67 0 001.076-2.726c.001-1.552-.946-2.95-2.398-3.54a3.9 3.9 0 00-4.222.85zm4.08.82c.262.237.408.575.4.927-.02.44-.261.836-.636 1.06l-.13.068-.053.027 1.158 1.923h-.95l-1.04-1.769h-.81v1.769h-.878v-4.317h1.969c.353-.04.707.074.97.312zm-1.138.305h-.924v1.315h.878a.664.664 0 00.512-.162c.14-.123.22-.3.22-.485a.628.628 0 00-.19-.488.643.643 0 00-.496-.18z" fill="#474C55"/><path d="M100.099 77a.646.646 0 01-.53.42 23.649 23.649 0 00-17.325 8.133s-.524.507-1.847-.53a1.385 1.385 0 01-.641-1.62c1.804-4.53 6.454-7.516 13.808-8.872l.216-.031c1.505-.206 5.007-.689 6.2 1.658.143.256.185.557.119.843m21.028 22.451l-.042-.054a63.473 63.473 0 017.469-9.443c.09-.041.156-.068.258-.115a12.759 12.759 0 006.619-1.982 42.626 42.626 0 003.23-2.972 29.29 29.29 0 001.93-3.952v-.003l-.05.09.181-.419.03-.111.294-.908a.767.767 0 00-.401-.652 1.101 1.101 0 00-.62-.067l.018-.055c.154-.29.251-.607.287-.934v-.065a.887.887 0 00-.451-.667c-.3-.13-.637-.15-.95-.054a1.508 1.508 0 00-.419-.39c-.074-.052-.499-.203-1.282.27-.331.22-.622.497-.86.816l.06-.48a.841.841 0 00-.529-.57 1.472 1.472 0 00-1.294.248 6.984 6.984 0 00-1.352 1.688 5.671 5.671 0 00-1.215 1.38 4.14 4.14 0 01-2.38.258 6.937 6.937 0 001.707-1.253 4.407 4.407 0 001.174-2.618c0-.129-.01-.257-.033-.383a1.09 1.09 0 00-.545-.773c-.76-.377-1.667.389-1.84.548-.014.02-.266.283-.403.431a3.204 3.204 0 00-1.285.599 2.748 2.748 0 01-1 .486 4.218 4.218 0 00-1.512.776l-.04.03.037-.024c-.095.065-.928.618-1.186.793a9.548 9.548 0 00-2.512 1.92 22.637 22.637 0 01-10.575 5.478c-.065-2.756-1.769-10.161-2.114-12.995-.696-5.004-6.513-11.893-10.696-16.251 3.944 2.286 6.152 2.606 8.323-.344.573-.893 1.478.07 2.296-.087 1.194-.62 1.04-.952 1.04-1.814.35-.923 1.287-.468 1.984-.58 1.757-.29.713-2.129 1.4-3.053 7.727-.46-.985-7.545 4.215-10.48a14.806 14.806 0 006.17-5.704c1.247-1.675 1.505-.366 2.437-1.742a23.593 23.593 0 00-4.967-18.611C102.56-9.934 80.668 1.404 74.285 16.636c-2.64 3.87-1.824 9.497-1.972 14.125-.497 1.61-1.465 1.565-2.858.615-.152.98.119 1.98.747 2.749a3.513 3.513 0 002.546 1.287c.117.409.847 1.03 1.152 1.455a7.103 7.103 0 01-3.768-.655 2.516 2.516 0 00.643 1.979 4.58 4.58 0 003.268 3.749c3.076 1.245 1.632 5.451 1.272 7.179-.112.381-.23.762-.33 1.126a8.227 8.227 0 00-5.495 5.958c-.346 6.458-3.685 11.817-3.626 18.5a10.21 10.21 0 000 1.377c1.659 7.229-.46 16.704-.11 24.155a186.259 186.259 0 00-65.369 22.25 259.024 259.024 0 0195.996-17.783 259 259 0 0195.993 17.783 187.717 187.717 0 00-71.247-23.033" fill="#D11947"/></g></svg>