<svg width="100%" height="100%" viewBox="0 0 106 96" xmlns="http://www.w3.org/2000/svg">
  <path d="M39.7374 0c.6078.158253 1.2074.347496 1.7965.567014 1.4753.661986 2.6677 1.839736 3.3605 3.319116.6927 1.47938.8398 3.16213.4144 4.74229-.4255 1.58018-1.3951 2.95278-2.7326 3.86828-1.3375.9155-2.9541 1.3131-4.5558 1.1205-1.6018-.1926-3.0823-.9626-4.1724-2.1701-1.09-1.2074-1.7172-2.77202-1.7676-4.40939-.0503-1.63738.4795-3.23874 1.4933-4.51291 1.0137-1.27417 2.444-2.136556 4.0308-2.430316.096-.02168.1895-.053329.2791-.094484h1.8538ZM0 19.3294c.869542-1.074 1.90106-2.0015 3.0562-2.7478 3.24645-2.1731 6.90264-3.6362 10.736-4.2963 3.0679-.5719 6.1983-.7162 9.3046-.4289 3.7887.347 7.5057 1.2633 11.0295 2.7188 2.548 1.0395 5.053 2.1808 7.5438 3.373 2.0568.9436 4.2619 1.5096 6.5131 1.672 7.153.5374 14.3443-.1382 21.2789-1.9991.1592-.0444.3285-.0316.4795.0363-1.0021.6906-2.0184 1.3739-3.0204 2.0718-4.5675 3.103-9.7901 5.0704-15.2452 5.7429-2.4678.3689-4.9791.3148-7.4293-.16-.0624-.0238-.1288-.0343-.1954-.0309a.481017.481017 0 0 0-.1914.0506c-.0597.03-.1127.0721-.1557.1237-.043.0517-.0752.1117-.0944.1765-.8804 1.6865-1.725 3.3948-2.6912 5.0232-.8522 1.4212-1.9282 2.6908-3.1851 3.7583-.0501.0436-.093.1017-.1861.1962.6585.0582 1.2526.0873 1.8467.1527 2.703.2778 5.3127 1.1564 7.644 2.5734 2.6707 1.7426 4.6873 4.3463 5.7258 7.393.8123 2.1651 1.2435 4.4583 1.2741 6.7751.0525 4.7935-1.0769 9.5242-3.2852 13.761l-.1361.1672c.0716-.4434.1289-.7778.1861-1.1122.0573-.3344.1074-.6834.1646-1.0177.5208-2.938.7605-5.9202.7158-8.9051-.0031-2.5597-.772-5.058-2.2049-7.1638-1.4329-2.1057-3.462-3.7194-5.8185-4.6272-2.3973-.8867-5.0036-1.011-7.4722-.3562-2.6163.6747-5.0917 1.8222-7.3077 3.3876-3.7539 2.5624-7.2008 5.5606-10.2708 8.9341-3.911 4.1441-7.3646 8.7097-10.29943 13.6156-2.50266 4.1143-4.50233 8.523-5.95487 13.1286 0 .0363-.00005.0727-.13604.1018.08589-1.0832.14314-2.1809.26482-3.2567.88751-7.9964 4.09405-15.055 8.37412-21.692 2.7985-4.3617 5.9907-8.3526 9.1614-12.3944 2.2804-2.7767 4.3751-5.7056 6.2698-8.7669 1.6506-2.7765 2.4827-5.9754 2.3977-9.2176-.0716-4.1436-2.0899-7.015-5.7903-8.687-2.9355-1.318-6.148-1.8726-9.3474-1.6138-3.56146.2248-7.07188.9742-10.42114 2.2244-1.03782.3999-2.02553.9378-3.041875 1.4176l-.064392-.1018" fill="#E11D38"></path>
  <path d="m93.8113 64.7851.0859-.0727s-.0429-.0582-.05-.0582l-.1074.0873.0715.0436Zm2.4622 3.9691c-.8104.0233-1.5984.275-2.2761.7269-.2379.1861-.417.4388-.5153.727-.0427.0857-.0579.1828-.0432.2777.0146.0949.0583.1828.1247.2511.0665.0683.1525.1137.2457.1297.0933.016.1891.0018.274-.0406.3181-.1057.6091-.282.8518-.5161.4437-.4435.8374-.9451 1.3384-1.5266v-.0291Zm-15.7462-2.1518c-.9519.9087-1.8609 1.8683-2.8629 2.7043-1.253 1.0891-2.8262 1.7256-4.4733 1.81-1.8252.0727-2.7699-1.0031-2.4979-2.8496.2831-1.47.8791-2.8593 1.7463-4.0708 1.1881-1.861 2.4837-3.6347 3.6432-5.5466.6695-1.0472 1.2126-2.1723 1.6175-3.3512.6728-2.0791-.4438-3.1913-2.5337-2.5879-1.129.3095-2.1497.935-2.9457 1.8052-.7959.8701-1.3352 1.9499-1.5563 3.1162-.1253.6285-.1253 1.2761 0 1.9046.0216.2271.0955.4459.2157.6387.1203.1927.2836.354.4766.4708.1931.1168.4104.1858.6346.2014.2242.0156.4488-.0226.6557-.1115.831-.2937 1.5215-.8963 1.9325-1.6865.1073-.1745.1932-.3635.3149-.5379.043-.0582.1504-.08.3007-.1527-.2389.816-.7029 1.5453-1.3371 2.1019-.6342.5565-1.4121.9169-2.2416 1.0385-.3286.0611-.6665.0466-.9888-.0425-.3223-.0891-.6208-.2505-.8736-.4724-.2527-.2218-.4532-.4984-.5868-.8093-.1335-.311-.1966-.6484-.1848-.9875-.0718-1.2838.346-2.5465 1.1667-3.5256.859-1.1284 1.9675-2.0356 3.2358-2.6481 1.2683-.6125 2.6607-.9131 4.0647-.8776.4688.0123.9337.0906 1.3814.2326.3783.081.7346.2452 1.0438.481.3092.2358.5638.5375.7459.8839.1822.3464.2874.7291.3084 1.1213.0209.3921-.0429.7841-.1871 1.1485-.4415 1.1985-.9977 2.3502-1.6606 3.4385-1.3241 2.2171-2.777 4.3616-4.1083 6.5424-.5183.862-.9316 1.7847-1.231 2.7479-.3436 1.1122.365 1.7446 1.4315 1.4539 1.0831-.3914 2.0766-1.0022 2.9201-1.7956 1.52-1.328 2.8477-2.8673 3.9437-4.5725 2.3405-3.402 4.5521-6.8841 6.5562-10.497.0444-.0997.1172-.1835.2092-.2405.0919-.057.1985-.0847.3061-.0794 1.1309 0 2.2617-.0799 3.4856-.1308l-.3722.5816c-2.3404 3.7364-4.7238 7.4511-7.007 11.224-.7486 1.3137-1.4063 2.6788-1.9682 4.0854-.149.4462-.198.9206-.1432 1.3884.0016.0958.0237.19.0647.2762.041.0863.0999.1624.1727.2232.0729.0609.1578.1049.249.1291.0913.0243.1866.0281.2795.0112.5364-.0641 1.0615-.2035 1.5602-.4143 1.3184-.6067 2.4962-1.4885 3.457-2.5879.4096-.5275.7669-1.0949 1.0665-1.6938 1.818-3.0483 3.6311-6.0991 5.4396-9.1522.0741-.1498.1891-.2746.3313-.3597.1421-.0851.3054-.1268.4703-.1201 1.0235 0 2.0469-.1309 3.1706-.2108l-1.4314 2.1808-3.9866 6.07c-.0198.0423-.0366.086-.0502.1308h.1217c.7158-.7269 1.3814-1.5048 2.1472-2.1808.6043-.5629 1.3456-.9518 2.1472-1.1268.4127-.1157.8469-.1282 1.2653-.0362.4185.092.8084.2857 1.1374.5644.329.2787.586.6342.749 1.036.164.4018.229.8379.191 1.2709-.046 1.2749-.509 2.4978-1.317 3.4748l-.315.4216-.0644.0727h.1144c1.62-.4703 3.097-1.3479 4.294-2.5515.423-.4071.795-.8724 1.21-1.294.127-.0969.27-.1706.422-.2181v.1236c-.715.7633-1.431 1.5847-2.226 2.2826-1.129.9649-2.457 1.6604-3.886 2.0354-.2097.0623-.4062.1633-.5798.2981-1.3742 1.1363-2.9925 1.9281-4.7238 2.3116-.5509.0933-1.1142.081-1.6606-.0363-.1467-.0271-.2832-.0945-.3949-.1948-.1116-.1004-.1941-.2299-.2383-.3745-.0443-.1446-.0486-.2988-.0127-.4458.0359-.147.1108-.2811.2165-.3879.3084-.3414.7014-.5925 1.138-.7269.8411-.2103 1.6946-.3657 2.5552-.4653.12-.0057.2367-.0419.3393-.1055.1025-.0635.1876-.1522.2476-.258.7042-1.0118 1.203-2.156 1.4673-3.3657.0739-.4417.0907-.8914.05-1.3376.0019-.1704-.0416-.3381-.1259-.4854-.0843-.1474-.2062-.2688-.3529-.3515s-.3127-.1235-.4804-.1183c-.1677.0053-.3309.0566-.4722.1483-.5369.326-1.0199.7357-1.4315 1.214-.6568.7642-1.2708 1.565-1.8394 2.3989-2.8022 3.9885-5.3736 8.1391-7.7013 12.4307-.0576.1547-.1621.2867-.2986.3769-.1364.0902-.2976.1339-.4601.1247-1.0522 0-2.1043.08-3.185.1309l6.1553-10.1772v-.1309l-.0716.08c-.9092.775-1.9181 1.4206-2.9989 1.9191-.9287.4218-1.9547.5729-2.9631.4362-.5749-.0704-1.1032-.356-1.4818-.801-.3786-.4449-.58-1.0173-.5652-1.6052.0038-.8347.1946-1.6576.5582-2.4062v-.109l-.0859.0436M56.3783 72.0546l.093-.0873c-.0288-.0171-.0603-.0294-.093-.0363 0 0-.0429 0-.0644.0436l.0644.08Zm2.4407 3.9836c-.8733.0032-1.7239.2827-2.4336.7996-.1432.1079-.2466.2615-.2934.4362-.0548.2332-.0243.4786.0859.6906.1002.1163.4366.1163.637.0582.2372-.082.451-.2217.6227-.4071.4509-.4798.8732-.9887 1.3814-1.5775Zm-14.0714-2.1808c1.3577-.2719 2.6041-.9504 3.5787-1.9482.5839-.5875.9611-1.3539 1.0736-2.1809.1002-.7705-.3507-1.1558-1.0665-.8941-.3004.114-.5771.2841-.8159.5016-1.2896 1.2259-2.2335 2.7794-2.7342 4.4998l-.0357.0218Zm17.9291 1.4321c2.1315-.6856 4.0114-2.005 5.3967-3.7874.1112-.122.2602-.2015.4222-.2254-.9869 1.5395-2.3507 2.792-3.9579 3.6348-.3708.2165-.7646.3897-1.1738.5161-.867.2718-1.6808.6949-2.4049 1.2503-1.2766.9471-2.769 1.5499-4.3374 1.752-.3945.033-.7917-.0039-1.1738-.1091-.1419-.0319-.273-.1014-.3799-.2014-.1069-.1-.1858-.227-.2287-.3681-.0429-.1411-.0483-.2912-.0156-.435.0328-.1438.1024-.2763.2019-.3839.2685-.3141.6181-.5458 1.0092-.6688.9019-.2399 1.8395-.3635 2.7628-.5453.1431 0 .3363-.0799.4007-.1889.8214-1.0942 1.378-2.3691 1.6248-3.722.0601-.4845.0408-.9758-.0573-1.4539-.0183-.128-.0668-.2498-.1411-.3548-.0744-.1051-.1726-.1905-.2863-.2489-.1137-.0585-.2395-.0883-.3669-.087-.1274.0014-.2527.0338-.3651.0946-.6172.3308-1.1779.7603-1.6606 1.2722-.6864.7814-1.3222 1.6069-1.9038 2.4716-2.738 3.9875-5.2495 8.1305-7.5224 12.4089-.0635.1544-.1727.2849-.3125.3734-.1398.0886-.3032.1308-.4677.1209-1.045 0-2.0827.08-3.1706.1236l6.2411-10.2354-.093-.0872-.5511.4071c-1.6681 1.3174-3.7636 1.9481-5.869 1.7665-.3963.006-.7898-.0695-1.1565-.2221-.3668-.1526-.6993-.379-.9775-.6657-.2783-.2867-.4965-.6276-.6414-1.0023-.145-.3747-.2137-.7753-.2021-1.1776-.0047-.0524-.0167-.1038-.0357-.1527-.9024.9941-1.9531 1.838-3.1136 2.5007-1.0528.5864-2.2542.8395-3.4498.7269-.4962-.0433-.9588-.2728-1.2976-.6437-.3387-.371-.5294-.8567-.5347-1.3626-.036-.8575.1702-1.7075.5941-2.4498.7158-1.3521 1.4315-2.6825 2.1901-4.0273l.2792-.5234h-2.004c0-.3053.1216-.4434.4151-.4289h1.503c.1071.0144.2158-.0078.3091-.063.0933-.0553.1658-.1405.2062-.2423.6012-1.0613 1.224-2.1081 1.8252-3.1622.0435-.108.1195-.1992.2173-.2606.0977-.0614.2121-.0898.3266-.0811h3.1779c-.7158 1.2068-1.4315 2.4644-2.2331 3.7729h3.4284c-.0931.4434-.0931.4434-.4581.4434h-2.863c-.0811-.002-.1618.0131-.237.0443-.0751.0313-.1431.0781-.1995.1374-1.0593 1.8101-2.1472 3.6348-3.1206 5.4448-.2475.5081-.4233 1.0489-.5225 1.6066-.0561.1459-.0703.305-.041.4587.0293.1538.1009.296.2066.4101.1056.1142.2409.1955.3902.2348.1493.0392.3065.0346.4533-.0132.5497-.0932 1.0813-.2748 1.5747-.5379 1.1112-.6519 2.1098-1.4844 2.956-2.4644.0629-.0613.1075-.1394.1288-.2253.3578-2.0137 1.6247-3.373 3.2065-4.4634 1.4688-1.107 3.2691-1.6643 5.096-1.5775.492.0312.9756.1442 1.4315.3344.2204.0734.4199.2002.5814.3693.1615.1692.2801.3756.3456.6016.0655.2261.0759.4649.0303.6959-.0455.231-.1456.4473-.2917.6303-.485.6562-1.1424 1.1601-1.8967 1.4539-1.5246.6765-3.1186 1.1788-4.7525 1.4975-.2362.0582-.3721.1381-.3649.3926-.0243.5337-.0052 1.0686.0572 1.5992.2505 1.2576 1.3241 1.8247 2.7055 1.4539 1.3395-.4146 2.565-1.1415 3.5787-2.1227.3244-.2773.6023-.6063.823-.9741 2.0684-3.4457 4.1226-6.9132 6.1983-10.3589.0477-.0842.1116-.1578.1878-.2165.0762-.0586.1632-.1012.2559-.1252 1.1094-.1017 2.226-.1672 3.4499-.2544l-5.5112 8.338.093.08c.1002-.109.2076-.2108.3007-.3271.796-1.0981 1.8166-2.0083 2.9917-2.6679.4737-.2386.9848-.3911 1.5103-.4507.3529-.0414.7105-.008 1.0501.0981.3396.106.6538.2825.9229.5182.269.2357.487.5255.6401.8511.1532.3256.2383.6799.2498 1.0406.0693 1.4191-.4053 2.8104-1.3242 3.8818-.1002.1236-.1931.2545-.2933.3853l-.0717.0727h.136" fill="#221F1F"></path>
  <path d="M35.0709 64.8505c.4545-.3779.8067-.8672 1.0234-1.4218.2166-.5545.2906-1.156.2148-1.7476-.007-.3994-.1352-.7868-.367-1.1095-.2319-.3226-.5561-.5647-.9284-.6933-.4099-.1363-.8514-.1395-1.2631-.0092-.4118.1302-.7733.3875-1.0345.7361-.6854.8909-1.094 1.969-1.1738 3.0968-.1861 1.8973-.2862 3.8019-.3793 5.7065-.0071 1.3885-.2492 2.7656-.7157 4.0708-1.1738 2.9078-3.4141 4.4635-6.4416 4.936-1.8172.3633-3.6996.1737-5.411-.5452-.978-.3818-1.7849-1.1135-2.2687-2.0574s-.6111-2.0349-.358-3.0676c.0602-.47.2694-.9073.5961-1.2457.3268-.3384.7531-.5595 1.2146-.6298.4224-.0673.854.0342 1.2043.2831.3502.249.592.6261.6744 1.0521.0824.4261-.0008.868-.2323 1.2331-.2315.365-.5933.6248-1.0093.7248-.2792.0727-.3078.2253-.3293.4361-.0725.8545.186 1.7041.7207 2.3679.5346.6639 1.3033 1.0897 2.1423 1.1869 2.82.4725 5.1246-.9669 6.0837-3.8165.5757-1.9162.8416-3.9146.7873-5.9173-.0476-1.8713.3501-3.7266 1.1595-5.4084.5014-1.0144 1.254-1.8789 2.1838-2.5085.9299-.6297 2.005-1.0027 3.1198-1.0826 1.2127-.2065 2.4584-.042 3.5787.4725.5152.217.9446.6019 1.2207 1.0942.276.4922.3829 1.0638.3038 1.6245-.0331.359-.1583.703-.363.9976-.2047.2946-.4817.5297-.8036.6817-.9642.4529-2.0249.6529-3.0849.5815" fill="#221F1F"></path>
  <path d="M67.0057 92.7361c-.0215-.3874-.0215-.7757 0-1.1631.0501-.4653-.1432-.6397-.5655-.727-1.4314-.3707-2.3976.3199-2.4692 1.8028-.0215.2831-.0215.5675 0 .8506.1288 1.3666 1.0664 1.9046 2.3118 1.3303.151-.055.2914-.1362.4151-.2399.1356-.1318.2302-.3012.272-.4871.0358-.4434 0-.8941 0-1.3375l.0358-.0291Zm-2.4407 3.2494c-.4026-.2548-.7513-.5884-1.0259-.9813-.2745-.3929-.4694-.8374-.5733-1.3075-.1039-.4701-.1148-.9565-.0319-1.4309.0829-.4744.2578-.9274.5146-1.3325.3109-.4691.7664-.8201 1.2949-.9977.5286-.1776 1.1003-.1719 1.6253.0163l.5798.2108v-2.3989h1.0449v8.0327h-.9519c0-.1236-.043-.2617-.0645-.4289l-1.2238.6179H64.565ZM75.8677 92.1981c.0319-.2111.0156-.4268-.0476-.6306-.0632-.2037-.1715-.3899-.3167-.5444-.1452-.1545-.3234-.2731-.5208-.3466-.1974-.0736-.4088-.1002-.6179-.0777-.2131-.0098-.4259.0243-.6257.1002-.1997.0758-.3823.192-.5368.3413-.1544.1494-.2775.329-.3618.528-.0844.199-.1283.4132-.1291.6298h3.1564Zm-1.7607 3.7583-.2362-.0873c-.5598-.073-1.0792-.3347-1.4751-.7434-.3958-.4086-.6451-.9404-.7078-1.5101-.1453-.5762-.1321-1.182.0383-1.7511.1704-.5692.4914-1.0799.9279-1.4765 1.3599-1.1558 3.5787-.6252 4.0582.9741.1093.5416.1786 1.0908.2075 1.6429h-4.2156c-.0349.2691-.0102.5428.0723.801.0825.2582.2207.4945.4044.6916.1838.197.4086.35.6579.4477.2494.0977.5171.1376.7836.1169.7715-.0165 1.5201-.27 2.1472-.7269v.9668c-.0212.0567-.0547.1077-.0981.1492-.0434.0416-.0955.0726-.1524.0907-.4366.1599-.8875.2835-1.3313.4216l-1.0808-.0072ZM23.8708 92.8524c-.043-.3748-.11-.7463-.2004-1.1122-.0853-.3159-.2729-.5932-.5327-.7872-.2598-.1939-.5766-.2931-.8988-.2814-.328-.027-.655.0617-.9262.2511-.2711.1893-.4698.4677-.5625.7884-.2198.7098-.2198 1.471 0 2.1808.0918.3352.2891.6307.5618.8412.2727.2105.6059.3244.9484.3244.3426 0 .6757-.1139.9484-.3244.2727-.2105.4701-.506.5618-.8412.0697-.346.1223-.6954.1575-1.0468l-.0573.0073Zm-2.2975 3.0968c-.3783-.1757-.738-.3901-1.0736-.6398-.5791-.6596-.9051-1.5089-.9182-2.3926-.0132-.8837.2874-1.7426.8467-2.4197.3245-.3033.7186-.5193 1.1464-.6282.4277-.1089.8756-.1072 1.3026.0048.427.112.8196.3309 1.142.6366.3223.3057.5641.6885.7034 1.1135.2241.7617.2389 1.5712.0429 2.3408-.109.4733-.3422.9078-.675 1.2573-.3327.3494-.7524.6008-1.2146.7273h-1.3026ZM55.9349 95.9564c-.4477-.1559-.8278-.4656-1.0747-.8757-.247-.41-.3453-.8948-.278-1.3706v-3.7292h.9877v3.4384c-.0029.2831.0235.5658.0787.8433.0371.1987.1394.3787.2901.5107.1508.1321.3412.2083.5402.2162.324.0204.6488-.0243.9559-.1316.307-.1072.5903-.2749.8334-.4935.0859-.0654.1074-.2617.1074-.3999v-3.9981h.959v5.8155h-.9448v-.5088L57.0872 96l-1.1523-.0436ZM96.4527 95.9564c-.3579-.1091-.7157-.2399-1.0808-.3272-.0725-.0067-.1427-.0296-.2055-.0671-.0629-.0375-.1167-.0887-.1577-.1498-.0411-.0612-.0683-.1308-.0797-.2039-.0115-.0731-.0068-.1478.0135-.2189a5.22817 5.22817 0 0 0 0-.6833l.4509.2617c.5848.3868 1.2803.5635 1.9755.5016.206-.0158.4085-.0623.6012-.1381.1441-.0544.2671-.1544.3509-.2853.0838-.1309.1239-.2858.1143-.4416.0028-.1522-.0475-.3005-.1417-.4189-.0943-.1183-.2265-.1991-.3736-.2281-.6084-.16-1.2383-.2835-1.8395-.458-.3052-.0695-.5796-.2386-.7813-.4815-.2016-.2428-.3193-.5461-.3352-.8633-.0308-.323.0371-.6478.1947-.9301.1575-.2823.397-.5084.6857-.6474.2789-.167.5928-.2642.916-.2835.6712.0257 1.3404.0913 2.0041.1963.0774-.0024.1542.0141.224.0479.0699.0339.1308.0842.1777.1467.0468.0626.0784.1356.092.213.0135.0774.0087.1569-.0141.2321-.0142.1814-.0142.3637 0 .5452-.4935-.2177-1.0033-.3952-1.5245-.5307-.4202-.0414-.8442-.0069-1.2526.1018-.0746.0101-.1462.036-.2104.076-.0641.04-.1192.0933-.1617.1564-.0425.063-.0715.1345-.0851.2097-.0135.0751-.0114.1524.0063.2267.0626.2608.2215.4872.4438.6324.3826.1448.7781.2519 1.181.3199.229.0581.4652.1017.7157.1672.2903.0623.5543.2146.7556.436.2014.2214.33.5009.3681.7997.0594.3112.0226.6334-.1056.9224-.1282.289-.3413.5305-.6102.6915-.3867.1941-.7889.3546-1.2024.4797l-1.1094-.0072ZM41.8629 95.9564c-.3293-.1018-.6585-.2326-.9949-.3126-.0824-.0067-.1623-.0323-.2335-.075-.0711-.0427-.1318-.1013-.1773-.1714-.0456-.0701-.0748-.1498-.0855-.233-.0106-.0833-.0025-.168.0239-.2475.0108-.2107.0108-.4218 0-.6325.2863.1672.5082.2981.7157.4144.6411.3527 1.3876.4536 2.0972.2835.1873-.0131.3621-.1005.4866-.2432.1245-.1428.1889-.3296.179-.5201 0-.4434-.2648-.6324-.637-.7269-.3722-.0945-.8661-.189-1.2955-.2981-1.1523-.298-1.5818-.7923-1.5245-1.7374.0461-.4369.2502-.8409.5729-1.1337.3226-.2928.7409-.4535 1.1735-.451.672-.0069 1.343.0515 2.004.1745.0878-.0059.1757.0111.2552.0495.0795.0384.1479.0968.1989.1697.0509.0729.0827.1578.0922.2467.0094.0889-.0036.1787-.038.261-.0145.1815-.0145.3638 0 .5452l-.4438-.2108c-.6007-.362-1.3066-.5007-1.9969-.3926-.408.0873-.773.2545-.816.727-.0429.4725.2219.6542.7158.7996.4008.1091.8088.1672 1.2096.2617 1.0664.2472 1.5388.727 1.5173 1.6138-.0292.435-.2078.8458-.5048 1.1606-.2969.3149-.6933.5139-1.1199.5623l-.365.0945-1.0092.0218ZM49.7368 95.9564c-1.138-.3053-1.3885-1.1776-1.3742-2.2244.0143-1.0468 0-1.9046 0-2.9078l-.6155-.0654v-.8142h.6012v-1.6065h1.0378v1.6138h1.954v.8578h-1.954v3.5038c0 .4871.3507.727.8517.727a9.21626 9.21626 0 0 0 1.0522-.1309v.836l-.7873.2035-.7659.0073ZM90.4393 95.9564c-1.1237-.3417-1.3671-1.2068-1.3384-2.2608V90.846l-.637-.0582v-.8142h.6226v-1.6501h.9949v1.6283h1.9611v.8578h-1.8609v3.4821c0 .5161.3436.7269.866.7269.3438-.0232.6858-.0694 1.0236-.1381v.836l-.7158.2035-.9161.0364ZM80.3779 95.7747v-5.8156h.9448v.4725c.486-.2396.9883-.4437 1.503-.6106.2623-.0886.5418-.1119.8148-.0679s.5316.154.754.3208c.2224.1667.4021.3853.524.6373.1218.2521.1822.5301.1761.8108.0644 1.3958 0 2.7988 0 4.2236h-.9662v-3.7801c0-1.1341-.6227-1.4539-1.5961-1.1704-.3239.0928-.6292.2429-.9018.4434-.0846.0696-.1547.1556-.2063.2529-.0516.0974-.0837.2041-.0944.3141v3.9473l-.9519.0219ZM14.193 90.8387l-.6227-.0436v-.8432h.5655c.3006-2.0718 1.1308-2.6534 3.0919-2.1809v.8651c-.6155-.0364-1.3097-.3635-1.8036.2253-.18.3374-.301.7039-.3578 1.0832h1.8035v.8723h-1.6676v4.965H14.193v-4.9432ZM28.457 89.9737h.9305v.8141l.3936-.2616c.5093-.3918 1.1366-.5922 1.775-.5671.3722 0 .5369.1381.4796.5307-.0144.1766-.0144.3541 0 .5307-.3579 0-.6585-.0509-.9662-.0582-.5652.014-1.1054.2392-1.5174.6325-.0988.1193-.1477.2733-.136.4289v3.7437h-.9447l-.0144-5.7937Z" fill="#E11D38"></path>
</svg>