<svg xmlns="https://www.w3.org/2000/svg" width="531.7" height="109" viewBox="0 0 531.7 109">
<title>World Vision USA</title>
<path fill="#ff6b00" d="M350.9.6c-.2 0-.3-.1-.3-.3s.1-.3.3-.3h180.8v109.8C490.2 51.2 425.4 10.4 350.9.6"></path>
<path fill="#FFF" d="M501.9 64c1.2-18.1.8-28.6 3.9-31.5 2.9-2.7 8-3.4 16.8-4-19.2-2.2-18.8-1.7-20.7-20.4-1.9 18.7-1.5 18.1-20.7 20.4 8.8.6 13.9 1.4 16.8 4 3 2.9 2.7 13.4 3.9 31.5"></path>
<g fill="#000">
<path d="M121 68.7v39.1h10.8V76c3.6-3.1 6.2-2.1 13.4 3.8l4.4-9.8c-2.2-.9-5-2-9-2-4.1 0-7.1 2-8.5 3.7l-.5.6-.1-.1.1-3.6-10.6.1zM164.7 48h-10.8v59.8h10.8V48zM72.2 88.2c0 10.9 8.1 19.9 21.2 19.9s21.2-9 21.2-19.9-8.1-19.9-21.2-19.9-21.2 9-21.2 19.9m229.3-19.5h-10.8v39.1h10.8V68.7zm-4.1-17.6c-3.2 0-5.7 2.5-5.7 5.7s2.5 5.7 5.7 5.7 5.7-2.5 5.7-5.7c0-3.3-2.5-5.7-5.7-5.7m10.8 28.3c-1 14.9 20.8 11.3 20.2 20.4-.3 3.6-3.4 4.9-6.8 4.8-5.4-.4-8.7-3.5-11.6-7l-3.2 7.2c4.4 2.5 9.1 3.7 13.3 4.1 9.4.6 17.2-3.4 17.8-12.5.9-14-21.6-12.3-21.2-19.4.2-3.1 3.7-4.7 7.4-4.5 3.7.3 6.7 2.4 9.9 5.3l2.9-6.4c-4.1-1.8-7.9-2.6-11.3-2.9-10.2-.7-17 4.6-17.4 10.9m-117.5 29.2c5.1 0 9.2-1.8 13-4.7l.2.1v3.7h10V48H203v23.8c-3-2.3-7.6-3.7-12.3-3.7-5.9 0-20.1 3.6-20.1 20.8.1 12.7 11.4 19.7 20.1 19.7m70.5-.8h4.6l22.9-52.5h-5.9l-15.9 36.9-15.7-36.9H238l23.2 52.5zm191.3 0V86.3c0-14.5-11.1-18.2-17.7-18.2-4.7 0-8.6 1.8-12.6 4.5l-.2-.1v-3.7h-10v39h10.8V76.3c3.2-2.8 6.3-4 9-4 5.7 0 9.7 5.5 9.7 11.5v24h11zM44 60.3h-6.1L25.6 92 12.5 55.5H0l19.4 52.1h5.9l12.6-32.2 12.5 32.2h5.9l19.4-52h-5.9L56.2 92 44 60.3zm59.2 27.9c0 9-3 16.2-9.8 16.2s-9.8-7.2-9.8-16.2 3-16.2 9.8-16.2c6.7 0 9.8 7.2 9.8 16.2m259.5 0c0 10.9 8.1 19.9 21.2 19.9s21.2-9 21.2-19.9-8.1-19.9-21.2-19.9-21.2 9-21.2 19.9m30.9 0c0 9-3 16.2-9.8 16.2s-9.8-7.2-9.8-16.2 3-16.2 9.8-16.2c6.8 0 9.8 7.2 9.8 16.2M203 76.5v23.6c-2.8 2.4-5.4 4.2-9.3 4.2-4.8 0-11-4.1-11-15.8 0-12.7 9.9-21.9 20.3-12M344.8 68.7h10.8v39.1h-10.8zM350.5 51.1c-3.2 0-5.7 2.5-5.7 5.7s2.5 5.7 5.7 5.7 5.7-2.5 5.7-5.7c.1-3.3-2.4-5.7-5.7-5.7"></path>
</g>
<path fill="#000" d="M456.8 68.4c-2.4 0-4.4-2-4.4-4.4s1.9-4.4 4.4-4.4c2.4 0 4.4 1.9 4.4 4.4 0 2.4-2 4.4-4.4 4.4zm0-8c-2 0-3.6 1.6-3.6 3.6s1.6 3.6 3.6 3.6 3.6-1.6 3.6-3.6c.1-2-1.6-3.6-3.6-3.6zm-1.9 1.3h2.1c1.2 0 1.5.7 1.5 1.2 0 .8-.5 1.3-1.3 1.4.4.1.7.5 1.1 1.2l.6.9h-.9l-.4-.7c-.6-1.1-.8-1.3-1.4-1.3h-.5v2h-.8v-4.7zm1.9 2.1c.6 0 1-.2 1-.7 0-.4-.3-.7-.8-.7h-1.2v1.4h1z"></path>
</svg>