<svg xmlns="http://www.w3.org/2000/svg" xmlns:xlink="http://www.w3.org/1999/xlink" version="1.1" width="594.24pt" height="817.2pt" viewBox="0 0 594.24 817.2">
<defs>
<clipPath id="clip_0">
<path transform="matrix(1,0,0,-1,0,817.2)" d="M0 817.2H594.24V0H0Z"/>
</clipPath>
</defs>
<g id="layer_1" data-name="">
<g clip-path="url(#clip_0)">
<path transform="matrix(1,0,0,-1,260.4522,507.6524)" d="M0 0C1.303 1.355 2.819 2.55 4.194 3.851" fill="#030505"/>
<path transform="matrix(1,0,0,-1,250.4393,428.28623)" d="M0 0C-1.951 .069-3.902 .23-5.854 .593" fill="#030505"/>
<path transform="matrix(1,0,0,-1,271.3277,539.2464)" d="M0 0C-.005 0-2.715 14.378-6.681 35.445-8.056 34.144-9.572 32.949-10.875 31.594-7.165 12.892-4.67 .313-4.663 .264 1-36.896-35.396-33.6-40.62-25.175-37.401-25.319-24.871-24.359-24.755-11.53-24.625 2.955-39.82 9.809-49.615 .548-62.339-11.481-51.454-41.092-22.056-35.99-8.442-33.627 4.522-23.298 0 0" fill="#030505"/>
<path transform="matrix(1,0,0,-1,233.5555,338.12803)" d="M0 0C-1.673-1.709-5.115-8.211-5.115-8.211-5.115-8.211 2.559-46.878 11.03-89.565 12.981-89.928 14.933-90.09 16.884-90.158 8.125-43.565-.053 .018 0 0" fill="#030505"/>
<path transform="matrix(1,0,0,-1,273.7328,493.017)" d="M0 0C-4.487-4.855-10.856-11.519-17.792-19.072-50.422 7.91-101.166 40.333-81.542 90.428-71.966 114.875-57.991 132.51-40.698 151.822-32.556 160.915-20.18 172.148-12.727 181.844-9.005 186.686-4.557 192.174-3.862 198.562-3.297 203.753-6.335 209.487-12.078 209.558-23.789 209.701-33.044 195.24-37.437 186.088-42.002 176.58-45.742 164.19-46.114 153.684-46.18 151.826-78.292 124.428-93.542 87.428-102.37 66.01-92.804 41.508-78.042 25.428-64.042 10.178-44.792-4.947-17.542-26.822-10.049-18.572-2.779-10.799 2.191-5.297 .697-3.395 .021-2.278 0 0" fill="#030505"/>
<path transform="matrix(1,0,0,-1,286.3857,324.2965)" d="M0 0C.491-1.079-1.565-5.417-1.942-6.567-2.815-9.234-6.55-20.707-7.625-23.301-12.247-34.452-21.593-40.219-33.215-38.163-49.944-35.205-52.405-18.825-54.122-4.56-54.295-3.124-55.962-1.202-55.962-1.202-68.195-67.042-13.445-49.292-2.71-22.503-.383-16.694 2.99-11.355 5.292-5.541 7.327-.402 2.341-5.149 0 0" fill="#231f20"/>
<path transform="matrix(1,0,0,-1,233.7119,333.5787)" d="M0 0C0 0 33.094 31.355 28.344 37.366 23.594 43.377 2.877 21.326 0 0" fill="#ffffff"/>
<path transform="matrix(1,0,0,-1,290.0096,493.1051)" d="M0 0C-2.55 .749-5.213 2.998-4.291 5.813-4.147 6.25-3.906 6.652-3.614 7.006 7.313 20.258 22.19 38.09 21.283 56.379 21.035 61.379 19.376 66.162 16.718 70.358 11.797 78.126 3.452 83.884-5.709 85.282-19.818 87.436-34.61 79.805-42.038 67.618-47.599 74.382-55.274 79.612-63.876 81.248-72.478 82.885-81.965 80.614-88.215 74.48-94.464 68.347-96.854 58.27-93.136 50.342-92.62 57.623-88.512 64.562-82.378 68.517-76.243 72.472-68.227 73.349-61.383 70.815-52.541 67.54-46.522 59.388-41.726 51.27-38.223 60.018-30.883 67.148-22.037 70.395-15.547 72.778-8.026 73.032-1.906 69.815 4.551 66.421 8.712 59.472 9.746 52.252 10.781 45.031 8.963 37.613 5.716 31.081 .744 21.082-3.374 14.964-9.543 7.731-9.776 7.457-10.08 7.106-10.401 6.737-11.762 5.173-12.506 3.145-12.378 1.076-12.366 .882-12.348 .72-12.324 .605-10.361-8.618 1.462-6.013 6.931-2.067 11.933 1.542 14.931 6.433 18.982 11.482 19.518 12.15 19.861 12.962 20.205 13.748 20.205 13.748 15.767 11.102 15.764 11.099 13.879 8.967 12.544 6.376 10.652 4.231 8.352 1.625 4.77-.624 1.163-.236 .787-.196 .395-.116 0 0" fill="#231f20"/>
<path transform="matrix(1,0,0,-1,296.0508,347.8472)" d="M0 0C-3.177 0-10.928-9.148-17.026-23.252H-24.904L-1.652 53.874 9.148 56.796-13.723-10.8-13.469-11.054C-7.37-2.033-1.906 3.812 4.32 3.812 6.861 3.812 10.037 2.287 10.037-.89 10.037-4.447 7.369-10.165 6.479-12.071 6.479-12.325 4.065-17.28 4.065-19.059 4.065-19.694 4.32-20.583 5.464-20.583 7.496-20.583 10.577-17.844 11.848-16.7 12.651-15.938 15.056-13.412 15.31-13.158L14.431-16.95C9.603-21.27 5.718-24.014 1.524-24.014-.509-24.014-3.939-23.379-3.939-19.059-3.939-16.772-2.414-11.944-.89-8.005-.254-6.226 1.144-2.541 1.144-1.397 1.144-.635 .762 0 0 0" fill="#231f20"/>
<path transform="matrix(1,0,0,-1,372.0284,349.24473)" d="M0 0C-1.016 1.397-1.271 1.651-1.651 2.287 .255 3.303 3.05 4.955 3.05 7.75 3.05 9.275 2.033 10.038 .255 10.038-2.541 10.038-5.463 7.369-5.717 2.541L-9.295-1.077C-11.228-3.031-13.161-4.985-15.093-6.94-17.746-9.622-20.634-11.998-23.564-14.367-24.971-15.505-26.413-16.637-27.989-17.534-28.456-17.799-29.043-18.17-29.603-18.17-31-18.17-31.254-16.899-31.254-15.883-31.254-14.358-30.491-12.325-29.983-10.8L-24.266 4.447H-32.905C-36.209-3.177-43.451-18.424-49.296-18.424-50.567-18.424-52.6-17.789-52.6-14.866-52.6-12.636-51.832-10.36-51.017-8.313-49.987-5.724-48.631-3.201-46.836-1.058-45.366 .697-43.355 2.477-40.96 2.65-38.532 2.826-35.829 1.59-35.202-.92L-32.318 2.712C-32.997 3.754-34.359 4.269-35.493 4.619-38.911 5.674-42.753 5.173-46.143 4.191-48.844 3.409-51.398 2.139-53.625 .418-55.555-1.073-57.23-2.887-58.577-4.919-59.719-6.644-60.639-8.531-61.236-10.514-61.611-11.756-61.875-13.056-61.875-14.358-61.875-19.567-58.699-22.617-53.616-22.617-45.738-22.617-41.164-15.375-38.878-11.563L-38.623-11.817C-39.259-14.485-39.513-15.375-39.513-17.153-39.513-18.678-39.513-22.363-34.049-22.363-32.352-22.363-30.701-21.901-29.166-21.202-24.858-19.238-13.371-8.312-12.43-7.414-10.592-5.662-8.758-3.908-6.925-2.152-6.459-1.706-5.994-1.26-5.529-.815-5.422-.713-5.316-.61-5.209-.508-4.573-2.542-3.812-4.447-3.812-9.148-3.812-15.756-5.082-20.457-9.021-20.457-10.164-20.457-11.435-19.821-13.214-17.662-14.992-15.501-16.009-15.12-17.025-15.12-18.805-15.12-20.329-16.518-20.329-18.424-20.329-21.473-15.501-22.617-11.308-22.617-1.397-22.617 3.939-16.645 3.939-9.911 3.939-5.972 2.415-3.304 0 0" fill="#231f20"/>
<path transform="matrix(1,0,0,-1,401.3461,349.6261)" d="M0 0C0 1.525-1.144 3.049-2.922 3.049-5.336 3.049-10.927-1.525-14.23-12.706-6.353-9.784 0-4.066 0 0M1.779-15.375C-.635-17.407-6.353-22.235-12.96-22.235-18.296-22.235-22.108-18.169-22.108-13.468-22.108-4.066-9.529 5.209-1.397 5.209 2.287 5.209 4.701 2.795 4.701-.381 4.701-8.259-9.402-13.341-14.104-15.12-13.722-17.661-11.943-19.313-9.529-19.313-6.353-19.313-2.922-16.645 0-13.977Z" fill="#231f20"/>
<path transform="matrix(1,0,0,-1,361.1397,475.91123)" d="M0 0C-1.016 1.397-1.271 1.651-1.651 2.287 .255 3.303 3.05 4.955 3.05 7.75 3.05 9.275 2.033 10.037 .255 10.037-2.541 10.037-5.463 7.369-5.717 2.541L-8.313-.112C-11.906-3.786-15.481-7.467-19.09-11.126-20.688-12.746-22.282-14.365-23.993-15.865-25.434-17.129-27.013-18.521-28.956-18.885-29.128-18.915-29.302-18.933-29.477-18.933-30.874-18.933-31.001-17.916-31.001-17.28-31.001-16.392-30.365-14.358-30.238-14.104L-23.759 4.574H-33.161C-39.896-12.833-46.502-19.06-49.044-19.06-50.441-19.06-50.568-17.789-50.568-17.28-50.568-16.01-49.552-13.215-49.044-11.817L-42.69 5.209-52.475 4.574-56.667-6.861C-56.794-6.988-57.048-7.497-57.048-7.624-57.938-10.038-59.463-14.104-59.463-16.01-59.463-18.043-58.573-22.617-52.982-22.617-45.74-22.617-40.784-14.993-36.592-8.005L-36.338-8.26C-36.592-9.148-36.719-9.784-37.481-12.452-38.37-15.375-38.752-17.28-38.752-18.679-38.752-22.108-35.956-22.617-34.305-22.617-29.725-22.617-25.79-19.759-22.424-16.952-18.74-13.878-15.286-10.439-11.942-7.002-9.704-4.83-7.457-2.67-5.209-.509-4.574-2.542-3.812-4.447-3.812-9.148-3.812-15.756-5.082-20.457-9.021-20.457-10.164-20.457-11.435-19.821-13.214-17.662-14.992-15.502-16.009-15.12-17.025-15.12-18.805-15.12-20.329-16.519-20.329-18.424-20.329-21.474-15.501-22.617-11.308-22.617-1.397-22.617 3.939-16.646 3.939-9.911 3.939-5.973 2.415-3.304 0 0" fill="#231f20"/>
<path transform="matrix(1,0,0,-1,390.4893,456.9796)" d="M0 0C0-2.923-2.287-5.21-5.083-5.21-8.005-5.21-10.292-2.923-10.292 0-10.292 2.795-8.005 5.082-5.083 5.082-2.287 5.082 0 2.795 0 0M-14.739-14.357-5.591-13.723-11.816-30.494C-12.325-31.765-13.087-34.052-13.087-35.195-13.087-35.704-12.96-36.975-11.436-36.975-10.165-36.975-8.259-36.085-5.337-33.925-5.337-33.925-1.897-31.376-.143-29.047L1.42-29.797C.833-30.861-.181-31.755-1.038-32.596-4.079-35.581-7.509-38.238-11.345-40.124-12.861-40.869-14.548-41.549-16.264-41.549-18.424-41.549-21.092-40.151-21.092-36.594-21.092-34.307-20.457-32.273-19.44-29.224Z" fill="#231f20"/>
<path transform="matrix(1,0,0,-1,412.3409,492.4298)" d="M0 0C-4.319-3.303-10.291-6.099-15.501-6.099-19.948-6.099-23.887-3.558-23.887 2.287-23.887 11.182-13.214 21.728-1.778 21.728 1.652 21.728 5.337 20.838 5.337 18.806 5.337 17.153 3.304 15.375 2.415 15.375 2.033 15.375 1.398 16.01 1.144 16.391-.127 17.916-1.905 19.313-4.319 19.313-11.562 19.313-15.374 5.845-15.374 2.542-15.374-1.271-12.197-2.541-10.291-2.541-6.733-2.541-2.795 .509-1.016 1.779Z" fill="#231f20"/>
<path transform="matrix(1,0,0,-1,336.4023,402.0158)" d="M0 0 7.08 1.793 1.416-14.631H7.645L7.268-16.235H.849L-4.342-30.866C-4.72-31.999-5.286-33.887-5.286-34.925-5.286-35.208-5.286-36.435-4.247-36.435-3.595-36.435-1.837-35.79 1.664-33.318 1.707-33.287 5.828-30.398 7.824-28.043 7.778-28.622 7.733-29.2 7.687-29.779 7.678-29.883 7.694-30.032 7.659-30.131 7.579-30.354 7.244-30.571 7.068-30.735 5.112-32.555 3.042-34.283 .809-35.756 .462-35.985 .109-36.204-.246-36.422-2.167-37.583-4.317-38.647-6.582-38.857-6.81-38.878-7.039-38.889-7.268-38.889-10.383-38.889-11.138-36.435-11.138-34.264-11.138-31.81-9.911-28.317-9.533-27.185L-5.57-16.141H-8.306L-7.835-14.536H-5.002Z" fill="#231f20"/>
<path transform="matrix(1,0,0,-1,359.0562,422.49873)" d="M0 0C-2.359 0-8.118-6.796-12.648-17.274H-18.501L-2.216 36.655 5.807 38.826-10.194-8.023-10.005-8.212C-5.475-1.51-1.416 2.832 3.209 2.832 5.097 2.832 7.457 1.699 7.457-.661 7.457-3.304 5.475-7.551 4.815-8.967 4.815-9.156 3.021-12.837 3.021-14.159 3.021-14.631 3.209-15.291 4.059-15.291 5.57-15.291 7.74-13.12 8.684-12.271 9.155-11.799 12.549-8.675 13.709-7.287L12.765-10.581C11.446-11.765 10.262-13.072 8.896-14.207 7.731-15.174 6.509-16.102 5.159-16.796 3.908-17.438 2.546-17.84 1.133-17.84-.378-17.84-2.927-17.368-2.927-14.159-2.927-12.46-1.794-8.873-.661-5.947-.189-4.625 .849-1.888 .849-1.038 .849-.472 .566 0 0 0" fill="#231f20"/>
<path transform="matrix(1,0,0,-1,383.927,423.82023)" d="M0 0C0 1.133-.849 2.265-2.17 2.265-3.963 2.265-8.117-1.133-10.572-9.439-4.718-7.268 0-3.021 0 0M1.323-11.421C-.471-12.932-4.718-16.518-9.627-16.518-13.592-16.518-16.423-13.498-16.423-10.005-16.423-3.021-7.079 3.87-1.038 3.87 1.7 3.87 3.493 2.077 3.493-.283 3.493-6.135-6.984-9.911-10.477-11.233-10.194-13.12-8.872-14.348-7.079-14.348-4.718-14.348-2.17-12.365 0-10.383Z" fill="#231f20"/>
<path transform="matrix(1,0,0,-1,370.5655,367.9639)" d="M0 0C3.237 .657 7.185 1.68 11.094 3.344 12.112 3.777 15.621 4.954 15.875 5.208L16.677 3.218C8.125-.25 3-3.125-8.577-3.863" fill="#231f20"/>
<path transform="matrix(1,0,0,-1,359.1927,494.665)" d="M0 0C2.044-.298 10.257 .279 14.007 7.159L13.581 3.218C7.331-3.091 3-3.125-8.577-3.863" fill="#231f20"/>
</g>
</g>
</svg>
