<svg aria-hidden="true" tabindex="-1" width="290px" height="55px" viewBox="0 0 290 55" version="1.1" xmlns="http://www.w3.org/2000/svg" xmlns:xlink="http://www.w3.org/1999/xlink">
	<title>Direct Relief Logo</title>
	<defs>
		<polygon points="0.04125 30.877 0.04125 0.4571875 23.8449063 0.4571875 47.6485625 0.4571875 47.6485625 30.877"></polygon>
	</defs>
	<g stroke="none" stroke-width="1" fill="none" fill-rule="evenodd">
		<g transform="translate(-16.000000, -41.000000)">
			<g transform="translate(16.000000, 41.000000)">
				<g>
					<path d="M71.462875,37.5093125 C71.462875,41.1186875 74.0416875,41.540125 76.338625,41.540125 C86.4634375,41.540125 89.788875,33.9013125 89.788875,26.915625 C89.788875,18.151375 84.1644375,11.8243125 75.1183125,11.8243125 C73.1974375,11.8243125 72.3078125,11.9645625 71.462875,12.012 L71.462875,37.5093125 Z M66.870375,15.5271875 C66.870375,11.3100625 64.6655625,11.589875 62.557,11.543125 L62.557,10.324875 C64.3864375,10.4176875 66.2591875,10.4176875 68.0879375,10.4176875 C70.0569375,10.4176875 72.7271875,10.324875 76.1976875,10.324875 C88.33825,10.324875 94.945125,18.4325625 94.945125,26.7293125 C94.945125,31.3685625 92.2274375,43.0409375 75.6325625,43.0409375 C73.2441875,43.0409375 71.0414375,42.9474375 68.839375,42.9474375 C66.7294375,42.9474375 64.6655625,42.9955625 62.557,43.0409375 L62.557,41.822 C65.3709375,41.540125 66.7294375,41.4459375 66.870375,38.259375 L66.870375,15.5271875 L66.870375,15.5271875 Z" fill="#FE5000"></path>
					<path d="M101.233688,18.3074375 C100.015438,18.3074375 98.938125,17.182 98.938125,15.9644375 C98.938125,14.79225 100.060813,13.71425 101.233688,13.71425 C102.453313,13.71425 103.531313,14.697375 103.531313,15.9644375 C103.531313,17.230125 102.498688,18.3074375 101.233688,18.3074375 Z M96.218375,41.822 L97.1100625,41.822 C98.4231875,41.822 99.358875,41.822 99.358875,40.275125 L99.358875,27.5721875 C99.358875,25.5096875 98.6569375,25.2285 96.9230625,24.2914375 L96.9230625,23.5420625 C99.12375,22.8855 101.749313,21.995875 101.936313,21.8549375 C102.264938,21.6665625 102.546813,21.6211875 102.78125,21.6211875 C103.015,21.6211875 103.109188,21.901 103.109188,22.2770625 L103.109188,40.275125 C103.109188,41.822 104.140438,41.822 105.453563,41.822 L106.249,41.822 L106.249,43.0409375 C104.654688,43.0409375 103.015,42.9474375 101.328563,42.9474375 C99.6414375,42.9474375 97.953625,42.9955625 96.218375,43.0409375 L96.218375,41.822 L96.218375,41.822 Z" fill="#FE5000"></path>
					<path d="M107.884563,41.822 L109.149563,41.822 C110.462,41.822 111.39975,41.822 111.39975,40.275125 L111.39975,27.104 C111.39975,25.6513125 109.665875,25.3708125 108.959812,24.9940625 L108.959812,24.2914375 C112.38425,22.8394375 114.257688,21.6211875 114.681188,21.6211875 C114.960313,21.6211875 115.103313,21.7600625 115.103313,22.2303125 L115.103313,26.4474375 L115.195438,26.4474375 C116.366938,24.619375 118.335938,21.6211875 121.19525,21.6211875 C122.36675,21.6211875 123.866188,22.4173125 123.866188,24.1044375 C123.866188,25.3708125 122.975875,26.4941875 121.663438,26.4941875 C120.21075,26.4941875 120.21075,25.3708125 118.571063,25.3708125 C117.773563,25.3708125 115.149375,26.4474375 115.149375,29.2593125 L115.149375,40.275125 C115.149375,41.822 116.08575,41.822 117.398875,41.822 L120.02375,41.822 L120.02375,43.0409375 C117.445625,42.9955625 115.476625,42.9474375 113.461563,42.9474375 C111.540688,42.9474375 109.571,42.9955625 107.884563,43.0409375 L107.884563,41.822" fill="#FE5000"></path>
					<path d="M136.338125,28.6034375 C137.509625,28.6034375 137.65125,27.9943125 137.65125,27.432625 C137.65125,25.0415 136.198563,23.11925 133.572313,23.11925 C130.713688,23.11925 128.744688,25.2285 128.183688,28.6034375 L136.338125,28.6034375 Z M128.044125,30.1035625 C127.94925,30.525 127.94925,31.229 128.044125,32.824 C128.32325,37.2741875 131.18325,40.9316875 134.9315,40.9316875 C137.509625,40.9316875 139.524688,39.524375 141.259938,37.7911875 L141.915813,38.44775 C139.7605,41.305 137.0875,43.7449375 133.244375,43.7449375 C125.7905,43.7449375 124.293125,36.5248125 124.293125,33.526625 C124.293125,24.3381875 130.47925,21.6211875 133.761375,21.6211875 C137.558438,21.6211875 141.634625,24.01025 141.680688,28.9795 C141.680688,29.2593125 141.680688,29.5411875 141.634625,29.8216875 L141.213188,30.1035625 L128.044125,30.1035625 L128.044125,30.1035625 Z" fill="#FE5000"></path>
					<path d="M161.50475,38.8678125 C159.2085,41.540125 156.068688,43.7449375 152.365812,43.7449375 C147.492125,43.7449375 143.0385,39.010125 143.0385,34.040875 C143.0385,27.2435625 147.912875,21.6211875 154.663437,21.6211875 C157.053875,21.6211875 160.989812,22.3691875 160.989812,24.8545 C160.989812,25.9318125 160.33325,26.915625 159.2085,26.915625 C157.238812,26.915625 157.333687,23.11925 152.928188,23.11925 C148.89875,23.11925 146.788812,27.619625 146.788812,31.180875 C146.788812,36.0105625 149.882562,40.275125 154.991375,40.275125 C157.381812,40.275125 158.929375,39.430875 160.709313,38.0730625 L161.50475,38.8678125" fill="#FE5000"></path>
					<path d="M168.7675,37.2741875 C168.7675,40.3693125 170.456687,41.2121875 171.723062,41.2121875 C172.988062,41.2121875 173.925125,40.79075 175.003125,39.8523125 L175.705062,40.555625 C174.065375,42.2434375 172.002875,43.7449375 169.472187,43.7449375 C166.471937,43.7449375 165.019937,42.1485625 165.019937,39.3834375 L165.019937,24.8545 L161.926187,24.8545 L161.926187,24.1044375 C164.362687,22.2303125 165.816063,21.338625 168.2065,17.5429375 L168.7675,17.5429375 L168.7675,22.3224375 L175.753187,22.3224375 L175.753187,24.8545 L168.7675,24.8545 L168.7675,37.2741875" fill="#FE5000"></path>
					<path d="M191.786375,11.8243125 C190.614875,11.8243125 189.81875,11.9645625 188.973125,12.1055 L188.973125,25.839 C189.676438,25.9785625 190.660938,26.074125 191.456375,26.074125 C197.223813,26.074125 199.471938,22.2770625 199.471938,18.90075 C199.471938,14.823875 197.316625,11.8243125 191.786375,11.8243125 Z M188.973125,27.5721875 L188.973125,38.44775 C188.973125,41.7278125 190.755125,41.77525 193.239063,41.822 L193.239063,43.0409375 C190.990938,43.0409375 188.973125,42.9474375 186.912,42.9474375 C184.661125,42.9474375 182.459063,42.9955625 180.114688,43.0409375 L180.114688,41.822 C182.459063,41.9629375 184.380625,41.353125 184.380625,38.6815 L184.380625,14.9180625 C184.380625,11.6373125 182.6,11.589875 180.114688,11.543125 L180.114688,10.324875 C182.694188,10.3709375 184.942313,10.4176875 187.239938,10.4176875 C188.881,10.4176875 190.520688,10.324875 193.52025,10.324875 C202.380063,10.324875 204.347688,15.2920625 204.347688,18.62025 C204.347688,22.605 201.348125,25.5564375 197.692,26.635125 C201.95725,32.8700625 204.208813,36.620375 206.2225,38.8678125 C207.722625,40.555625 209.12925,41.822 211.518313,41.822 L211.518313,43.0409375 C210.3475,43.0409375 209.175313,42.9474375 208.003813,42.9474375 C206.692063,42.9474375 205.332188,42.9955625 204.019063,43.0409375 C199.753125,38.3535625 196.615375,32.8700625 193.239063,27.5721875 L188.973125,27.5721875 L188.973125,27.5721875 Z" fill="#FE5000"></path>
					<path d="M221.878938,28.6034375 C223.0525,28.6034375 223.19275,27.9943125 223.19275,27.432625 C223.19275,25.0415 221.74075,23.11925 219.1145,23.11925 C216.2545,23.11925 214.287563,25.2285 213.723125,28.6034375 L221.878938,28.6034375 Z M213.58425,30.1035625 C213.490063,30.525 213.490063,31.229 213.58425,32.824 C213.866125,37.2741875 216.722688,40.9316875 220.473,40.9316875 C223.0525,40.9316875 225.06825,39.524375 226.802125,37.7911875 L227.458688,38.44775 C225.302688,41.305 222.628313,43.7449375 218.786563,43.7449375 C211.332688,43.7449375 209.834625,36.5248125 209.834625,33.526625 C209.834625,24.3381875 216.021438,21.6211875 219.302875,21.6211875 C223.098563,21.6211875 227.175438,24.01025 227.223563,28.9795 C227.223563,29.2593125 227.223563,29.5411875 227.175438,29.8216875 L226.753313,30.1035625 L213.58425,30.1035625 L213.58425,30.1035625 Z" fill="#FE5000"></path>
					<path d="M228.476188,41.822 L229.3665,41.822 C230.678938,41.822 231.614625,41.822 231.614625,40.275125 L231.614625,14.168 C231.614625,11.1203125 230.913375,11.0275 229.134125,10.511875 L229.134125,9.7604375 C231.006188,9.1526875 232.975875,8.30775 233.959688,7.7474375 C234.475313,7.464875 234.85,7.2304375 234.990938,7.2304375 C235.27075,7.2304375 235.365625,7.511625 235.365625,7.885625 L235.365625,40.275125 C235.365625,41.822 236.396188,41.822 237.710688,41.822 L238.506125,41.822 L238.506125,43.0409375 C236.9125,43.0409375 235.27075,42.9474375 233.585,42.9474375 C231.898563,42.9474375 230.21075,42.9955625 228.476188,43.0409375 L228.476188,41.822" fill="#FE5000"></path>
					<path d="M245.4375,18.3074375 C244.21925,18.3074375 243.141938,17.182 243.141938,15.9644375 C243.141938,14.79225 244.266688,13.71425 245.4375,13.71425 C246.657125,13.71425 247.734438,14.697375 247.734438,15.9644375 C247.734438,17.230125 246.7025,18.3074375 245.4375,18.3074375 Z M240.422188,41.822 L241.311813,41.822 C242.626313,41.822 243.562,41.822 243.562,40.275125 L243.562,27.5721875 C243.562,25.5096875 242.860063,25.2285 241.126188,24.2914375 L241.126188,23.5420625 C243.32825,22.8855 245.952438,21.995875 246.1415,21.8549375 C246.46875,21.6665625 246.751313,21.6211875 246.983688,21.6211875 C247.21675,21.6211875 247.311625,21.901 247.311625,22.2770625 L247.311625,40.275125 C247.311625,41.822 248.342188,41.822 249.656688,41.822 L250.452125,41.822 L250.452125,43.0409375 C248.859188,43.0409375 247.21675,42.9474375 245.531688,42.9474375 C243.843188,42.9474375 242.15675,42.9955625 240.422188,43.0409375 L240.422188,41.822 L240.422188,41.822 Z" fill="#FE5000"></path>
					<path d="M263.207312,28.6034375 C264.377437,28.6034375 264.519062,27.9943125 264.519062,27.432625 C264.519062,25.0415 263.065688,23.11925 260.440125,23.11925 C257.583563,23.11925 255.613875,25.2285 255.0515,28.6034375 L263.207312,28.6034375 Z M254.909187,30.1035625 C254.815,30.525 254.815,31.229 254.909187,32.824 C255.189687,37.2741875 258.049688,40.9316875 261.800687,40.9316875 C264.377437,40.9316875 266.393875,39.524375 268.129125,37.7911875 L268.783625,38.44775 C266.628312,41.305 263.955312,43.7449375 260.112875,43.7449375 C252.658312,43.7449375 251.160937,36.5248125 251.160937,33.526625 C251.160937,24.3381875 257.347062,21.6211875 260.629187,21.6211875 C264.424875,21.6211875 268.503812,24.01025 268.550563,28.9795 C268.550563,29.2593125 268.550563,29.5411875 268.503812,29.8216875 L268.081,30.1035625 L254.909187,30.1035625 L254.909187,30.1035625 Z" fill="#FE5000"></path>
					<path d="M283.593063,22.3224375 L283.593063,24.8545 L277.64,24.8545 L277.64,40.6965625 C277.64,41.822 278.8115,41.822 279.843438,41.822 L281.953375,41.822 L281.953375,43.0409375 C279.937625,42.9955625 277.968625,42.9474375 275.952875,42.9474375 C274.032,42.9474375 272.062313,42.9955625 270.140063,43.0409375 L270.140063,41.822 L271.92275,41.822 C273.656625,41.822 273.889688,41.025875 273.889688,40.3205 L273.889688,24.8545 L270.609625,24.8545 L270.609625,24.057 C271.686938,23.4025 273.889688,22.6985 273.889688,21.1041875 C273.889688,18.057875 274.733938,13.4633125 277.64,10.4644375 C280.218125,7.7928125 282.655313,7.2304375 283.312563,7.2304375 C284.108688,7.2304375 285.421813,7.4195 285.421813,9.1526875 C285.421813,10.184625 284.904813,10.9800625 283.779375,10.9800625 C282.374125,10.9800625 282.374125,10.324875 280.781188,10.324875 C277.922563,10.324875 277.64,13.6984375 277.64,15.6206875 L277.64,22.3224375 L283.593063,22.3224375" fill="#FE5000"></path>
					<g>
						<polyline fill="#FFA300" points="4.0239375 37.4715 3.812875 51.5515 15.494875 52.8598125 24.025375 53.73775 29.45525 53.0674375 30.699625 44.9425625 29.7715 37.9094375 29.525375 29.2909375 17.1909375 26.230875 5.00225 26.0253125 4.701125 31.161625 4.0239375 37.4715"></polyline>
						<path d="M27.78325,25.1796875 L37.929375,23.82875 L45.8761875,23.1790625 L49.5254375,24.745875 L50.876375,37.7251875 L51.228375,44.8435625 L50.3875625,47.9689375 C50.3875625,47.9689375 44.378125,48.1408125 43.250625,48.28725 C42.1251875,48.4364375 35.1539375,48.87025 35.1539375,48.87025 L29.896625,49.5721875 C29.896625,49.5721875 27.905625,49.6464375 27.575625,47.2250625 C27.2573125,44.801625 25.636875,41.012125 25.1604375,37.0445625 C24.6681875,32.934 26.6550625,25.3323125 26.6550625,25.3323125" fill="#FFBE4C"></path>
						<g>
							<mask fill="white">
								<use xlink:href="#path-1"></use>
							</mask>
							<g></g>
							<path d="M21.140625,27.9241875 L29.95575,27.8636875 C29.95575,27.8636875 35.39525,27.9434375 36.64375,28.070625 C37.8846875,28.2033125 44.631125,27.9200625 44.631125,27.9200625 C44.631125,27.9200625 45.045,27.966125 45.3550625,25.0078125 C45.777875,20.9983125 45.9380625,20.340375 46.800875,15.8104375 C47.0284375,14.6238125 47.3034375,13.1580625 47.6485625,11.297 L47.3886875,5.786 L46.3051875,4.1779375 L37.7513125,1.77375 L30.28575,0.9851875 L25.311,0.4571875 L21.412875,13.501125 L22.088,21.4355625 L21.140625,27.9241875" fill="#FFA300" mask="url(#mask-2)"></path>
							<path d="M0,6.326375 L2.9253125,5.3625 L12.133,5.3185 L20.365125,6.1895625 L25.2965625,6.714125 L25.977875,16.8568125 L26.99125,21.489875 L27.138375,28.25625 L14.0408125,29.8189375 L4.5533125,30.877 L0.45375,29.7006875 C0.45375,29.7006875 0.5314375,24.7493125 0.3004375,22.9356875 C0.0089375,20.6635 0,6.326375 0,6.326375" fill="#FE5000" mask="url(#mask-2)"></path>
						</g>
						<path d="M2.303125,15.2411875 C4.5794375,14.9634375 10.742875,14.6636875 15.362875,16.3955 C19.98425,18.132125 23.3660625,20.0220625 23.909875,20.9983125 C24.451625,21.9835 27.3645625,25.1865625 26.7691875,25.471875 C26.18,25.7558125 17.3999375,26.004 16.3879375,26.3395 C15.3841875,26.6770625 13.4701875,26.4900625 13.4701875,26.4900625 L8.4390625,23.1295625 L7.844375,21.7339375 L7.3871875,20.6985625 L2.303125,15.2411875" fill="#FFFFFE"></path>
						<path d="M47.73175,10.0725625 C41.5298125,10.84325 34.684375,14.834875 33.5713125,16.0263125 C32.456875,17.210875 30.7285,20.0371875 30.160625,20.6435625 C29.0516875,21.83225 27.46975,24.3381875 29.1231875,24.1278125 C30.7800625,23.925 36.0745,22.636625 36.0745,22.636625 L42.4043125,19.5449375 C42.4043125,19.5449375 46.5623125,17.560125 43.9030625,16.421625 C42.9446875,16.0125625 48.965125,13.27425 48.965125,13.27425 L47.73175,10.0725625" fill="#FFFFFE"></path>
						<path d="M25.0724375,16.619625 C25.0724375,16.619625 27.891875,16.5845625 28.314,17.4714375 C28.7340625,18.357625 28.890125,19.5930625 28.890125,19.5930625 L27.773625,20.6745 C27.773625,20.6745 24.376,21.093875 25.0724375,16.619625" fill="#FFFFFE"></path>
						<polyline fill="#FFFFFE" points="20.7205625 21.894125 24.6785 25.641 26.1353125 28.76775 25.304125 32.720875 23.013375 44.5905625 22.1780625 55 25.927 45.0113125 26.96925 33.5561875 27.592125 29.805875 29.4724375 25.641 35.5073125 22.312125 27.592125 24.8105 21.9725 21.6865 20.7205625 21.894125"></polyline>
						<path d="M31.2448125,24.43925 C31.2654375,24.5141875 27.0153125,25.1508125 21.462375,28.2019375 C20.25925,29.0874375 18.4353125,30.0636875 18.3143125,31.975625 C18.11425,34.0566875 20.9605,34.208625 22.6325,34.315875 C24.5774375,34.37775 26.60625,34.1735625 28.6061875,33.746625 C30.072625,33.6606875 33.8765625,31.8615 32.3998125,31.9364375 C28.8729375,30.639125 24.231625,33.0391875 22.3843125,35.93425 C19.9945625,39.4343125 26.213,40.21325 28.16825,38.9901875 C29.819625,37.6770625 25.009875,39.6598125 23.9930625,40.8120625 C22.19525,42.0660625 21.731875,43.080125 21.39775,43.5435 C21.1976875,43.5799375 22.0268125,40.687625 26.0761875,38.385875 C26.8021875,37.995375 28.7010625,36.6939375 29.453875,38.333625 C29.6800625,40.2538125 27.3741875,40.566625 26.059,40.7385 C24.5320625,40.781125 22.7294375,40.668375 21.3090625,39.34975 C19.7511875,37.7320625 20.8470625,35.299 22.07425,34.09725 C24.580875,31.444875 28.554625,29.3315 32.8370625,30.70925 L33.5995,31.12175 C33.8064375,31.5266875 33.6661875,30.5050625 34.15775,32.088375 L33.8834375,32.6830625 C33.427625,33.292875 32.9113125,33.5575625 32.4314375,33.801625 C31.461375,34.254 30.4830625,34.544125 29.502,34.7606875 C27.533,35.1924375 25.537875,35.402125 23.5186875,35.3794375 C21.605375,35.129875 19.215625,35.6159375 17.5291875,33.0240625 C17.0919375,29.975 19.5195,28.807625 20.986625,27.7605625 C24.4275625,25.944875 27.9131875,25.036 31.2448125,24.43925" fill="#FFFFFE"></path>
					</g>
					<path d="M49.6656875,6.4824375 L49.8788125,6.4824375 C50.1276875,6.4824375 50.3408125,6.3903125 50.3408125,6.1579375 C50.3408125,5.9943125 50.216375,5.8306875 49.8788125,5.8306875 C49.7805,5.8306875 49.7138125,5.8361875 49.6656875,5.8444375 L49.6656875,6.4824375 Z M49.6656875,7.5329375 L49.361125,7.5329375 L49.361125,5.6395625 C49.5165,5.616875 49.6698125,5.5941875 49.8966875,5.5941875 C50.1813125,5.5941875 50.369,5.65675 50.4810625,5.737875 C50.5965625,5.819 50.659125,5.9461875 50.659125,6.133875 C50.659125,6.38 50.4879375,6.5291875 50.2865,6.5896875 L50.2865,6.6020625 C50.450125,6.6350625 50.5635625,6.78425 50.6020625,7.066125 C50.6495,7.3583125 50.6941875,7.470375 50.7230625,7.5329375 L50.406125,7.5329375 C50.3635,7.470375 50.3174375,7.291625 50.2803125,7.046875 C50.232875,6.810375 50.1139375,6.7161875 49.8719375,6.7161875 L49.6656875,6.7161875 L49.6656875,7.5329375 Z M49.97575,5.1143125 C49.2325625,5.1143125 48.6248125,5.7536875 48.6248125,6.5484375 C48.6248125,7.35075 49.2325625,7.9839375 49.9846875,7.9839375 C50.7409375,7.9866875 51.3404375,7.35075 51.3404375,6.5525625 C51.3404375,5.7536875 50.7409375,5.1143125 49.9846875,5.1143125 L49.97575,5.1143125 Z M49.9846875,4.852375 C50.9128125,4.852375 51.64775,5.599 51.64775,6.5484375 C51.64775,7.502 50.9128125,8.2479375 49.97575,8.2479375 C49.05175,8.2479375 48.301,7.502 48.301,6.5484375 C48.301,5.599 49.05175,4.852375 49.97575,4.852375 L49.9846875,4.852375 L49.9846875,4.852375 Z" fill="#FFA300"></path>
					<path d="M287.912625,6.4824375 L288.12575,6.4824375 C288.37325,6.4824375 288.586375,6.3903125 288.586375,6.1579375 C288.586375,5.9943125 288.463313,5.8306875 288.12575,5.8306875 C288.027438,5.8306875 287.960063,5.8361875 287.912625,5.8444375 L287.912625,6.4824375 Z M287.912625,7.5329375 L287.608063,7.5329375 L287.608063,5.6395625 C287.763438,5.616875 287.917438,5.5941875 288.142938,5.5941875 C288.42825,5.5941875 288.614563,5.65675 288.728,5.737875 C288.8435,5.8196875 288.905375,5.9461875 288.905375,6.133875 C288.905375,6.38 288.7335,6.529875 288.533438,6.5896875 L288.533438,6.6020625 C288.697063,6.6350625 288.809813,6.7849375 288.849,7.066125 C288.896438,7.3583125 288.93975,7.470375 288.97,7.5329375 L288.652375,7.5329375 C288.610438,7.470375 288.564375,7.291625 288.526563,7.046875 C288.479813,6.810375 288.360188,6.7161875 288.118188,6.7161875 L287.912625,6.7161875 L287.912625,7.5329375 Z M288.222688,5.1143125 C287.480188,5.1143125 286.87175,5.7536875 286.87175,6.5484375 C286.87175,7.3514375 287.480188,7.9839375 288.231625,7.9839375 C288.9865,7.9866875 289.586688,7.3514375 289.586688,6.5525625 C289.586688,5.7536875 288.9865,5.1143125 288.231625,5.1143125 L288.222688,5.1143125 Z M288.231625,4.852375 C289.15975,4.852375 289.894,5.599 289.894,6.5484375 C289.894,7.502 289.15975,8.2479375 288.222688,8.2479375 C287.298,8.2479375 286.546563,7.502 286.546563,6.5484375 C286.546563,5.599 287.298,4.852375 288.222688,4.852375 L288.231625,4.852375 L288.231625,4.852375 Z" fill="#FE5000"></path>
				</g>
			</g>
		</g>
	</g>
</svg>