<?xml version="1.0" encoding="UTF-8" standalone="no"?>
<svg
   version="1.1"
   id="Layer_1"
   x="0px"
   y="0px"
   viewBox="0 0 136 46.99"
   style="enable-background:new 0 0 136 46.99;"
   xml:space="preserve"
   sodipodi:docname="disabled-american-veterans.svg"
   inkscape:version="1.2 (dc2aeda, 2022-05-15)"
   xmlns:inkscape="http://www.inkscape.org/namespaces/inkscape"
   xmlns:sodipodi="http://sodipodi.sourceforge.net/DTD/sodipodi-0.dtd"
   xmlns="http://www.w3.org/2000/svg"
   xmlns:svg="http://www.w3.org/2000/svg"><defs
   id="defs868" /><sodipodi:namedview
   id="namedview866"
   pagecolor="#ffffff"
   bordercolor="#000000"
   borderopacity="0.25"
   inkscape:showpageshadow="2"
   inkscape:pageopacity="0.0"
   inkscape:pagecheckerboard="0"
   inkscape:deskcolor="#d1d1d1"
   showgrid="false"
   inkscape:zoom="5.022345"
   inkscape:cx="48.781993"
   inkscape:cy="23.495001"
   inkscape:window-width="2560"
   inkscape:window-height="1412"
   inkscape:window-x="0"
   inkscape:window-y="28"
   inkscape:window-maximized="0"
   inkscape:current-layer="Layer_1" />
	<title
   id="title849">Disabled American Veterans</title>
	<style
   type="text/css"
   id="style851">
		.st{fill:#FFFFFF;}
	    .st1{fill:#B4BD00;}
	</style>
	<path
   class="st"
   d="M0,46.99h17.62V0H0V46.99z M20.56,0v14.36h3.91v20.88h-3.91v11.75h14.68l8.81-8.81V8.81L35.24,0H20.56z"
   id="path853"
   style="fill:#000000" />
	<path
   class="st"
   d="M55.8,0l-8.81,8.81v38.18h16.8V0H55.8z M66.73,0v14.36h3.92v11.09h-3.92v9.79h3.92v11.75H88.1V25.87L78.68,0         H66.73z"
   id="path855"
   style="fill:#000000" />
	<path
   class="st1"
   d="M99.23,0H81.76l17.1,46.99h17.47L99.23,0z M129.68,12.13V0h-13.21l-7.06,19.4l8.81,24.2L129.68,12.13z"
   id="path857" />
	<g
   id="g863">
		<path
   class="st"
   d="M134.66,2.13V1.84c0-0.35-0.19-0.55-0.65-0.55h-0.81v2.07h0.35V2.67h0.42l0.51,0.69h0.42l-0.55-0.75          C134.6,2.49,134.66,2.33,134.66,2.13z M134.3,2.11c0,0.15-0.07,0.24-0.3,0.24h-0.45V1.62H134c0.21,0,0.3,0.05,0.3,0.25V2.11z"
   id="path859" />
		<path
   class="st"
   d="M133.91,0.22c-1.22,0-2.1,0.88-2.1,2.1c0,1.22,0.88,2.1,2.1,2.1c1.23,0,2.09-0.86,2.09-2.1          C136,1.09,135.14,0.22,133.91,0.22z M133.91,4.05c-1.03,0-1.7-0.68-1.7-1.73c0-1.05,0.67-1.72,1.7-1.72c1.17,0,1.69,0.87,1.69,1.72          C135.6,3.18,135.08,4.05,133.91,4.05z"
   id="path861" />
	</g>
</svg>
