<?xml version="1.0" encoding="UTF-8" standalone="no"?>
<svg
   id="b"
   viewBox="0 0 318.88 92.2"
   version="1.1"
   sodipodi:docname="the-nature-conservancy.svg"
   inkscape:version="1.2 (dc2aeda, 2022-05-15)"
   xmlns:inkscape="http://www.inkscape.org/namespaces/inkscape"
   xmlns:sodipodi="http://sodipodi.sourceforge.net/DTD/sodipodi-0.dtd"
   xmlns="http://www.w3.org/2000/svg"
   xmlns:svg="http://www.w3.org/2000/svg">
  <defs
     id="defs609" />
  <sodipodi:namedview
     id="namedview607"
     pagecolor="#ffffff"
     bordercolor="#000000"
     borderopacity="0.25"
     inkscape:showpageshadow="2"
     inkscape:pageopacity="0.0"
     inkscape:pagecheckerboard="0"
     inkscape:deskcolor="#d1d1d1"
     showgrid="false"
     inkscape:zoom="2.559653"
     inkscape:cx="121.50084"
     inkscape:cy="46.099998"
     inkscape:window-width="2560"
     inkscape:window-height="1440"
     inkscape:window-x="0"
     inkscape:window-y="0"
     inkscape:window-maximized="0"
     inkscape:current-layer="b" />
  <g
     id="g556">
    <path
       d="m 281.27,12.96 c -0.26,1.53 -0.37,5.28 1.83,4.8 2.93,-0.63 2.54,-0.93 4.15,-2.33 1.07,-0.94 3.69,1.62 0.04,5.69 -1.99,2.23 -2.43,2.91 -1.36,4.2 1.11,1.34 4,1.85 4,5.97 0,3.62 4.64,1 5.77,-0.42 1.1,-1.38 1.91,-7.67 5.04,-3.09 2.22,3.26 -1.57,10.23 2.99,10.92 3.75,0.56 4.4,4.84 4.51,5.92 0.01,0.15 0.02,0.25 0.02,0.25 9.58,-9.2 3.2,-21.11 2.96,-22.55 -0.41,-2.58 0.98,-1.64 2.69,-0.05 C 306.85,9.02 292.9,0 276.85,0 c -2.77,0 -5.48,0.28 -8.1,0.79 8.27,0.17 14.05,3.48 12.53,12.17 z"
       fill="#ffffff"
       id="path544" />
    <path
       d="m 303.29,63.57 c -2.58,1.03 -3.69,-0.62 -5.61,1.25 -2.1,2.05 4.62,6.08 -7.75,3.26 -5.53,-1.26 -4.77,4.75 -10.98,1.59 -1.72,-4.09 -1.77,-6.5 -0.3,-9.06 1.71,-3 2.33,-1.99 1.29,-5.29 -0.41,-1.29 -0.01,-1.86 0.67,-3.66 0.68,-1.79 -0.19,-4.28 -2.72,-4.14 -3.36,0.19 -2.97,1.71 -5.05,3.11 -1.39,0.93 -3.74,-3.8 1.18,-8.06 2.69,-2.32 3.32,-3.07 2.44,-4.86 -0.92,-1.86 -2.63,-1.19 -3.31,-3.33 -0.53,-1.64 0.29,-4.73 -2.07,-5.47 -2.68,-0.84 -4.82,2.99 -6.37,4.5 -1.8,1.75 -3.77,4.87 -4.74,2.38 -1.72,-4.43 6.19,-11.04 1.31,-12.79 -4.59,-1.65 -6.09,-6.47 -6.09,-6.47 -12.6,9.35 -6.63,17.57 -7.68,19.02 -1.05,1.46 -3.07,-1.77 -4.77,-0.23 -1.31,1.19 -2.48,8.83 5.59,13.68 3.06,1.84 4.06,2.31 3.33,3.42 -0.59,0.88 -3.03,0.14 -3,2.16 0.08,4.05 6.58,2.83 7.76,7.91 1.11,4.74 21.26,7.57 21.26,7.57 -0.02,-0.02 0.09,0 0.25,0.06 l 0.96,0.53 c 0.3,1.25 1.5,4.11 4.3,5.55 4.64,2.39 -0.28,1.24 0.35,2.92 0.32,0.86 3.61,3.08 9.46,1.73 8.09,-3.38 14.89,-9.21 19.48,-16.57 -5,-3.91 -5.38,-3.1 -9.18,-0.71 z"
       fill="#ffffff"
       id="path546" />
    <path
       d="m 277.92,70.12 c -0.16,-0.05 -0.28,-0.08 -0.25,-0.06 0,0 -20.15,-2.83 -21.26,-7.57 -1.18,-5.07 -7.68,-3.86 -7.76,-7.91 -0.04,-2.02 2.41,-1.28 3,-2.16 0.73,-1.11 -0.27,-1.58 -3.33,-3.42 -8.07,-4.85 -6.9,-12.49 -5.59,-13.68 1.7,-1.54 3.72,1.68 4.77,0.23 1.05,-1.46 -4.92,-9.68 7.68,-19.02 0,0 1.49,4.82 6.09,6.47 4.87,1.75 -3.03,8.36 -1.31,12.79 0.97,2.49 2.94,-0.63 4.74,-2.38 1.55,-1.5 3.68,-5.33 6.37,-4.5 2.36,0.74 1.54,3.83 2.07,5.47 0.69,2.14 2.39,1.47 3.31,3.33 0.89,1.79 0.26,2.54 -2.44,4.86 -4.92,4.26 -2.57,8.99 -1.18,8.06 2.07,-1.39 1.68,-2.92 5.05,-3.11 2.53,-0.14 3.4,2.35 2.72,4.14 -0.68,1.79 -1.08,2.37 -0.67,3.66 1.04,3.3 0.43,2.29 -1.29,5.29 -1.47,2.56 -1.41,4.97 0.3,9.06 6.2,3.15 5.45,-2.85 10.98,-1.59 12.37,2.82 5.65,-1.21 7.75,-3.26 1.91,-1.87 3.03,-0.22 5.61,-1.25 3.82,-2.39 4.18,-3.21 9.21,0.73 4.04,-6.46 6.39,-14.09 6.39,-22.26 0,-7.11 -1.78,-13.81 -4.9,-19.69 -1.75,-1.63 -3.2,-2.65 -2.78,-0.02 0.24,1.45 6.62,13.35 -2.96,22.55 0,0 0,-0.1 -0.02,-0.25 -0.11,-1.09 -0.76,-5.36 -4.51,-5.92 -4.56,-0.68 -0.77,-7.66 -2.99,-10.92 -3.13,-4.58 -3.94,1.71 -5.04,3.09 -1.12,1.41 -5.77,4.03 -5.77,0.42 0,-4.12 -2.89,-4.63 -4,-5.97 -1.07,-1.29 -0.63,-1.97 1.36,-4.2 3.65,-4.07 1.02,-6.63 -0.04,-5.69 -1.6,1.4 -1.22,1.7 -4.15,2.33 -2.19,0.48 -2.09,-3.27 -1.83,-4.8 1.51,-8.7 -4.27,-12 -12.56,-12.17 -19.33,3.79 -33.91,20.81 -33.91,41.25 0,23.22 18.82,42.04 42.04,42.04 5.73,0 11.19,-1.15 16.17,-3.23 -5.86,1.36 -9.16,-0.87 -9.48,-1.72 -0.63,-1.68 4.29,-0.53 -0.35,-2.92 -2.8,-1.44 -4,-4.3 -4.3,-5.55 l -0.96,-0.53 z"
       fill="#49a942"
       id="path548" />
    <path
       d="m 280.29,71.4 c 0,0 -27.63,-10.73 -28.59,-37.92 0,0 2.67,20.67 28.59,37.92 z"
       fill="#49a942"
       id="path550" />
    <path
       d="m 280.08,0.06 c 0.79,0.09 6.74,0.88 13.02,4.89 2.34,2.19 5.64,7.56 0.54,18.56 0,0 6.54,-8.83 4.89,-14.19 5.49,5.5 10.1,14.23 10.27,28.06 0,0 6.1,-34.64 -28.73,-37.32 z"
       fill="#49a942"
       id="path552" />
    <path
       d="m 307.71,68.78 c -2.11,1.28 -5.53,4.29 -11.12,2.53 0,0 2.19,1.68 5.71,1.59 -4.49,2.32 -9.35,2.87 -17.05,0.94 0,0 15.59,9.19 26.48,-8.4 0,0 -2.7,2.54 -4.01,3.33 z"
       fill="#49a942"
       id="path554" />
  </g>
  <g
     id="g598"
     style="fill:#000000">
    <path
       d="m 13.4,31.65 c 0,3.03 0.58,3.87 2.73,3.87 v 0.75 H 7.2 v -0.75 c 1.8,0 2.86,-0.53 2.86,-4 V 12.31 H 6.41 c -3.38,0 -4.92,0.96 -5.14,3.6 H 0.52 v -5.76 h 0.75 c 0.35,0.31 0.75,0.52 1.37,0.7 0.57,0.14 1.36,0.22 2.42,0.22 h 13.19 c 2.2,0 3.21,-0.26 4,-0.92 h 0.79 v 5.76 h -0.48 c -0.49,-2.11 -1.32,-3.6 -5.32,-3.6 h -3.83 v 19.34 z"
       fill="#ffffff"
       id="path558"
       style="fill:#000000" />
    <path
       d="m 40.58,32.53 c 0,2.38 0.44,2.99 2.5,2.99 v 0.75 h -8.09 v -0.75 c 2.12,0 2.6,-0.49 2.6,-2.51 v -7.69 c 0,-2.07 -1.23,-3.39 -3.12,-3.39 -1.76,0 -3.04,0.83 -4.53,2.95 v 8.53 c 0,1.62 0.66,2.11 2.59,2.11 v 0.75 h -8.35 v -0.75 c 2.33,-0.05 2.77,-0.49 2.77,-2.99 V 12.26 c 0,-2.02 -0.58,-2.33 -2.77,-2.33 V 9.18 l 5.01,-0.53 h 0.75 v 14.73 c 1.98,-2.29 3.43,-3.12 5.45,-3.12 2.6,0 5.19,1.71 5.19,5.4 v 6.86 z"
       fill="#ffffff"
       id="path560"
       style="fill:#000000" />
    <path
       d="m 47.86,26.77 c -0.08,6.99 4.09,8.75 6.2,8.75 2.11,0 3.25,-0.75 5.5,-3.25 v 1.15 c -1.89,2.42 -3.7,3.33 -6.42,3.33 -4.88,0 -8.4,-3.38 -8.4,-8.09 0,-4.71 3.43,-8.39 7.83,-8.39 3.61,0 6.95,2.9 6.73,6.51 H 47.86 Z m 8.49,-0.75 c 0.13,-3.43 -2.2,-4.84 -4.18,-4.84 -2.59,0 -4.13,1.93 -4.31,4.84 z"
       fill="#ffffff"
       id="path562"
       style="fill:#000000" />
    <path
       d="M 99.73,45.72 H 98.54 L 70.39,11.01 h -0.14 v 28.02 c 0,4.04 1.6,5.51 5.23,5.51 v 1.19 H 63.35 v -1.19 c 3.34,0 4.94,-1.04 4.94,-6.83 V 14.36 C 68.29,9.9 67.1,7.39 62.37,6.97 V 5.79 h 10.24 l 24.96,31.08 h 0.14 V 13.52 c 0,-5.23 -1.39,-6.55 -4.88,-6.55 V 5.79 h 12.06 v 1.18 c -3.9,0 -5.16,1.6 -5.16,6.27 z"
       fill="#ffffff"
       id="path564"
       style="fill:#000000" />
    <path
       d="m 136.58,20.98 h 8.57 v 1.81 h -8.57 v 15.89 c 0,3.41 1.74,5.16 4.46,5.16 1.81,0 3.14,-0.7 4.6,-2.37 l 0.77,0.91 c -2.16,2.72 -4.67,4.11 -7.46,4.11 -4.18,0 -7.11,-2.93 -7.11,-7.18 V 22.79 h -4.67 v -1.18 c 3.34,-1.67 6.13,-4.67 8.22,-8.92 h 1.18 v 8.3 z"
       fill="#ffffff"
       id="path566"
       style="fill:#000000" />
    <path
       d="m 173.25,41.05 c 0,2.72 0.91,3.49 4.25,3.49 v 1.19 l -8.99,0.49 v -4.53 h -0.14 c -2.44,3.21 -5.3,4.81 -8.64,4.81 -4.88,0 -8.08,-3.69 -8.08,-8.29 V 25.59 c 0,-2.37 -0.84,-3.28 -4.39,-3.28 v -1.19 l 7.95,-0.77 h 1.19 v 17.63 c 0,3.49 2.23,5.58 5.58,5.58 2.37,0 4.53,-1.32 6.55,-4.04 V 26.21 c 0,-3.42 -0.56,-3.83 -4.81,-3.9 v -1.19 l 8.36,-0.77 h 1.19 v 20.7 z"
       fill="#ffffff"
       id="path568"
       style="fill:#000000" />
    <path
       d="m 188.57,41.05 c 0,2.72 0.83,3.49 4.11,3.49 v 1.19 h -13.03 v -1.19 c 3.77,0 4.18,-0.98 4.18,-4.74 V 26.35 c 0,-3.62 -0.91,-4.04 -5.09,-4.04 v -1.19 l 8.64,-0.77 h 1.19 v 5.37 c 4.6,-3.97 6.76,-5.37 8.43,-5.37 1.39,0 3.28,0.84 4.53,1.95 l -1.88,4.39 c -2.02,-1.11 -4.18,-2.16 -5.85,-2.16 -1.67,0 -3,0.84 -5.23,3 z"
       fill="#ffffff"
       id="path570"
       style="fill:#000000" />
    <path
       d="m 206.87,30.67 c -0.14,11.08 6.48,13.87 9.83,13.87 3.35,0 5.15,-1.19 8.71,-5.16 v 1.81 c -3,3.83 -5.86,5.29 -10.18,5.29 -7.74,0 -13.31,-5.36 -13.31,-12.82 0,-7.46 5.44,-13.31 12.41,-13.31 5.71,0 11.01,4.6 10.66,10.32 z m 13.45,-1.19 c 0.21,-5.44 -3.49,-7.67 -6.62,-7.67 -4.11,0 -6.55,3.07 -6.83,7.67 z"
       fill="#ffffff"
       id="path572"
       style="fill:#000000" />
    <path
       d="m 25.36,55.52 c -1.46,-5.63 -4.54,-8.09 -9.7,-8.09 -7.2,0 -11.07,5.79 -11.07,13.47 0,8.97 4.65,14.87 11.38,14.87 4.7,0 8.2,-2.19 10.44,-6.57 l 0.78,0.73 C 25.21,74.68 20.46,77.65 14.72,77.65 7.52,77.65 0,72.74 0,62.78 0,52.82 6.52,46.29 15.45,46.29 c 3.76,0 6.58,1.25 8.35,1.25 0.79,0 1.3,-0.32 1.62,-0.94 h 0.84 v 8.92 h -0.89 z"
       fill="#ffffff"
       id="path574"
       style="fill:#000000" />
    <path
       d="m 39.17,77.48 c -5.79,0 -10.12,-4.17 -10.12,-9.76 0,-5.59 4.33,-9.81 10.12,-9.81 5.79,0 10.12,4.18 10.12,9.81 0,5.63 -4.33,9.76 -10.12,9.76 z m 0,-18.52 c -3.91,0 -6.26,3.44 -6.26,8.76 0,4.75 1.98,8.72 6.26,8.72 4.28,0 6.26,-4.23 6.26,-8.72 0,-4.49 -1.98,-8.76 -6.26,-8.76 z"
       fill="#ffffff"
       id="path576"
       style="fill:#000000" />
    <path
       d="m 70.74,72.89 c 0,2.4 0.52,3.13 3.13,3.13 v 0.89 h -9.86 v -0.89 c 2.5,0 3.18,-0.57 3.18,-2.29 v -9.65 c 0,-2.97 -2.14,-4.22 -4.12,-4.22 -1.83,0 -3.44,1.15 -5.27,3.6 v 9.03 c 0,2.82 0.36,3.55 3.13,3.55 v 0.89 h -9.76 v -0.89 c 2.45,0 3.08,-0.21 3.08,-3.55 V 62.11 c 0,-2.24 -0.57,-2.71 -3.08,-2.71 v -0.89 l 5.74,-0.58 h 0.89 v 3.7 c 2.19,-2.5 4.33,-3.7 6.68,-3.7 3.08,0 6.26,2.19 6.26,6.63 v 8.35 z"
       fill="#ffffff"
       id="path578"
       style="fill:#000000" />
    <path
       d="m 86.01,63.6 c -0.36,-3.08 -2.4,-4.64 -4.59,-4.64 -1.83,0 -3.08,0.99 -3.08,2.5 0,4.7 9.7,3.44 9.7,10.33 0,3.08 -2.66,5.69 -5.84,5.69 -2.04,0 -3.81,-1.36 -4.7,-1.36 -0.68,0 -1.15,0.58 -1.2,1.25 h -0.89 v -6.31 h 0.89 c 0.79,3.86 3.66,5.38 5.95,5.38 1.83,0 3.24,-1.36 3.24,-3.19 0,-5.16 -9.81,-3.76 -9.81,-10.02 0,-2.87 2.56,-5.32 5.63,-5.32 1.93,0 2.51,0.89 3.76,0.89 0.47,0 0.83,-0.26 1.09,-0.89 h 0.89 v 5.69 z"
       fill="#ffffff"
       id="path580"
       style="fill:#000000" />
    <path
       d="m 93.71,65.64 c -0.1,8.3 4.85,10.38 7.36,10.38 2.51,0 3.86,-0.89 6.52,-3.86 v 1.35 c -2.25,2.87 -4.38,3.97 -7.62,3.97 -5.79,0 -9.97,-4.02 -9.97,-9.6 0,-5.58 4.07,-9.96 9.29,-9.96 4.28,0 8.25,3.45 7.99,7.72 z m 10.07,-0.89 c 0.15,-4.07 -2.61,-5.73 -4.96,-5.73 -3.08,0 -4.9,2.29 -5.12,5.73 h 10.07 z"
       fill="#ffffff"
       id="path582"
       style="fill:#000000" />
    <path
       d="m 116.48,73.41 c 0,2.03 0.62,2.61 3.08,2.61 v 0.89 h -9.76 v -0.89 c 2.82,0 3.13,-0.73 3.13,-3.55 V 62.4 c 0,-2.71 -0.68,-3.02 -3.81,-3.02 v -0.89 l 6.47,-0.58 h 0.89 v 4.02 c 3.44,-2.97 5.06,-4.02 6.31,-4.02 1.04,0 2.45,0.63 3.39,1.46 l -1.41,3.28 c -1.51,-0.83 -3.13,-1.61 -4.38,-1.61 -1.25,0 -2.24,0.62 -3.91,2.24 z"
       fill="#ffffff"
       id="path584"
       style="fill:#000000" />
    <path
       d="m 138.49,72.42 3.6,-9.34 c 0.89,-2.4 0.89,-3.49 -1.83,-3.7 v -0.89 h 6.78 v 0.89 c -2.14,0.21 -2.66,0.68 -3.55,2.66 l -5.95,15.29 h -0.88 l -5.9,-14.51 c -1.25,-3.02 -1.72,-3.34 -3.91,-3.44 v -0.89 h 8.92 v 0.89 c -1.78,0.16 -2.24,1.15 -1.41,3.18 l 4.12,9.86 z"
       fill="#ffffff"
       id="path586"
       style="fill:#000000" />
    <path
       d="m 183.88,72.89 c 0,2.4 0.52,3.13 3.13,3.13 v 0.89 h -9.86 v -0.89 c 2.51,0 3.18,-0.57 3.18,-2.29 v -9.65 c 0,-2.97 -2.14,-4.22 -4.12,-4.22 -1.83,0 -3.44,1.15 -5.27,3.6 v 9.03 c 0,2.82 0.37,3.55 3.13,3.55 v 0.89 h -9.76 v -0.89 c 2.45,0 3.08,-0.21 3.08,-3.55 V 62.11 c 0,-2.24 -0.58,-2.71 -3.08,-2.71 v -0.89 l 5.74,-0.58 h 0.89 v 3.7 c 2.19,-2.5 4.33,-3.7 6.68,-3.7 3.08,0 6.26,2.19 6.26,6.63 v 8.35 z"
       fill="#ffffff"
       id="path588"
       style="fill:#000000" />
    <path
       d="m 204.42,64.44 h -0.89 c -0.79,-3.33 -3.13,-5.48 -6.21,-5.48 -3.65,0 -6.21,3.13 -6.21,7.67 0,5.06 3.18,9.29 6.94,9.29 2.25,0 4.96,-1.2 6.89,-3.86 v 1.36 c -1.98,2.71 -4.8,4.07 -8.14,4.07 -5.48,0 -9.29,-3.81 -9.29,-9.34 0,-5.53 4.28,-10.23 9.55,-10.23 2.77,0 4.28,1.04 5.22,1.04 0.47,0 0.94,-0.36 1.25,-1.04 h 0.89 z"
       fill="#ffffff"
       id="path590"
       style="fill:#000000" />
    <path
       d="m 217.68,72.63 3.24,-9.76 c 0.73,-2.19 0.57,-3.39 -1.46,-3.49 v -0.89 h 6.52 v 0.89 c -1.98,0 -3.18,1.25 -4.23,4.33 l -7.36,21.76 c -1.46,4.28 -3.86,6.73 -6.11,6.73 -0.78,0 -1.35,-0.21 -2.29,-0.78 l 1.2,-3.18 c 0.73,0.31 1.14,0.42 1.77,0.42 2.24,0 3.55,-1.3 4.7,-4.54 l 2.4,-6.68 -6.63,-15.29 c -0.94,-2.14 -1.62,-2.71 -3.76,-2.76 V 58.5 h 8.87 v 0.89 c -1.41,0.21 -1.98,1.25 -1.3,2.82 l 4.43,10.43 z"
       fill="#ffffff"
       id="path592"
       style="fill:#000000" />
    <path
       d="M 123.78,40.35 V 29.42 c 0,-6.69 -4.8,-9.06 -8.91,-9.06 -4.46,0 -8.08,3 -9.13,7.6 l 1.26,0.35 c 1.05,-3.56 3.76,-5.3 6.55,-5.3 3.48,0 5.51,2.51 5.51,5.99 v 1.81 c -4.04,2.37 -13.66,2.09 -13.66,9.13 0,3.62 3.21,6.55 7.04,6.55 2.58,0 4.47,-1.02 6.92,-3.67 h 0.01 c 0,0 0,2.96 0,2.96 h 8.66 v -1.2 c -3.53,0 -4.24,-0.99 -4.24,-4.23 z m -4.73,0.36 c -0.98,2.09 -3.62,3.14 -5.09,3.14 -2.02,0 -3.77,-2.02 -3.77,-4.53 0,-5.02 4.18,-4.94 8.85,-6.97 v 8.36 z"
       fill="#ffffff"
       id="path594"
       style="fill:#000000" />
    <path
       d="m 160.5,72.86 v -8.11 c 0,-4.96 -3.56,-6.72 -6.61,-6.72 -3.31,0 -5.99,2.22 -6.77,5.63 l 0.93,0.26 c 0.77,-2.64 2.79,-3.93 4.85,-3.93 2.58,0 4.08,1.86 4.08,4.45 v 1.34 c -3,1.76 -10.13,1.55 -10.13,6.77 0,2.69 2.38,4.85 5.22,4.85 1.91,0 3.32,-0.76 5.13,-2.72 v 0 c 0,0 0,2.19 0,2.19 h 6.42 v -0.89 c -2.61,0 -3.14,-0.73 -3.14,-3.14 z m -3.5,0.27 c -0.72,1.55 -2.69,2.33 -3.77,2.33 -1.5,0 -2.79,-1.5 -2.79,-3.36 0,-3.72 3.1,-3.67 6.56,-5.17 z"
       fill="#ffffff"
       id="path596"
       style="fill:#000000" />
  </g>
  <path
     d="m 314.73,8.43 c -2.41,0 -4.07,-1.67 -4.07,-4.18 0,-2.51 1.69,-4.19 4.09,-4.19 2.4,0 4.07,1.69 4.07,4.2 0,2.51 -1.71,4.18 -4.09,4.18 z m 0.02,-7.89 c -1.96,0 -3.51,1.33 -3.51,3.71 0,2.38 1.57,3.69 3.49,3.69 1.92,0 3.51,-1.33 3.51,-3.69 0,-2.36 -1.57,-3.71 -3.49,-3.71 z m 0.97,5.87 -1.17,-1.76 h -0.34 v 1.76 h -1.03 V 1.79 h 1.58 c 1.06,0 1.71,0.5 1.71,1.4 0,0.67 -0.36,1.08 -0.88,1.28 l 1.33,1.94 h -1.21 z m -1.03,-3.8 h -0.49 v 1.31 h 0.47 c 0.49,0 0.77,-0.22 0.77,-0.67 0,-0.41 -0.27,-0.65 -0.76,-0.65 z"
     fill="#ffffff"
     id="path601" />
</svg>
