<?xml version="1.0" encoding="UTF-8" standalone="no"?>
<!-- Created with Inkscape (http://www.inkscape.org/) -->

<svg
   width="64.764"
   height="150"
   viewBox="0 0 17.135475 39.6875"
   version="1.1"
   id="svg5870"
   xmlns="http://www.w3.org/2000/svg"
   xmlns:svg="http://www.w3.org/2000/svg">
  <defs
     id="defs5867" />
  <g
     id="layer1">
    <g
       id="g5865"
       transform="matrix(3.427117,0,0,3.6283475,142.11066,-14.40092)"
       style="fill:#ffffff;fill-opacity:1">
      <g
         style="fill:#ffffff;fill-opacity:1"
         id="g5852"
         transform="matrix(0,0.0151515,0.0151515,0,-41.466528,11.043545)">
        <path
           id="path5850"
           d="M 250.606,154.389 100.606,4.393 C 94.749,-1.465 85.251,-1.465 79.393,4.394 73.536,10.252 73.536,19.749 79.394,25.607 L 218.787,164.997 79.393,304.394 c -5.857,5.858 -5.857,15.355 0.001,21.213 2.928,2.929 6.767,4.393 10.606,4.393 3.839,0 7.678,-1.464 10.607,-4.394 L 250.606,175.602 c 2.814,-2.813 4.394,-6.628 4.394,-10.606 0,-3.978 -1.58,-7.794 -4.394,-10.607 z"
           style="fill:#ffffff;fill-opacity:1" />
      </g>
      <rect
         style="fill:#ffffff;fill-opacity:1;stroke:none;stroke-width:0.0721721"
         id="rect5854"
         width="0.53500003"
         height="6.2316618"
         x="38.699032"
         y="6.3222604"
         rx="0.16410881"
         ry="0.15500723"
         transform="scale(-1,1)" />
      <g
         style="fill:#ffffff;fill-opacity:1"
         id="g5858"
         transform="matrix(0,-0.0151515,0.0151515,0,-41.466528,7.832635)">
        <path
           id="path5856"
           d="M 250.606,154.389 100.606,4.393 C 94.749,-1.465 85.251,-1.465 79.393,4.394 73.536,10.252 73.536,19.749 79.394,25.607 L 218.787,164.997 79.393,304.394 c -5.857,5.858 -5.857,15.355 0.001,21.213 2.928,2.929 6.767,4.393 10.606,4.393 3.839,0 7.678,-1.464 10.607,-4.394 L 250.606,175.602 c 2.814,-2.813 4.394,-6.628 4.394,-10.606 0,-3.978 -1.58,-7.794 -4.394,-10.607 z"
           style="fill:#ffffff;fill-opacity:1" />
      </g>
    </g>
  </g>
</svg>
