<?xml version="1.0" encoding="UTF-8" standalone="no"?>
<!-- Created with Inkscape (http://www.inkscape.org/) -->

<svg
   width="274.388"
   height="223.817"
   viewBox="0 0 72.598492 59.218248"
   version="1.1"
   id="svg4184"
   inkscape:version="1.2 (dc2aeda, 2022-05-15)"
   sodipodi:docname="brain.svg"
   xmlns:inkscape="http://www.inkscape.org/namespaces/inkscape"
   xmlns:sodipodi="http://sodipodi.sourceforge.net/DTD/sodipodi-0.dtd"
   xmlns="http://www.w3.org/2000/svg"
   xmlns:svg="http://www.w3.org/2000/svg">
  <sodipodi:namedview
     id="namedview4186"
     pagecolor="#ffffff"
     bordercolor="#000000"
     borderopacity="0.25"
     inkscape:showpageshadow="2"
     inkscape:pageopacity="0.0"
     inkscape:pagecheckerboard="0"
     inkscape:deskcolor="#d1d1d1"
     inkscape:document-units="mm"
     showgrid="false"
     inkscape:zoom="0.2102413"
     inkscape:cx="397.16269"
     inkscape:cy="561.25984"
     inkscape:window-width="2560"
     inkscape:window-height="1412"
     inkscape:window-x="0"
     inkscape:window-y="28"
     inkscape:window-maximized="0"
     inkscape:current-layer="layer1" />
  <defs
     id="defs4181" />
  <g
     inkscape:label="Layer 1"
     inkscape:groupmode="layer"
     id="layer1">
    <g
       id="g4163"
       transform="translate(812.17073,56.749392)">
      <path
         id="path3984"
         style="fill:#3a21a8;fill-opacity:1;stroke:#ffffff;stroke-width:3.198;stroke-dasharray:none;stroke-opacity:1"
         d="m -775.6033,-55.148572 c -2.76687,-0.02982 -6.1616,0.300141 -9.941,1.431954 -1.66638,0.499033 -7.25181,1.662709 -11.33678,4.157886 -12.87505,7.864807 -13.84898,20.12905 -13.66893,22.123197 0.99823,11.144465 8.83362,13.140801 13.83482,14.304554 1.16627,3.1598929 5.45939,8.9825951 13.16922,6.8207719 0.51839,-0.090713 1.01751,-0.1856666 1.50378,-0.2826701 0.25803,0.5365965 0.65383,1.0215617 1.1529,1.4304036 0,0 2.01252,2.0141311 5.63739,1.0479981 0.0853,-0.022759 0.17439,-0.054848 0.26561,-0.092501 1.44513,2.8227077 5.54661,4.73242623 10.36319,5.04878748 6.13229,0.40375452 10.62437,-3.66372418 12.11193,-7.66103108 0.25042,-0.5876514 0.30695,-0.9839193 0.30695,-0.9839193 0,-0.00139 10e-6,-0.00274 0,-0.00413 0,0 4.36869,-0.8842288 7.08536,-4.4493406 3.16675,-4.157967 2.75074,-8.607744 2.75074,-8.607744 3.20876,-5.98843 -0.99994,-11.603426 -0.99994,-11.603426 -0.4181,-6.321782 -4.33514,-8.940539 -4.33514,-8.940539 -2.54261,-6.030349 -8.16798,-7.651213 -8.16798,-7.651213 -4.41705,-5.156037 -12.25299,-4.990393 -12.25299,-4.990393 0,0 -2.86769,-1.048932 -7.47913,-1.098641 z" />
      <path
         fill="#ea596e"
         d="m -751.91226,-9.7196253 c 0.006,0.5649107 -0.14005,1.3034833 -0.2921,1.9123085 -1.06222,4.2817292 -5.77937,9.0864507 -12.41896,8.64929459 -6.01742,-0.39523445 -10.91859,-3.27766949 -10.91859,-7.31986319 0,-4.0421936 4.88916,-7.3198626 10.91859,-7.3198626 6.02944,0 12.67302,0.03593 12.71106,4.0781227 z"
         id="path3950"
         style="fill:#3a21a8;fill-opacity:1;stroke-width:1.99831" />
      <path
         fill="#dd2e44"
         d="m -764.62332,-13.119061 c -3.23876,0 -10.63055,0.894275 -12.32694,0.894275 -2.99672,0 -5.42729,1.876376 -5.42729,4.1919042 0,1.1138478 0.57215,2.1199071 1.48834,2.8704574 0,0 2.01248,2.0141082 5.63735,1.0479742 1.5864,-0.4231822 4.167,-3.5651155 8.71007,-4.0641491 2.26256,-0.2495203 6.50156,1.4971079 13.95136,1.5390262 0.32006,-0.686673 0.38607,-1.1637512 0.38607,-1.1637512 0,-4.0461857 -6.38952,-5.3157367 -12.41896,-5.3157367 z"
         id="path3952"
         style="fill:#6b21a8;fill-opacity:1;stroke-width:1.99831" />
      <path
         fill="#f4abba"
         d="m -752.20436,-7.8073168 c 0,0 4.36904,-0.8842936 7.08571,-4.4494092 3.16675,-4.157971 2.75065,-8.607376 2.75065,-8.607376 3.20877,-5.988436 -1.00024,-11.603592 -1.00024,-11.603592 -0.4181,-6.321789 -4.33503,-8.940733 -4.33503,-8.940733 -2.54261,-6.030355 -8.16794,-7.651225 -8.16794,-7.651225 -4.41706,-5.156042 -12.25296,-4.990361 -12.25296,-4.990361 0,0 -7.34174,-2.684815 -17.42015,0.333357 -1.66638,0.499033 -7.25171,1.662788 -11.33668,4.157967 -12.87507,7.864815 -13.84931,20.129129 -13.66926,22.123278 0.99823,11.144476 8.8341,13.140622 13.8353,14.304376 1.16627,3.1598965 5.4593,8.9826516 13.16914,6.8208262 9.50225,-1.6627882 13.50322,-4.4913272 15.83776,-4.4913272 2.33455,0 8.8361,2.4951821 15.5037,2.9942192 z"
         id="path3954"
         style="fill:#9021a8;fill-opacity:1;stroke-width:1.99831" />
      <g
         fill="#ea596e"
         id="g3960"
         transform="matrix(1.9353241,0,0,1.9311332,-810.57676,-61.920773)"
         style="fill:#00c7a4;fill-opacity:1">
        <path
           d="m 17.737,18.648 c 2.328,-1.255 3.59,-1.138 4.704,-1.037 0.354,0.032 0.689,0.057 1.028,0.055 1.984,-0.045 3.591,-0.881 4.302,-1.69 a 0.501,0.501 0 0 0 -0.752,-0.661 c -0.548,0.624 -1.899,1.313 -3.573,1.351 -0.3,0.009 -0.601,-0.021 -0.913,-0.05 -1.195,-0.111 -2.679,-0.247 -5.271,1.152 -0.665,0.359 -1.577,0.492 -2.565,0.592 -2.197,-3.171 -0.875,-5.933 -0.497,-6.591 0.037,0.002 0.073,0.014 0.111,0.014 0.4,0 0.802,-0.098 1.166,-0.304 a 0.5,0.5 0 0 0 -0.492,-0.87 1.426,1.426 0 0 1 -1.88,-0.467 0.5,0.5 0 0 0 -0.841,0.539 c 0.237,0.371 0.571,0.65 0.948,0.837 -0.521,1.058 -1.51,3.84 0.372,6.951 -1.324,0.13 -2.65,0.317 -3.688,0.986 A 7.182,7.182 0 0 0 8.018,21.246 C 7.389,21.138 5.086,20.571 4.684,18.015 c 0.25,-0.194 0.452,-0.45 0.577,-0.766 a 0.50008099,0.50008099 0 1 0 -0.93,-0.368 0.772,0.772 0 0 1 -0.454,0.461 0.777,0.777 0 0 1 -0.643,-0.07 0.500018,0.500018 0 0 0 -0.486,0.874 c 0.284,0.158 0.588,0.238 0.89,0.238 0.037,0 0.072,-0.017 0.109,-0.019 0.476,2.413 2.383,3.473 3.732,3.794 a 3.69,3.69 0 0 0 -0.331,1.192 0.5,0.5 0 0 0 0.454,0.542 l 0.045,0.002 a 0.5,0.5 0 0 0 0.498,-0.456 c 0.108,-1.213 1.265,-2.48 2.293,-3.145 0.964,-0.621 2.375,-0.752 3.741,-0.879 1.325,-0.121 2.577,-0.237 3.558,-0.767 z m 12.866,-1.504 a 0.5003209,0.5003209 0 0 0 0.878,0.48 C 31.5,17.59 33.323,14.175 29.91,11.88 a 0.500066,0.500066 0 0 0 -0.558,0.83 c 2.644,1.778 1.309,4.326 1.251,4.434 z M 9.876,9.07 A 0.497,0.497 0 0 0 10.282,8.862 C 11.732,6.845 13.74,7.535 13.825,7.567 A 0.5,0.5 0 0 0 14.17,6.629 C 13.21,6.273 10.993,6.161 9.47,8.279 A 0.5,0.5 0 0 0 9.876,9.07 Z M 22.948,7.182 c 2.225,-0.181 3.237,1.432 3.283,1.508 A 0.50045429,0.50045429 0 0 0 27.094,8.183 C 27.04,8.092 25.754,5.965 22.87,6.185 a 0.50002325,0.50002325 0 0 0 0.078,0.997 z m 9.15,14.611 c -0.246,-0.014 -0.517,0.181 -0.539,0.457 -0.002,0.018 -0.161,1.719 -1.91,2.294 a 0.499,0.499 0 0 0 0.157,0.975 0.499,0.499 0 0 0 0.156,-0.025 c 2.372,-0.778 2.586,-3.064 2.594,-3.161 a 0.502,0.502 0 0 0 -0.458,-0.54 z"
           id="path3956"
           style="fill:#00c7a4;fill-opacity:1" />
        <path
           d="m 7.347,16.934 a 0.5,0.5 0 1 0 0.965,0.26 1.423,1.423 0 0 1 1.652,-1.014 0.50011649,0.50011649 0 0 0 0.205,-0.979 2.354,2.354 0 0 0 -1.248,0.086 C 7.755,13.293 7.982,11.327 7.985,11.306 A 0.502,0.502 0 0 0 7.556,10.744 0.503,0.503 0 0 0 6.994,11.171 c -0.013,0.097 -0.28,2.316 1.063,4.614 a 2.376,2.376 0 0 0 -0.71,1.149 z m 11.179,-2.47 a 1.069,1.069 0 0 1 1.455,0.015 0.502,0.502 0 0 0 0.707,-0.011 0.5,0.5 0 0 0 -0.01,-0.707 2.004,2.004 0 0 0 -0.797,-0.465 c 0.296,-1.016 0.179,-1.467 -0.096,-2.312 a 20.6,20.6 0 0 1 -0.157,-0.498 l -0.03,-0.1 C 19.234,9.178 18.993,8.381 19.685,7.256 A 0.50011999,0.50011999 0 0 0 18.833,6.732 c -0.928,1.508 -0.587,2.637 -0.192,3.944 l 0.03,0.1 c 0.059,0.194 0.113,0.364 0.163,0.517 0.247,0.761 0.322,1.016 0.02,1.936 a 2.022,2.022 0 0 0 -1.01,0.504 0.5,0.5 0 0 0 0.682,0.731 z m 6.365,-2.985 A 2,2 0 0 0 25.75,11.288 0.50012523,0.50012523 0 0 0 25.324,10.383 1.072,1.072 0 0 1 23.94,9.926 0.5,0.5 0 1 0 23.059,10.398 c 0.18,0.336 0.448,0.601 0.76,0.785 -0.537,1.305 -0.232,2.691 0.017,3.426 a 0.5,0.5 0 1 0 0.947,-0.319 c -0.168,-0.498 -0.494,-1.756 -0.002,-2.826 0.038,0.002 0.073,0.015 0.11,0.015 z m 4.797,9.429 a 0.497,0.497 0 0 0 -0.531,-0.467 1.825,1.825 0 0 1 -1.947,-1.703 0.509,0.509 0 0 0 -0.533,-0.465 0.502,0.502 0 0 0 -0.465,0.533 c 0.041,0.59 0.266,1.122 0.608,1.555 -0.804,0.946 -1.857,1.215 -2.444,1.284 -0.519,0.062 -0.973,0.009 -1.498,-0.053 -0.481,-0.055 -1.025,-0.118 -1.698,-0.098 l -0.005,0.001 c -0.02,-0.286 -0.088,-0.703 -0.305,-1.05 a 0.501,0.501 0 0 0 -0.847,0.531 c 0.134,0.215 0.159,0.558 0.159,0.725 -0.504,0.181 -0.94,0.447 -1.334,0.704 -0.704,0.458 -1.259,0.82 -2.094,0.632 -0.756,-0.173 -1.513,-0.208 -2.155,-0.118 -0.1,-0.251 -0.258,-0.551 -0.502,-0.782 a 0.50012448,0.50012448 0 0 0 -0.687,0.727 c 0.086,0.081 0.154,0.199 0.209,0.317 -1.103,0.454 -1.656,1.213 -1.682,1.25 a 0.499,0.499 0 0 0 0.407,0.788 0.502,0.502 0 0 0 0.406,-0.205 c 0.005,-0.008 0.554,-0.743 1.637,-1.04 0.56,-0.154 1.363,-0.141 2.146,0.037 0.219,0.05 0.422,0.067 0.619,0.07 0.093,0.218 0.129,0.477 0.134,0.573 a 0.501,0.501 0 0 0 0.499,0.472 l 0.027,-0.001 a 0.5,0.5 0 0 0 0.473,-0.523 3.023,3.023 0 0 0 -0.13,-0.686 c 0.461,-0.167 0.862,-0.428 1.239,-0.673 0.572,-0.373 1.113,-0.726 1.82,-0.749 0.592,-0.021 1.08,0.036 1.551,0.091 0.474,0.055 0.94,0.091 1.454,0.061 0.091,0.253 0.084,0.591 0.07,0.704 a 0.503,0.503 0 0 0 0.497,0.563 0.5,0.5 0 0 0 0.495,-0.435 2.883,2.883 0 0 0 -0.059,-0.981 4.67,4.67 0 0 0 2.345,-1.471 2.807,2.807 0 0 0 1.656,0.413 0.499,0.499 0 0 0 0.465,-0.531 z"
           id="path3958"
           style="fill:#00c7a4;fill-opacity:1" />
      </g>
    </g>
  </g>
</svg>
