<?xml version="1.0" encoding="UTF-8" standalone="no"?>
<!-- Created with Inkscape (http://www.inkscape.org/) -->

<svg
   width="632.14203"
   height="905.30603"
   viewBox="0 0 167.25424 239.52889"
   version="1.1"
   id="svg39220"
   inkscape:version="1.2 (dc2aeda, 2022-05-15)"
   sodipodi:docname="charity_layout.svg"
   xmlns:inkscape="http://www.inkscape.org/namespaces/inkscape"
   xmlns:sodipodi="http://sodipodi.sourceforge.net/DTD/sodipodi-0.dtd"
   xmlns:xlink="http://www.w3.org/1999/xlink"
   xmlns="http://www.w3.org/2000/svg"
   xmlns:svg="http://www.w3.org/2000/svg">
  <sodipodi:namedview
     id="namedview39222"
     pagecolor="#ffffff"
     bordercolor="#000000"
     borderopacity="0.25"
     inkscape:showpageshadow="2"
     inkscape:pageopacity="0.0"
     inkscape:pagecheckerboard="0"
     inkscape:deskcolor="#d1d1d1"
     inkscape:document-units="mm"
     showgrid="false"
     inkscape:zoom="0.2102413"
     inkscape:cx="-66.590151"
     inkscape:cy="561.25984"
     inkscape:window-width="1440"
     inkscape:window-height="900"
     inkscape:window-x="556"
     inkscape:window-y="1440"
     inkscape:window-maximized="0"
     inkscape:current-layer="layer1" />
  <defs
     id="defs39217">
    <filter
       inkscape:collect="always"
       style="color-interpolation-filters:sRGB"
       id="filter21298-7"
       x="-0.048088422"
       y="-0.032631428"
       width="1.0961768"
       height="1.0652629">
      <feGaussianBlur
         inkscape:collect="always"
         stdDeviation="2.2913158"
         id="feGaussianBlur21300-7" />
    </filter>
    <filter
       inkscape:collect="always"
       style="color-interpolation-filters:sRGB"
       id="filter15500"
       x="-0.12414329"
       y="-0.24276978"
       width="1.2482866"
       height="1.4855396">
      <feGaussianBlur
         inkscape:collect="always"
         stdDeviation="3.3320087"
         id="feGaussianBlur15502" />
    </filter>
    <linearGradient
       inkscape:collect="always"
       xlink:href="#linearGradient17022"
       id="linearGradient38990"
       gradientUnits="userSpaceOnUse"
       gradientTransform="matrix(0.26458333,0,0,0.26458333,-270.9089,1015.8867)"
       x1="-3541.7847"
       y1="-203.82532"
       x2="-3541.7622"
       y2="-249.02507" />
    <linearGradient
       inkscape:collect="always"
       id="linearGradient17022">
      <stop
         style="stop-color:#00c7a4;stop-opacity:1"
         offset="0.07238606"
         id="stop17018" />
      <stop
         style="stop-color:#00ffa4;stop-opacity:1"
         offset="1"
         id="stop17020" />
    </linearGradient>
    <linearGradient
       inkscape:collect="always"
       xlink:href="#linearGradient17022"
       id="linearGradient38992"
       gradientUnits="userSpaceOnUse"
       gradientTransform="matrix(0.26458333,0,0,0.26458333,1021.6384,192.63642)"
       x1="-3541.7847"
       y1="-203.82532"
       x2="-3541.7622"
       y2="-249.02507" />
    <linearGradient
       inkscape:collect="always"
       xlink:href="#linearGradient17022"
       id="linearGradient38994"
       gradientUnits="userSpaceOnUse"
       gradientTransform="matrix(0.26458333,0,0,0.26458333,-343.07881,1015.8867)"
       x1="-3541.7847"
       y1="-203.82532"
       x2="-3541.7622"
       y2="-249.02507" />
  </defs>
  <g
     inkscape:label="Layer 1"
     inkscape:groupmode="layer"
     id="layer1">
    <g
       id="g40319"
       transform="translate(300.08471,180.17115)">
      <g
         id="g38748"
         transform="translate(-300.08472,-180.17115)">
        <rect
           style="mix-blend-mode:normal;fill:#000000;fill-opacity:1;stroke:none;stroke-width:0.75571;stroke-dasharray:none;stroke-dashoffset:210.392;stroke-opacity:1;filter:url(#filter21298-7)"
           id="rect34357"
           width="114.35513"
           height="168.52336"
           x="1127.5741"
           y="274.05212"
           transform="matrix(1.3342608,0,0,1.3342608,-1497.1406,-358.3197)" />
        <rect
           style="fill:#ffffff;fill-opacity:1;stroke:none;stroke-width:1.00831;stroke-dasharray:none;stroke-dashoffset:210.392;stroke-opacity:1"
           id="rect34359"
           width="152.57956"
           height="224.85411"
           x="7.3374"
           y="7.3372531" />
        <rect
           style="fill:#0f172a;fill-opacity:1;stroke:none;stroke-width:0.330048;stroke-dasharray:none;stroke-dashoffset:210.392;stroke-opacity:1"
           id="rect34361"
           width="152.57956"
           height="24.091511"
           x="7.3374"
           y="6.5342135" />
        <g
           id="g34367"
           transform="matrix(0.54254587,0,0,0.54254587,81.0449,-352.54272)">
          <path
             style="fill:#ff0000;fill-opacity:1;stroke:none;stroke-width:0.729237;stroke-opacity:1"
             d="m -114.50173,694.85965 c -3.18012,-2.42187 -5.01393,-4.16816 -6.54392,-6.23175 -3.29,-4.43719 -4.41854,-8.37634 -3.27527,-11.43178 0.65462,-1.75008 2.24154,-2.93072 4.38761,-3.26478 2.35952,-0.36729 5.32915,0.60315 6.65031,2.17323 l 0.39168,0.46532 0.76798,-0.74019 c 2.09195,-2.01626 5.66838,-2.56097 8.3299,-1.26871 1.66783,0.80996 2.62214,2.32632 2.82402,4.48768 0.35428,3.79462 -2.72093,9.45969 -7.29469,13.43857 -1.35657,1.18004 -4.43013,3.57012 -4.58931,3.56872 -0.043,-6.1e-4 -0.78485,-0.53872 -1.64831,-1.19631 z"
             id="path34363" />
          <path
             style="opacity:0.99;fill:#000000;fill-opacity:0.198653;stroke:none;stroke-width:6.36737;stroke-dashoffset:210.392;stroke-opacity:0.984314"
             d="m -427.93783,2629.7352 c -3.20242,-2.2756 -9.12371,-6.8522 -12.49173,-9.6548 -8.98119,-7.4736 -14.53894,-13.5027 -20.04422,-21.7439 -6.10529,-9.1395 -9.50564,-17.1244 -10.69915,-25.1246 -0.27361,-1.834 -0.27483,-6.7148 -0.002,-8.4147 0.78052,-4.8649 2.42474,-8.4645 5.1657,-11.3091 1.80238,-1.8705 3.44441,-3.0458 5.88945,-4.2157 2.24467,-1.0739 4.81128,-1.8087 7.58731,-2.1721 1.82164,-0.2384 5.84102,-0.1607 7.74648,0.1498 3.79174,0.6179 7.19351,1.7116 10.18716,3.2753 2.77133,1.4476 4.75845,2.9946 6.65027,5.1774 l 1.19563,1.3795 0.008,8.8076 c 0.004,4.8442 0.0498,21.39 0.10146,36.7684 0.0516,15.3785 0.0805,27.9743 0.0641,27.9907 -0.0164,0.016 -0.62746,-0.3948 -1.35786,-0.9138 z"
             id="path34365"
             transform="scale(0.26458333)" />
        </g>
        <text
           xml:space="preserve"
           style="font-style:normal;font-variant:normal;font-weight:500;font-stretch:normal;font-size:11.4435px;font-family:'Roboto Slab';-inkscape-font-specification:'Roboto Slab Medium';word-spacing:-1.16366px;fill:#6b21a8;fill-opacity:1;stroke:none;stroke-width:19.4902;stroke-dasharray:58.4704, 58.4704;stroke-dashoffset:0;stroke-opacity:1"
           x="31.486692"
           y="24.698093"
           id="text34371"><tspan
             sodipodi:role="line"
             id="tspan34369"
             style="font-style:normal;font-variant:normal;font-weight:500;font-stretch:normal;font-size:11.4435px;font-family:'Roboto Slab';-inkscape-font-specification:'Roboto Slab Medium';fill:#6b21a8;fill-opacity:1;stroke-width:19.4902"
             x="31.486692"
             y="24.698093">Many Hands</tspan></text>
        <text
           xml:space="preserve"
           style="font-style:normal;font-variant:normal;font-weight:500;font-stretch:normal;font-size:11.4435px;font-family:'Roboto Slab';-inkscape-font-specification:'Roboto Slab Medium';word-spacing:-1.16366px;fill:#00c7a4;fill-opacity:1;stroke:none;stroke-width:19.4902;stroke-dasharray:58.4704, 58.4704;stroke-dashoffset:0;stroke-opacity:1"
           x="31.900145"
           y="25.066929"
           id="text34375"><tspan
             sodipodi:role="line"
             id="tspan34373"
             style="font-style:normal;font-variant:normal;font-weight:500;font-stretch:normal;font-size:11.4435px;font-family:'Roboto Slab';-inkscape-font-specification:'Roboto Slab Medium';fill:#00c7a4;fill-opacity:1;stroke-width:19.4902"
             x="31.900145"
             y="25.066929">Many Hands</tspan></text>
        <rect
           style="fill:#ffffff;fill-opacity:1;stroke:none;stroke-width:0.233381;stroke-dasharray:none;stroke-dashoffset:210.392;stroke-opacity:1"
           id="rect34377"
           width="152.57956"
           height="12.045755"
           x="7.3374"
           y="30.625767" />
        <rect
           style="fill:#ffffff;fill-opacity:1;stroke:none;stroke-width:0.0928391;stroke-dasharray:none;stroke-dashoffset:210.392;stroke-opacity:1"
           id="rect34379"
           width="32.925064"
           height="8.8335533"
           x="10.962278"
           y="32.040562"
           ry="3.3072917"
           rx="3.3072917" />
        <rect
           style="fill:#ffffff;fill-opacity:1;stroke:none;stroke-width:0.0928391;stroke-dasharray:none;stroke-dashoffset:210.392;stroke-opacity:1"
           id="rect34381"
           width="32.925064"
           height="8.8335533"
           x="11.352537"
           y="32.556431"
           ry="3.3072917"
           rx="3.3072917" />
        <text
           xml:space="preserve"
           style="font-style:normal;font-variant:normal;font-weight:600;font-stretch:normal;font-size:7.22745px;font-family:'Roboto Slab';-inkscape-font-specification:'Roboto Slab Semi-Bold';word-spacing:-1.16366px;fill:#cccccc;fill-opacity:1;stroke:none;stroke-width:19.4902;stroke-dasharray:58.4704, 58.4704;stroke-dashoffset:0;stroke-opacity:1"
           x="18.446531"
           y="39.688816"
           id="text34385"><tspan
             sodipodi:role="line"
             id="tspan34383"
             style="font-style:normal;font-variant:normal;font-weight:600;font-stretch:normal;font-size:7.22745px;font-family:'Roboto Slab';-inkscape-font-specification:'Roboto Slab Semi-Bold';fill:#cccccc;fill-opacity:1;stroke-width:19.4902"
             x="18.446531"
             y="39.688816">Deals</tspan></text>
        <g
           id="g34395"
           transform="translate(-6.1224,44.02947)">
          <rect
             style="fill:#ffffff;fill-opacity:1;stroke:none;stroke-width:0.097269;stroke-dasharray:none;stroke-dashoffset:210.392;stroke-opacity:1"
             id="rect34387"
             width="36.142227"
             height="8.8335543"
             x="71.123306"
             y="-12.002134"
             ry="3.3072917"
             rx="3.3072917" />
          <rect
             style="fill:#ffffff;fill-opacity:1;stroke:none;stroke-width:0.097269;stroke-dasharray:none;stroke-dashoffset:210.392;stroke-opacity:1"
             id="rect34389"
             width="36.142227"
             height="8.8335543"
             x="71.704239"
             y="-11.472975"
             ry="3.3072917"
             rx="3.3072917" />
          <text
             xml:space="preserve"
             style="font-style:normal;font-variant:normal;font-weight:600;font-stretch:normal;font-size:7.22745px;font-family:'Roboto Slab';-inkscape-font-specification:'Roboto Slab Semi-Bold';word-spacing:-1.16366px;fill:#cccccc;fill-opacity:1;stroke:none;stroke-width:19.4902;stroke-dasharray:58.4704, 58.4704;stroke-dashoffset:0;stroke-opacity:1"
             x="74.187637"
             y="-4.3406358"
             id="text34393"><tspan
               sodipodi:role="line"
               id="tspan34391"
               style="font-style:normal;font-variant:normal;font-weight:600;font-stretch:normal;font-size:7.22745px;font-family:'Roboto Slab';-inkscape-font-specification:'Roboto Slab Semi-Bold';fill:#cccccc;fill-opacity:1;stroke-width:19.4902"
               x="74.187637"
               y="-4.3406358">Charities</tspan></text>
        </g>
        <rect
           style="fill:#ffffff;fill-opacity:1;stroke:none;stroke-width:0.092839;stroke-dasharray:none;stroke-dashoffset:210.392;stroke-opacity:1"
           id="rect34397"
           width="32.925064"
           height="8.8335543"
           x="122.44739"
           y="32.027317"
           ry="3.3072917"
           rx="3.3072917" />
        <rect
           style="fill:#ffffff;fill-opacity:1;stroke:none;stroke-width:0.092839;stroke-dasharray:none;stroke-dashoffset:210.392;stroke-opacity:1"
           id="rect34399"
           width="32.925064"
           height="8.8335543"
           x="122.97656"
           y="32.556492"
           ry="3.3072917"
           rx="3.3072917" />
        <text
           xml:space="preserve"
           style="font-style:normal;font-variant:normal;font-weight:600;font-stretch:normal;font-size:7.22745px;font-family:'Roboto Slab';-inkscape-font-specification:'Roboto Slab Semi-Bold';word-spacing:-1.16366px;fill:#cccccc;fill-opacity:1;stroke:none;stroke-width:19.4902;stroke-dasharray:58.4704, 58.4704;stroke-dashoffset:0;stroke-opacity:1"
           x="129.46582"
           y="39.688816"
           id="text34405"><tspan
             sodipodi:role="line"
             id="tspan34401"
             style="font-style:normal;font-variant:normal;font-weight:600;font-stretch:normal;font-size:7.22745px;font-family:'Roboto Slab';-inkscape-font-specification:'Roboto Slab Semi-Bold';fill:#cccccc;fill-opacity:1;stroke-width:19.4902"
             x="129.46582"
             y="39.688816">Share</tspan><tspan
             sodipodi:role="line"
             style="font-style:normal;font-variant:normal;font-weight:600;font-stretch:normal;font-size:7.22745px;font-family:'Roboto Slab';-inkscape-font-specification:'Roboto Slab Semi-Bold';fill:#cccccc;fill-opacity:1;stroke-width:19.4902"
             x="129.46582"
             y="48.723129"
             id="tspan34403" /></text>
        <rect
           style="fill:#ffffff;fill-opacity:1;stroke:none;stroke-width:0.229692;stroke-dasharray:none;stroke-dashoffset:210.392;stroke-opacity:1"
           id="rect34407"
           width="152.57956"
           height="11.668063"
           x="7.3374"
           y="220.52335" />
        <text
           xml:space="preserve"
           style="font-style:normal;font-variant:normal;font-weight:500;font-stretch:normal;font-size:6.82593px;font-family:'Roboto Slab';-inkscape-font-specification:'Roboto Slab Medium';word-spacing:-1.16366px;fill:#6b21a8;fill-opacity:1;stroke:none;stroke-width:19.4902;stroke-dasharray:58.4704, 58.4704;stroke-dashoffset:0;stroke-opacity:1"
           x="70.319458"
           y="228.06094"
           id="text34411"><tspan
             sodipodi:role="line"
             id="tspan34409"
             style="font-style:normal;font-variant:normal;font-weight:500;font-stretch:normal;font-size:6.82593px;font-family:'Roboto Slab';-inkscape-font-specification:'Roboto Slab Medium';fill:#6b21a8;fill-opacity:1;stroke-width:19.4902"
             x="70.319458"
             y="228.06094">Settings</tspan></text>
        <rect
           style="fill:#cccccc;fill-opacity:1;stroke:none;stroke-width:0.0602585;stroke-dasharray:none;stroke-dashoffset:210.392;stroke-opacity:1"
           id="rect34413"
           width="152.57956"
           height="0.80305034"
           x="7.3374"
           y="-43.474583"
           transform="scale(1,-1)" />
        <rect
           style="fill:#b3b3b3;fill-opacity:1;stroke:none;stroke-width:0.020594;stroke-dasharray:none;stroke-dashoffset:0;stroke-opacity:1"
           id="rect34415"
           width="152.46562"
           height="0.74246252"
           x="7.3944068"
           y="-220.52335"
           ry="0"
           inkscape:export-filename="../../../rect1664.png"
           inkscape:export-xdpi="150"
           inkscape:export-ydpi="150"
           rx="0"
           transform="scale(1,-1)" />
      </g>
      <g
         id="g38988"
         transform="translate(-300.08075,-180.12438)">
        <g
           id="g38694">
          <rect
             style="fill:#00c7a4;fill-opacity:1;stroke:none;stroke-width:0.097269;stroke-dasharray:none;stroke-dashoffset:210.392;stroke-opacity:1"
             id="rect38686"
             width="36.142227"
             height="8.8335543"
             x="65.000862"
             y="32.027332"
             ry="3.3072917"
             rx="3.3072917" />
          <rect
             style="fill:#6b21a8;fill-opacity:1;stroke:none;stroke-width:0.097269;stroke-dasharray:none;stroke-dashoffset:210.392;stroke-opacity:1"
             id="rect38688"
             width="36.142227"
             height="8.8335543"
             x="65.581795"
             y="32.556492"
             ry="3.3072917"
             rx="3.3072917" />
          <text
             xml:space="preserve"
             style="font-style:normal;font-variant:normal;font-weight:600;font-stretch:normal;font-size:7.22745px;font-family:'Roboto Slab';-inkscape-font-specification:'Roboto Slab Semi-Bold';word-spacing:-1.16366px;fill:#ffffff;fill-opacity:1;stroke:none;stroke-width:19.4902;stroke-dasharray:58.4704, 58.4704;stroke-dashoffset:0;stroke-opacity:1"
             x="68.065193"
             y="39.688831"
             id="text38692"><tspan
               sodipodi:role="line"
               id="tspan38690"
               style="font-style:normal;font-variant:normal;font-weight:600;font-stretch:normal;font-size:7.22745px;font-family:'Roboto Slab';-inkscape-font-specification:'Roboto Slab Semi-Bold';fill:#ffffff;fill-opacity:1;stroke-width:19.4902"
               x="68.065193"
               y="39.688831">Charities</tspan></text>
        </g>
        <rect
           style="fill:#ffffff;fill-opacity:1;stroke:none;stroke-width:0.317333;stroke-dasharray:none;stroke-dashoffset:0;stroke-opacity:1"
           id="rect38696"
           width="152.57956"
           height="176.16241"
           x="7.3374"
           y="43.632725"
           ry="0"
           inkscape:export-filename="../../../rect1664.png"
           inkscape:export-xdpi="150"
           inkscape:export-ydpi="150"
           rx="0" />
        <rect
           style="fill:#ffffff;fill-opacity:1;stroke:none;stroke-width:0.113971;stroke-dasharray:none;stroke-dashoffset:0;stroke-opacity:1"
           id="rect38698"
           width="152.46562"
           height="22.739622"
           x="7.3944068"
           y="172.80765"
           ry="0"
           inkscape:export-filename="../../../rect1664.png"
           inkscape:export-xdpi="150"
           inkscape:export-ydpi="150"
           rx="0" />
        <g
           id="g38708"
           transform="matrix(0.95102888,0,0,0.95102888,1268.1948,165.59262)">
          <circle
             style="fill:#6b21a8;fill-opacity:1;stroke:none;stroke-width:0.135961;stroke-dasharray:none;stroke-dashoffset:55.6662;stroke-opacity:1"
             id="circle38700"
             cx="-1317.3386"
             cy="19.541887"
             r="4.2220092" />
          <g
             id="g38706"
             transform="matrix(1.0057929,1.0298023,-1.0298023,1.0057929,42.196211,1404.7272)"
             style="fill:#ffffff">
            <rect
               style="fill:#ffffff;fill-opacity:1;stroke:none;stroke-width:0.24926;stroke-dasharray:none;stroke-dashoffset:210.392;stroke-opacity:1"
               id="rect38702"
               width="0.66420013"
               height="3.8262217"
               x="956.11029"
               y="-952.28424"
               ry="0"
               rx="0"
               transform="rotate(-135.32275)" />
            <rect
               style="fill:#ffffff;fill-opacity:1;stroke:none;stroke-width:0.24926;stroke-dasharray:none;stroke-dashoffset:210.392;stroke-opacity:1"
               id="rect38704"
               width="0.66420013"
               height="3.8262217"
               x="950.039"
               y="954.52924"
               ry="0"
               rx="0"
               transform="rotate(134.67725)" />
          </g>
        </g>
        <g
           id="g38714"
           style="fill:#6b21a8;fill-opacity:1"
           transform="matrix(-0.38825278,-0.38390312,0.38390312,-0.38825278,-370.1611,-336.48079)">
          <rect
             style="fill:#6b21a8;fill-opacity:1;stroke:none;stroke-width:0.692797;stroke-dasharray:none;stroke-dashoffset:210.392;stroke-opacity:1"
             id="rect38710"
             width="1.8460882"
             height="10.634661"
             x="-1353.377"
             y="-9.0444241"
             ry="0"
             rx="0" />
          <rect
             style="fill:#6b21a8;fill-opacity:1;stroke:none;stroke-width:0.692797;stroke-dasharray:none;stroke-dashoffset:210.392;stroke-opacity:1"
             id="rect38712"
             width="1.8460882"
             height="10.634661"
             x="7.1983361"
             y="-1353.377"
             ry="0"
             rx="0"
             transform="rotate(-90)" />
        </g>
        <rect
           style="fill:#eeeeee;fill-opacity:1;stroke:none;stroke-width:0.020594;stroke-dasharray:none;stroke-dashoffset:0;stroke-opacity:1"
           id="rect38716"
           width="152.46562"
           height="0.74246252"
           x="7.3944068"
           y="-196.28983"
           ry="0"
           inkscape:export-filename="../../../rect1664.png"
           inkscape:export-xdpi="150"
           inkscape:export-ydpi="150"
           rx="0"
           transform="scale(1,-1)" />
        <rect
           style="fill:#eeeeee;fill-opacity:1;stroke:none;stroke-width:0.020594;stroke-dasharray:none;stroke-dashoffset:0;stroke-opacity:1"
           id="rect38718"
           width="152.46562"
           height="0.74246252"
           x="7.3944068"
           y="-172.80765"
           ry="0"
           inkscape:export-filename="../../../rect1664.png"
           inkscape:export-xdpi="150"
           inkscape:export-ydpi="150"
           rx="0"
           transform="scale(1,-1)" />
        <rect
           style="fill:#ffffff;fill-opacity:1;stroke:none;stroke-width:0.113971;stroke-dasharray:none;stroke-dashoffset:0;stroke-opacity:1"
           id="rect38720"
           width="152.46562"
           height="22.739622"
           x="7.3944068"
           y="149.31345"
           ry="0"
           inkscape:export-filename="../../../rect1664.png"
           inkscape:export-xdpi="150"
           inkscape:export-ydpi="150"
           rx="0" />
        <g
           id="g38730"
           transform="matrix(0.95102888,0,0,0.95102888,1268.1948,142.09842)">
          <circle
             style="fill:#6b21a8;fill-opacity:1;stroke:none;stroke-width:0.135961;stroke-dasharray:none;stroke-dashoffset:55.6662;stroke-opacity:1"
             id="circle38722"
             cx="-1317.3386"
             cy="19.541887"
             r="4.2220092" />
          <g
             id="g38728"
             transform="matrix(1.0057929,1.0298023,-1.0298023,1.0057929,42.196211,1404.7272)"
             style="fill:#ffffff">
            <rect
               style="fill:#ffffff;fill-opacity:1;stroke:none;stroke-width:0.24926;stroke-dasharray:none;stroke-dashoffset:210.392;stroke-opacity:1"
               id="rect38724"
               width="0.66420013"
               height="3.8262217"
               x="956.11029"
               y="-952.28424"
               ry="0"
               rx="0"
               transform="rotate(-135.32275)" />
            <rect
               style="fill:#ffffff;fill-opacity:1;stroke:none;stroke-width:0.24926;stroke-dasharray:none;stroke-dashoffset:210.392;stroke-opacity:1"
               id="rect38726"
               width="0.66420013"
               height="3.8262217"
               x="950.039"
               y="954.52924"
               ry="0"
               rx="0"
               transform="rotate(134.67725)" />
          </g>
        </g>
        <g
           id="g38736"
           style="fill:#6b21a8;fill-opacity:1"
           transform="matrix(-0.38825278,-0.38390312,0.38390312,-0.38825278,-370.1611,-359.97502)">
          <rect
             style="fill:#6b21a8;fill-opacity:1;stroke:none;stroke-width:0.692797;stroke-dasharray:none;stroke-dashoffset:210.392;stroke-opacity:1"
             id="rect38732"
             width="1.8460882"
             height="10.634661"
             x="-1353.377"
             y="-9.0444241"
             ry="0"
             rx="0" />
          <rect
             style="fill:#6b21a8;fill-opacity:1;stroke:none;stroke-width:0.692797;stroke-dasharray:none;stroke-dashoffset:210.392;stroke-opacity:1"
             id="rect38734"
             width="1.8460882"
             height="10.634661"
             x="7.1983361"
             y="-1353.377"
             ry="0"
             rx="0"
             transform="rotate(-90)" />
        </g>
        <rect
           style="fill:#eeeeee;fill-opacity:1;stroke:none;stroke-width:0.020594;stroke-dasharray:none;stroke-dashoffset:0;stroke-opacity:1"
           id="rect38738"
           width="152.46562"
           height="0.74246252"
           x="7.3944068"
           y="-172.79556"
           ry="0"
           inkscape:export-filename="../../../rect1664.png"
           inkscape:export-xdpi="150"
           inkscape:export-ydpi="150"
           rx="0"
           transform="scale(1,-1)" />
        <rect
           style="fill:#eeeeee;fill-opacity:1;stroke:none;stroke-width:0.020594;stroke-dasharray:none;stroke-dashoffset:0;stroke-opacity:1"
           id="rect38740"
           width="152.46562"
           height="0.74246252"
           x="7.3944068"
           y="-149.31345"
           ry="0"
           inkscape:export-filename="../../../rect1664.png"
           inkscape:export-xdpi="150"
           inkscape:export-ydpi="150"
           rx="0"
           transform="scale(1,-1)" />
        <rect
           style="fill:#ffffff;fill-opacity:1;stroke:none;stroke-width:0.113971;stroke-dasharray:none;stroke-dashoffset:0;stroke-opacity:1"
           id="rect38742"
           width="152.46562"
           height="22.739622"
           x="7.3944068"
           y="196.29166"
           ry="0"
           inkscape:export-filename="../../../rect1664.png"
           inkscape:export-xdpi="150"
           inkscape:export-ydpi="150"
           rx="0" />
        <g
           id="g38752"
           transform="matrix(0.95102888,0,0,0.95102888,1268.1948,189.07662)">
          <circle
             style="fill:#6b21a8;fill-opacity:1;stroke:none;stroke-width:0.135961;stroke-dasharray:none;stroke-dashoffset:55.6662;stroke-opacity:1"
             id="circle38744"
             cx="-1317.3386"
             cy="19.541887"
             r="4.2220092" />
          <g
             id="g38750"
             transform="matrix(1.0057929,1.0298023,-1.0298023,1.0057929,42.196211,1404.7272)"
             style="fill:#ffffff">
            <rect
               style="fill:#ffffff;fill-opacity:1;stroke:none;stroke-width:0.24926;stroke-dasharray:none;stroke-dashoffset:210.392;stroke-opacity:1"
               id="rect38746"
               width="0.66420013"
               height="3.8262217"
               x="956.11029"
               y="-952.28424"
               ry="0"
               rx="0"
               transform="rotate(-135.32275)" />
            <rect
               style="fill:#ffffff;fill-opacity:1;stroke:none;stroke-width:0.24926;stroke-dasharray:none;stroke-dashoffset:210.392;stroke-opacity:1"
               id="rect38748"
               width="0.66420013"
               height="3.8262217"
               x="950.039"
               y="954.52924"
               ry="0"
               rx="0"
               transform="rotate(134.67725)" />
          </g>
        </g>
        <g
           id="g38758"
           style="fill:#6b21a8;fill-opacity:1"
           transform="matrix(-0.38825278,-0.38390312,0.38390312,-0.38825278,-370.1611,-312.9968)">
          <rect
             style="fill:#6b21a8;fill-opacity:1;stroke:none;stroke-width:0.692797;stroke-dasharray:none;stroke-dashoffset:210.392;stroke-opacity:1"
             id="rect38754"
             width="1.8460882"
             height="10.634661"
             x="-1353.377"
             y="-9.0444241"
             ry="0"
             rx="0" />
          <rect
             style="fill:#6b21a8;fill-opacity:1;stroke:none;stroke-width:0.692797;stroke-dasharray:none;stroke-dashoffset:210.392;stroke-opacity:1"
             id="rect38756"
             width="1.8460882"
             height="10.634661"
             x="7.1983361"
             y="-1353.377"
             ry="0"
             rx="0"
             transform="rotate(-90)" />
        </g>
        <rect
           style="fill:#eeeeee;fill-opacity:1;stroke:none;stroke-width:0.020594;stroke-dasharray:none;stroke-dashoffset:0;stroke-opacity:1"
           id="rect38760"
           width="152.46562"
           height="0.74246252"
           x="7.3944068"
           y="-219.77383"
           ry="0"
           inkscape:export-filename="../../../rect1664.png"
           inkscape:export-xdpi="150"
           inkscape:export-ydpi="150"
           rx="0"
           transform="scale(1,-1)" />
        <rect
           style="fill:#eeeeee;fill-opacity:1;stroke:none;stroke-width:0.020594;stroke-dasharray:none;stroke-dashoffset:0;stroke-opacity:1"
           id="rect38762"
           width="152.46562"
           height="0.74246252"
           x="7.3944068"
           y="-196.29166"
           ry="0"
           inkscape:export-filename="../../../rect1664.png"
           inkscape:export-xdpi="150"
           inkscape:export-ydpi="150"
           rx="0"
           transform="scale(1,-1)" />
        <text
           xml:space="preserve"
           style="font-style:normal;font-variant:normal;font-weight:bold;font-stretch:normal;font-size:6.08542px;font-family:'Roboto Slab';-inkscape-font-specification:'Roboto Slab Bold';letter-spacing:0px;word-spacing:0px;fill:#999999;fill-opacity:1;stroke:none;stroke-width:22.0328;stroke-dasharray:66.0986, 66.0986;stroke-dashoffset:0;stroke-opacity:1"
           x="23.081907"
           y="162.35159"
           id="text38766"><tspan
             sodipodi:role="line"
             id="tspan38764"
             style="font-style:normal;font-variant:normal;font-weight:bold;font-stretch:normal;font-size:6.08542px;font-family:'Roboto Slab';-inkscape-font-specification:'Roboto Slab Bold';fill:#999999;fill-opacity:1;stroke-width:22.0328"
             x="23.081907"
             y="162.35159">Feeding America</tspan></text>
        <text
           xml:space="preserve"
           style="font-style:normal;font-variant:normal;font-weight:bold;font-stretch:normal;font-size:6.08542px;font-family:'Roboto Slab';-inkscape-font-specification:'Roboto Slab Bold';letter-spacing:0px;word-spacing:0px;fill:#999999;fill-opacity:1;stroke:none;stroke-width:22.0328;stroke-dasharray:66.0986, 66.0986;stroke-dashoffset:0;stroke-opacity:1"
           x="23.081907"
           y="209.32974"
           id="text38770"><tspan
             sodipodi:role="line"
             id="tspan38768"
             style="font-style:normal;font-variant:normal;font-weight:bold;font-stretch:normal;font-size:6.08542px;font-family:'Roboto Slab';-inkscape-font-specification:'Roboto Slab Bold';fill:#999999;fill-opacity:1;stroke-width:22.0328"
             x="23.081907"
             y="209.32974">Earthjustice</tspan></text>
        <text
           xml:space="preserve"
           style="font-style:normal;font-variant:normal;font-weight:bold;font-stretch:normal;font-size:6.08542px;font-family:'Roboto Slab';-inkscape-font-specification:'Roboto Slab Bold';letter-spacing:0px;word-spacing:0px;fill:#999999;fill-opacity:1;stroke:none;stroke-width:22.0328;stroke-dasharray:66.0986, 66.0986;stroke-dashoffset:0;stroke-opacity:1"
           x="23.114622"
           y="185.84573"
           id="text38774"><tspan
             sodipodi:role="line"
             style="font-style:normal;font-variant:normal;font-weight:bold;font-stretch:normal;font-size:6.08542px;font-family:'Roboto Slab';-inkscape-font-specification:'Roboto Slab Bold';fill:#999999;fill-opacity:1;stroke-width:22.0328"
             x="23.114622"
             y="185.84573"
             id="tspan38772">The Nature Conservancy</tspan></text>
        <rect
           style="fill:#000000;fill-opacity:0.225589;stroke:none;stroke-width:1.04983;stroke-opacity:1;filter:url(#filter15500)"
           id="rect38776"
           width="64.416054"
           height="32.939934"
           x="-970.21924"
           y="-85.265945"
           ry="5.1811419"
           rx="4.7536545"
           transform="matrix(1,0,0,1.0677566,1057.7152,151.26612)" />
        <g
           id="g38796"
           transform="translate(1328.6322,-868.13168)">
          <rect
             style="fill:#f9f9f9;fill-opacity:1;stroke:none;stroke-width:1.08481;stroke-opacity:1"
             id="rect38778"
             width="64.416054"
             height="35.171833"
             x="-1241.1282"
             y="928.35455"
             ry="5.5321984"
             rx="4.7536545" />
          <path
             style="fill:url(#linearGradient38990);fill-opacity:1;stroke:none;stroke-width:1.29508"
             d="m -1237.4126,963.37565 c -1.2112,-0.32571 -2.3282,-1.24535 -2.9455,-2.42503 -0.588,-1.12349 -0.6777,-1.60161 -0.7352,-3.91694 l -0.051,-2.06801 h 32.1755 32.1755 v 2.0053 c 0,2.20986 -0.081,2.7237 -0.6,3.81642 -0.355,0.74699 -1.3451,1.82618 -2.0047,2.18521 -1.0978,0.59747 1.0387,0.55766 -29.555,0.55065 -24.0899,-0.005 -28.0064,-0.0258 -28.4592,-0.1476 z"
             id="path38780" />
          <g
             id="g38790"
             transform="matrix(0.14285488,0,0,0.14285488,-1227.2415,932.31443)">
            <path
               id="path38782"
               class="st0"
               d="M 158,74.8 V 54 c 0,0 1.8,0.6 3.5,0.6 1.7,0 3.6,-0.6 3.6,-0.6 V 74.7 97.8 H 158 Z M 7.3,87.9 h 7.3 V 75 H 32.5 V 68.4 H 14.6 v -7.1 h 20 V 54.7 H 7.3 Z m 36.3,0 H 70.9 V 81.4 H 50.8 v -7 H 68.5 V 67.9 H 50.8 v -6.7 h 19.8 v -6.5 h -27 c 0,0 0,33.2 0,33.2 z m 38.4,0 h 25.9 V 81.4 H 89.2 v -7 h 16.6 V 67.9 H 89.2 v -6.7 h 18.4 V 54.7 H 82 Z m 36.3,0 h 13.5 c 10.4,0 17.6,-7.2 17.6,-16.6 v -0.1 c 0,-9.3 -7.2,-16.5 -17.6,-16.5 h -13.5 z m 7.3,-6.6 v -20 h 6.2 c 6,0 10,4.1 10,10 v 0.1 c 0,5.9 -4,9.9 -10,9.9 0,0 -6.2,0 -6.2,0 z m 49.8,6.6 h 7.3 V 66.8 l 15.1,21.1 h 6.3 V 54.7 h -7.3 V 75.1 L 182.2,54.7 h -6.8 z m 37.1,-17.1 c 0,9.8 7.1,17 17.4,17 6.1,0 10.7,-2.4 14.2,-5.3 V 68.2 h -14.4 v 6.3 h 7.3 v 4.7 c -1.8,1.3 -4.2,2 -6.9,2 -5.9,0 -10,-4.5 -10,-10.5 v -0.1 c 0,-5.6 4.2,-10.3 9.5,-10.3 3.8,0 6.1,1.2 8.7,3.4 l 4.6,-5.5 c -3.5,-2.9 -7.1,-4.5 -13,-4.5 -10.1,-0.1 -17.4,7.6 -17.4,17.1 v 0"
               style="fill:#de7c00" />
            <path
               id="path38784"
               class="st1"
               d="m 158,113.8 v -16 h 7 v 15.7 17.3 h -7 z M 0,131 h 7.4 l 3,-7.4 h 14 l 3,7.4 H 35 L 20.9,97.6 h -6.7 z m 13.1,-13.9 4.4,-10.7 4.4,10.7 z M 41.3,131 h 6.9 v -6.9 -14.8 l 9.5,13.9 h 0.2 l 9.6,-14 V 131 h 7 V 97.8 H 66.6 L 58,111.6 49.4,97.8 h -7.9 c -0.2,0 -0.2,33.2 -0.2,33.2 z m 43.9,0 h 25.6 v -6.5 H 92.5 v -7 h 16 V 111 h -16 v -6.7 h 18.2 V 97.8 H 85.2 Z m 63.8,0 -8.1,-11.8 c 4.2,-1.6 7.1,-4.9 7.1,-10.3 v -0.1 c 0,-3.1 -1,-5.7 -2.8,-7.6 -2.2,-2.2 -5.4,-3.4 -9.7,-3.4 H 121 V 131 h 7.3 v -10.6 h 5 0.1 l 7.1,10.6 h 8.5 m -20.7,-17.1 v -9.5 h 6.6 c 3.6,0 5.7,1.6 5.7,4.7 v 0.1 c 0,2.8 -2,4.7 -5.6,4.7 z m 46.4,0.6 c 0,9.5 7.2,17 17,17 7,0 10.9,-3 14.4,-6.8 l -4.6,-4.5 c -2.7,2.7 -5.8,4.6 -9.5,4.6 -5.7,0 -9.6,-4.7 -9.6,-10.4 v -0.1 c 0,-5.7 4,-10.3 9.6,-10.3 3.6,0 6.6,1.8 9.2,4.5 l 4.8,-5.1 c -3.5,-3.6 -7.3,-6.1 -14,-6.1 -10.2,0 -17.3,7.7 -17.3,17.1 v 0.1 m 36.7,16 h 7.4 l 3.2,-7.4 h 15.6 l 3.2,7.4 h 7.4 L 233.3,97.1 h -7 z m 13.2,-13.8 5.2,-11.5 5.1,11.5 z"
               style="clip-rule:evenodd;fill:#4e5b31;fill-rule:evenodd" />
            <path
               id="path38786"
               class="st0"
               d="m 160.9,41.6 c 0,0 -3.2,-0.1 -5.3,-1.6 -4.1,-3 -4.9,-8.1 -4.9,-8.1 0,0 4.8,-1 8.4,2.4 2.5,2.3 1.8,7.3 1.8,7.3 m 1.3,0 c 0,0 3.2,-0.1 5.3,-1.6 4.1,-3 4.9,-8.1 4.9,-8.1 0,0 -4.8,-1 -8.4,2.4 -2.6,2.3 -1.8,7.3 -1.8,7.3 m -1.3,10.1 c 0,0 0.8,-5 -1.8,-7.3 -3.6,-3.3 -8.4,-2.4 -8.4,-2.4 0,0 0.8,5.1 4.9,8.1 2.1,1.5 5.3,1.6 5.3,1.6 m 1.3,0 c 0,0 3.2,-0.1 5.3,-1.6 4.1,-3 4.9,-8.1 4.9,-8.1 0,0 -4.8,-1 -8.4,2.4 -2.6,2.3 -1.8,7.3 -1.8,7.3 m 0,-30.3 c 0,0 3.8,-0.3 5.8,-2.4 3.2,-3.4 2.3,-8.4 2.3,-8.4 0,0 -4,0.3 -6.7,3.8 -1.9,2.5 -1.4,7 -1.4,7 m -1.3,0 c 0,0 0.5,-4.6 -1.4,-7 -2.7,-3.5 -6.7,-3.8 -6.7,-3.8 0,0 -0.9,5 2.3,8.4 1.9,2.2 5.8,2.4 5.8,2.4 M 161.6,0 c -0.2,0.2 -3.3,3.5 -3.3,8.2 0,2.9 3,4.6 3.3,4.8 0.2,-0.2 3.3,-1.9 3.3,-4.8 -0.1,-4.7 -3.1,-8 -3.3,-8.2 m 0.6,31.4 c 0,0 3.3,0.2 5.3,-1.4 3.5,-3 3.4,-8.7 3.4,-8.7 0,0 -5,0 -7.3,3.7 -1.6,2.4 -1.4,6.4 -1.4,6.4 m -1.3,0 c 0,0 0.1,-4 -1.4,-6.4 -2.3,-3.7 -7.3,-3.7 -7.3,-3.7 0,0 -0.1,5.7 3.4,8.7 1.9,1.6 5.3,1.4 5.3,1.4"
               style="fill:#de7c00" />
            <path
               id="path38788"
               class="st0"
               d="m 252.1,62.9 c -2.5,0 -4.4,-2 -4.4,-4.4 0,-2.4 1.9,-4.4 4.4,-4.4 2.5,0 4.4,2 4.4,4.4 0.1,2.4 -1.9,4.4 -4.4,4.4 m 0.1,-8.3 c -2.2,0 -3.9,1.8 -3.9,3.9 0,2.2 1.7,3.9 3.9,3.9 2.2,0 3.9,-1.8 3.9,-3.9 0,-2.2 -1.7,-3.9 -3.9,-3.9 m 1.1,4.4 1.1,1.7 h -1.2 l -1,-1.5 h -0.8 v 1.5 h -1 V 56 h 2.1 c 1.1,0 1.8,0.6 1.8,1.5 0,0.8 -0.4,1.3 -1,1.5 m -0.9,-2.1 h -1 v 1.4 h 1 c 0.5,0 0.8,-0.3 0.8,-0.7 0,-0.5 -0.3,-0.7 -0.8,-0.7"
               style="fill:#de7c00" />
          </g>
          <text
             xml:space="preserve"
             style="font-style:normal;font-variant:normal;font-weight:bold;font-stretch:normal;font-size:4.7625px;font-family:'Roboto Slab';-inkscape-font-specification:'Roboto Slab Bold';letter-spacing:0px;word-spacing:0px;fill:#ffffff;fill-opacity:1;stroke:none;stroke-width:22.0328;stroke-dasharray:66.0986, 66.0986;stroke-dashoffset:0;stroke-opacity:1"
             x="-1228.178"
             y="960.55176"
             id="text38794"><tspan
               sodipodi:role="line"
               id="tspan38792"
               style="font-style:normal;font-variant:normal;font-weight:bold;font-stretch:normal;font-size:4.7625px;font-family:'Roboto Slab';-inkscape-font-specification:'Roboto Slab Bold';fill:#ffffff;fill-opacity:1;stroke-width:22.0328"
               x="-1228.178"
               y="960.55176">Feeding America</tspan></text>
        </g>
        <rect
           style="fill:#000000;fill-opacity:0.225589;stroke:none;stroke-width:1.04983;stroke-opacity:1;filter:url(#filter15500)"
           id="rect38798"
           width="64.416054"
           height="32.939934"
           x="-970.21924"
           y="-85.265945"
           ry="5.1811419"
           rx="4.7536545"
           transform="matrix(1,0,0,1.0677566,1021.6303,196.14742)" />
        <rect
           style="fill:#000000;fill-opacity:1;stroke:none;stroke-width:1.08481;stroke-opacity:1"
           id="rect38800"
           width="64.416054"
           height="35.171833"
           x="51.419186"
           y="105.10416"
           ry="5.5321984"
           rx="4.7536545" />
        <path
           style="fill:url(#linearGradient38992);fill-opacity:1;stroke:none;stroke-width:1.29508"
           d="m 55.1347,140.12532 c -1.2112,-0.3257 -2.3282,-1.2454 -2.9455,-2.4251 -0.588,-1.1235 -0.6777,-1.6016 -0.7352,-3.9169 l -0.051,-2.06802 h 32.1755 32.1755 v 2.00532 c 0,2.2098 -0.081,2.7237 -0.6,3.8164 -0.355,0.747 -1.3451,1.8262 -2.0047,2.1852 -1.0978,0.5975 1.0387,0.5577 -29.555,0.5507 -24.0899,0 -28.0064,-0.026 -28.4592,-0.1476 z"
           id="path38802" />
        <text
           xml:space="preserve"
           style="font-style:normal;font-variant:normal;font-weight:bold;font-stretch:normal;font-size:4.7625px;font-family:'Roboto Slab';-inkscape-font-specification:'Roboto Slab Bold';letter-spacing:0px;word-spacing:0px;fill:#ffffff;fill-opacity:1;stroke:none;stroke-width:22.0328;stroke-dasharray:66.0986, 66.0986;stroke-dashoffset:0;stroke-opacity:1"
           x="55.424313"
           y="137.30142"
           id="text38806"><tspan
             sodipodi:role="line"
             id="tspan38804"
             style="font-style:normal;font-variant:normal;font-weight:bold;font-stretch:normal;font-size:4.7625px;font-family:'Roboto Slab';-inkscape-font-specification:'Roboto Slab Bold';fill:#ffffff;fill-opacity:1;stroke-width:22.0328"
             x="55.424313"
             y="137.30142">The Nature Conservancy</tspan></text>
        <g
           id="g38868"
           transform="matrix(0.16179676,0,0,0.16179676,57.6037,112.53123)">
          <g
             id="g38864">
            <g
               id="g38820">
              <path
                 d="m 281.27,12.96 c -0.26,1.53 -0.37,5.28 1.83,4.8 2.93,-0.63 2.54,-0.93 4.15,-2.33 1.07,-0.94 3.69,1.62 0.04,5.69 -1.99,2.23 -2.43,2.91 -1.36,4.2 1.11,1.34 4,1.85 4,5.97 0,3.62 4.64,1 5.77,-0.42 1.1,-1.38 1.91,-7.67 5.04,-3.09 2.22,3.26 -1.57,10.23 2.99,10.92 3.75,0.56 4.4,4.84 4.51,5.92 0.01,0.15 0.02,0.25 0.02,0.25 9.58,-9.2 3.2,-21.11 2.96,-22.55 -0.41,-2.58 0.98,-1.64 2.69,-0.05 C 306.85,9.02 292.9,0 276.85,0 c -2.77,0 -5.48,0.28 -8.1,0.79 8.27,0.17 14.05,3.48 12.53,12.17 z"
                 fill="#ffffff"
                 id="path38808" />
              <path
                 d="m 303.29,63.57 c -2.58,1.03 -3.69,-0.62 -5.61,1.25 -2.1,2.05 4.62,6.08 -7.75,3.26 -5.53,-1.26 -4.77,4.75 -10.98,1.59 -1.72,-4.09 -1.77,-6.5 -0.3,-9.06 1.71,-3 2.33,-1.99 1.29,-5.29 -0.41,-1.29 -0.01,-1.86 0.67,-3.66 0.68,-1.79 -0.19,-4.28 -2.72,-4.14 -3.36,0.19 -2.97,1.71 -5.05,3.11 -1.39,0.93 -3.74,-3.8 1.18,-8.06 2.69,-2.32 3.32,-3.07 2.44,-4.86 -0.92,-1.86 -2.63,-1.19 -3.31,-3.33 -0.53,-1.64 0.29,-4.73 -2.07,-5.47 -2.68,-0.84 -4.82,2.99 -6.37,4.5 -1.8,1.75 -3.77,4.87 -4.74,2.38 -1.72,-4.43 6.19,-11.04 1.31,-12.79 -4.59,-1.65 -6.09,-6.47 -6.09,-6.47 -12.6,9.35 -6.63,17.57 -7.68,19.02 -1.05,1.46 -3.07,-1.77 -4.77,-0.23 -1.31,1.19 -2.48,8.83 5.59,13.68 3.06,1.84 4.06,2.31 3.33,3.42 -0.59,0.88 -3.03,0.14 -3,2.16 0.08,4.05 6.58,2.83 7.76,7.91 1.11,4.74 21.26,7.57 21.26,7.57 -0.02,-0.02 0.09,0 0.25,0.06 l 0.96,0.53 c 0.3,1.25 1.5,4.11 4.3,5.55 4.64,2.39 -0.28,1.24 0.35,2.92 0.32,0.86 3.61,3.08 9.46,1.73 8.09,-3.38 14.89,-9.21 19.48,-16.57 -5,-3.91 -5.38,-3.1 -9.18,-0.71 z"
                 fill="#ffffff"
                 id="path38810" />
              <path
                 d="m 277.92,70.12 c -0.16,-0.05 -0.28,-0.08 -0.25,-0.06 0,0 -20.15,-2.83 -21.26,-7.57 -1.18,-5.07 -7.68,-3.86 -7.76,-7.91 -0.04,-2.02 2.41,-1.28 3,-2.16 0.73,-1.11 -0.27,-1.58 -3.33,-3.42 -8.07,-4.85 -6.9,-12.49 -5.59,-13.68 1.7,-1.54 3.72,1.68 4.77,0.23 1.05,-1.46 -4.92,-9.68 7.68,-19.02 0,0 1.49,4.82 6.09,6.47 4.87,1.75 -3.03,8.36 -1.31,12.79 0.97,2.49 2.94,-0.63 4.74,-2.38 1.55,-1.5 3.68,-5.33 6.37,-4.5 2.36,0.74 1.54,3.83 2.07,5.47 0.69,2.14 2.39,1.47 3.31,3.33 0.89,1.79 0.26,2.54 -2.44,4.86 -4.92,4.26 -2.57,8.99 -1.18,8.06 2.07,-1.39 1.68,-2.92 5.05,-3.11 2.53,-0.14 3.4,2.35 2.72,4.14 -0.68,1.79 -1.08,2.37 -0.67,3.66 1.04,3.3 0.43,2.29 -1.29,5.29 -1.47,2.56 -1.41,4.97 0.3,9.06 6.2,3.15 5.45,-2.85 10.98,-1.59 12.37,2.82 5.65,-1.21 7.75,-3.26 1.91,-1.87 3.03,-0.22 5.61,-1.25 3.82,-2.39 4.18,-3.21 9.21,0.73 4.04,-6.46 6.39,-14.09 6.39,-22.26 0,-7.11 -1.78,-13.81 -4.9,-19.69 -1.75,-1.63 -3.2,-2.65 -2.78,-0.02 0.24,1.45 6.62,13.35 -2.96,22.55 0,0 0,-0.1 -0.02,-0.25 -0.11,-1.09 -0.76,-5.36 -4.51,-5.92 -4.56,-0.68 -0.77,-7.66 -2.99,-10.92 -3.13,-4.58 -3.94,1.71 -5.04,3.09 -1.12,1.41 -5.77,4.03 -5.77,0.42 0,-4.12 -2.89,-4.63 -4,-5.97 -1.07,-1.29 -0.63,-1.97 1.36,-4.2 3.65,-4.07 1.02,-6.63 -0.04,-5.69 -1.6,1.4 -1.22,1.7 -4.15,2.33 -2.19,0.48 -2.09,-3.27 -1.83,-4.8 1.51,-8.7 -4.27,-12 -12.56,-12.17 -19.33,3.79 -33.91,20.81 -33.91,41.25 0,23.22 18.82,42.04 42.04,42.04 5.73,0 11.19,-1.15 16.17,-3.23 -5.86,1.36 -9.16,-0.87 -9.48,-1.72 -0.63,-1.68 4.29,-0.53 -0.35,-2.92 -2.8,-1.44 -4,-4.3 -4.3,-5.55 l -0.96,-0.53 z"
                 fill="#49a942"
                 id="path38812" />
              <path
                 d="m 280.29,71.4 c 0,0 -27.63,-10.73 -28.59,-37.92 0,0 2.67,20.67 28.59,37.92 z"
                 fill="#49a942"
                 id="path38814" />
              <path
                 d="m 280.08,0.06 c 0.79,0.09 6.74,0.88 13.02,4.89 2.34,2.19 5.64,7.56 0.54,18.56 0,0 6.54,-8.83 4.89,-14.19 5.49,5.5 10.1,14.23 10.27,28.06 0,0 6.1,-34.64 -28.73,-37.32 z"
                 fill="#49a942"
                 id="path38816" />
              <path
                 d="m 307.71,68.78 c -2.11,1.28 -5.53,4.29 -11.12,2.53 0,0 2.19,1.68 5.71,1.59 -4.49,2.32 -9.35,2.87 -17.05,0.94 0,0 15.59,9.19 26.48,-8.4 0,0 -2.7,2.54 -4.01,3.33 z"
                 fill="#49a942"
                 id="path38818" />
            </g>
            <g
               id="g38862">
              <path
                 d="m 13.4,31.65 c 0,3.03 0.58,3.87 2.73,3.87 v 0.75 H 7.2 v -0.75 c 1.8,0 2.86,-0.53 2.86,-4 V 12.31 H 6.41 c -3.38,0 -4.92,0.96 -5.14,3.6 H 0.52 v -5.76 h 0.75 c 0.35,0.31 0.75,0.52 1.37,0.7 0.57,0.14 1.36,0.22 2.42,0.22 h 13.19 c 2.2,0 3.21,-0.26 4,-0.92 h 0.79 v 5.76 h -0.48 c -0.49,-2.11 -1.32,-3.6 -5.32,-3.6 h -3.83 v 19.34 z"
                 fill="#ffffff"
                 id="path38822" />
              <path
                 d="m 40.58,32.53 c 0,2.38 0.44,2.99 2.5,2.99 v 0.75 h -8.09 v -0.75 c 2.12,0 2.6,-0.49 2.6,-2.51 v -7.69 c 0,-2.07 -1.23,-3.39 -3.12,-3.39 -1.76,0 -3.04,0.83 -4.53,2.95 v 8.53 c 0,1.62 0.66,2.11 2.59,2.11 v 0.75 h -8.35 v -0.75 c 2.33,-0.05 2.77,-0.49 2.77,-2.99 V 12.26 c 0,-2.02 -0.58,-2.33 -2.77,-2.33 V 9.18 l 5.01,-0.53 h 0.75 v 14.73 c 1.98,-2.29 3.43,-3.12 5.45,-3.12 2.6,0 5.19,1.71 5.19,5.4 v 6.86 z"
                 fill="#ffffff"
                 id="path38824" />
              <path
                 d="m 47.86,26.77 c -0.08,6.99 4.09,8.75 6.2,8.75 2.11,0 3.25,-0.75 5.5,-3.25 v 1.15 c -1.89,2.42 -3.7,3.33 -6.42,3.33 -4.88,0 -8.4,-3.38 -8.4,-8.09 0,-4.71 3.43,-8.39 7.83,-8.39 3.61,0 6.95,2.9 6.73,6.51 H 47.86 Z m 8.49,-0.75 c 0.13,-3.43 -2.2,-4.84 -4.18,-4.84 -2.59,0 -4.13,1.93 -4.31,4.84 z"
                 fill="#ffffff"
                 id="path38826" />
              <path
                 d="M 99.73,45.72 H 98.54 L 70.39,11.01 h -0.14 v 28.02 c 0,4.04 1.6,5.51 5.23,5.51 v 1.19 H 63.35 v -1.19 c 3.34,0 4.94,-1.04 4.94,-6.83 V 14.36 C 68.29,9.9 67.1,7.39 62.37,6.97 V 5.79 h 10.24 l 24.96,31.08 h 0.14 V 13.52 c 0,-5.23 -1.39,-6.55 -4.88,-6.55 V 5.79 h 12.06 v 1.18 c -3.9,0 -5.16,1.6 -5.16,6.27 z"
                 fill="#ffffff"
                 id="path38828" />
              <path
                 d="m 136.58,20.98 h 8.57 v 1.81 h -8.57 v 15.89 c 0,3.41 1.74,5.16 4.46,5.16 1.81,0 3.14,-0.7 4.6,-2.37 l 0.77,0.91 c -2.16,2.72 -4.67,4.11 -7.46,4.11 -4.18,0 -7.11,-2.93 -7.11,-7.18 V 22.79 h -4.67 v -1.18 c 3.34,-1.67 6.13,-4.67 8.22,-8.92 h 1.18 v 8.3 z"
                 fill="#ffffff"
                 id="path38830" />
              <path
                 d="m 173.25,41.05 c 0,2.72 0.91,3.49 4.25,3.49 v 1.19 l -8.99,0.49 v -4.53 h -0.14 c -2.44,3.21 -5.3,4.81 -8.64,4.81 -4.88,0 -8.08,-3.69 -8.08,-8.29 V 25.59 c 0,-2.37 -0.84,-3.28 -4.39,-3.28 v -1.19 l 7.95,-0.77 h 1.19 v 17.63 c 0,3.49 2.23,5.58 5.58,5.58 2.37,0 4.53,-1.32 6.55,-4.04 V 26.21 c 0,-3.42 -0.56,-3.83 -4.81,-3.9 v -1.19 l 8.36,-0.77 h 1.19 v 20.7 z"
                 fill="#ffffff"
                 id="path38832" />
              <path
                 d="m 188.57,41.05 c 0,2.72 0.83,3.49 4.11,3.49 v 1.19 h -13.03 v -1.19 c 3.77,0 4.18,-0.98 4.18,-4.74 V 26.35 c 0,-3.62 -0.91,-4.04 -5.09,-4.04 v -1.19 l 8.64,-0.77 h 1.19 v 5.37 c 4.6,-3.97 6.76,-5.37 8.43,-5.37 1.39,0 3.28,0.84 4.53,1.95 l -1.88,4.39 c -2.02,-1.11 -4.18,-2.16 -5.85,-2.16 -1.67,0 -3,0.84 -5.23,3 z"
                 fill="#ffffff"
                 id="path38834" />
              <path
                 d="m 206.87,30.67 c -0.14,11.08 6.48,13.87 9.83,13.87 3.35,0 5.15,-1.19 8.71,-5.16 v 1.81 c -3,3.83 -5.86,5.29 -10.18,5.29 -7.74,0 -13.31,-5.36 -13.31,-12.82 0,-7.46 5.44,-13.31 12.41,-13.31 5.71,0 11.01,4.6 10.66,10.32 z m 13.45,-1.19 c 0.21,-5.44 -3.49,-7.67 -6.62,-7.67 -4.11,0 -6.55,3.07 -6.83,7.67 z"
                 fill="#ffffff"
                 id="path38836" />
              <path
                 d="m 25.36,55.52 c -1.46,-5.63 -4.54,-8.09 -9.7,-8.09 -7.2,0 -11.07,5.79 -11.07,13.47 0,8.97 4.65,14.87 11.38,14.87 4.7,0 8.2,-2.19 10.44,-6.57 l 0.78,0.73 C 25.21,74.68 20.46,77.65 14.72,77.65 7.52,77.65 0,72.74 0,62.78 0,52.82 6.52,46.29 15.45,46.29 c 3.76,0 6.58,1.25 8.35,1.25 0.79,0 1.3,-0.32 1.62,-0.94 h 0.84 v 8.92 h -0.89 z"
                 fill="#ffffff"
                 id="path38838" />
              <path
                 d="m 39.17,77.48 c -5.79,0 -10.12,-4.17 -10.12,-9.76 0,-5.59 4.33,-9.81 10.12,-9.81 5.79,0 10.12,4.18 10.12,9.81 0,5.63 -4.33,9.76 -10.12,9.76 z m 0,-18.52 c -3.91,0 -6.26,3.44 -6.26,8.76 0,4.75 1.98,8.72 6.26,8.72 4.28,0 6.26,-4.23 6.26,-8.72 0,-4.49 -1.98,-8.76 -6.26,-8.76 z"
                 fill="#ffffff"
                 id="path38840" />
              <path
                 d="m 70.74,72.89 c 0,2.4 0.52,3.13 3.13,3.13 v 0.89 h -9.86 v -0.89 c 2.5,0 3.18,-0.57 3.18,-2.29 v -9.65 c 0,-2.97 -2.14,-4.22 -4.12,-4.22 -1.83,0 -3.44,1.15 -5.27,3.6 v 9.03 c 0,2.82 0.36,3.55 3.13,3.55 v 0.89 h -9.76 v -0.89 c 2.45,0 3.08,-0.21 3.08,-3.55 V 62.11 c 0,-2.24 -0.57,-2.71 -3.08,-2.71 v -0.89 l 5.74,-0.58 h 0.89 v 3.7 c 2.19,-2.5 4.33,-3.7 6.68,-3.7 3.08,0 6.26,2.19 6.26,6.63 v 8.35 z"
                 fill="#ffffff"
                 id="path38842" />
              <path
                 d="m 86.01,63.6 c -0.36,-3.08 -2.4,-4.64 -4.59,-4.64 -1.83,0 -3.08,0.99 -3.08,2.5 0,4.7 9.7,3.44 9.7,10.33 0,3.08 -2.66,5.69 -5.84,5.69 -2.04,0 -3.81,-1.36 -4.7,-1.36 -0.68,0 -1.15,0.58 -1.2,1.25 h -0.89 v -6.31 h 0.89 c 0.79,3.86 3.66,5.38 5.95,5.38 1.83,0 3.24,-1.36 3.24,-3.19 0,-5.16 -9.81,-3.76 -9.81,-10.02 0,-2.87 2.56,-5.32 5.63,-5.32 1.93,0 2.51,0.89 3.76,0.89 0.47,0 0.83,-0.26 1.09,-0.89 h 0.89 v 5.69 z"
                 fill="#ffffff"
                 id="path38844" />
              <path
                 d="m 93.71,65.64 c -0.1,8.3 4.85,10.38 7.36,10.38 2.51,0 3.86,-0.89 6.52,-3.86 v 1.35 c -2.25,2.87 -4.38,3.97 -7.62,3.97 -5.79,0 -9.97,-4.02 -9.97,-9.6 0,-5.58 4.07,-9.96 9.29,-9.96 4.28,0 8.25,3.45 7.99,7.72 z m 10.07,-0.89 c 0.15,-4.07 -2.61,-5.73 -4.96,-5.73 -3.08,0 -4.9,2.29 -5.12,5.73 h 10.07 z"
                 fill="#ffffff"
                 id="path38846" />
              <path
                 d="m 116.48,73.41 c 0,2.03 0.62,2.61 3.08,2.61 v 0.89 h -9.76 v -0.89 c 2.82,0 3.13,-0.73 3.13,-3.55 V 62.4 c 0,-2.71 -0.68,-3.02 -3.81,-3.02 v -0.89 l 6.47,-0.58 h 0.89 v 4.02 c 3.44,-2.97 5.06,-4.02 6.31,-4.02 1.04,0 2.45,0.63 3.39,1.46 l -1.41,3.28 c -1.51,-0.83 -3.13,-1.61 -4.38,-1.61 -1.25,0 -2.24,0.62 -3.91,2.24 z"
                 fill="#ffffff"
                 id="path38848" />
              <path
                 d="m 138.49,72.42 3.6,-9.34 c 0.89,-2.4 0.89,-3.49 -1.83,-3.7 v -0.89 h 6.78 v 0.89 c -2.14,0.21 -2.66,0.68 -3.55,2.66 l -5.95,15.29 h -0.88 l -5.9,-14.51 c -1.25,-3.02 -1.72,-3.34 -3.91,-3.44 v -0.89 h 8.92 v 0.89 c -1.78,0.16 -2.24,1.15 -1.41,3.18 l 4.12,9.86 z"
                 fill="#ffffff"
                 id="path38850" />
              <path
                 d="m 183.88,72.89 c 0,2.4 0.52,3.13 3.13,3.13 v 0.89 h -9.86 v -0.89 c 2.51,0 3.18,-0.57 3.18,-2.29 v -9.65 c 0,-2.97 -2.14,-4.22 -4.12,-4.22 -1.83,0 -3.44,1.15 -5.27,3.6 v 9.03 c 0,2.82 0.37,3.55 3.13,3.55 v 0.89 h -9.76 v -0.89 c 2.45,0 3.08,-0.21 3.08,-3.55 V 62.11 c 0,-2.24 -0.58,-2.71 -3.08,-2.71 v -0.89 l 5.74,-0.58 h 0.89 v 3.7 c 2.19,-2.5 4.33,-3.7 6.68,-3.7 3.08,0 6.26,2.19 6.26,6.63 v 8.35 z"
                 fill="#ffffff"
                 id="path38852" />
              <path
                 d="m 204.42,64.44 h -0.89 c -0.79,-3.33 -3.13,-5.48 -6.21,-5.48 -3.65,0 -6.21,3.13 -6.21,7.67 0,5.06 3.18,9.29 6.94,9.29 2.25,0 4.96,-1.2 6.89,-3.86 v 1.36 c -1.98,2.71 -4.8,4.07 -8.14,4.07 -5.48,0 -9.29,-3.81 -9.29,-9.34 0,-5.53 4.28,-10.23 9.55,-10.23 2.77,0 4.28,1.04 5.22,1.04 0.47,0 0.94,-0.36 1.25,-1.04 h 0.89 z"
                 fill="#ffffff"
                 id="path38854" />
              <path
                 d="m 217.68,72.63 3.24,-9.76 c 0.73,-2.19 0.57,-3.39 -1.46,-3.49 v -0.89 h 6.52 v 0.89 c -1.98,0 -3.18,1.25 -4.23,4.33 l -7.36,21.76 c -1.46,4.28 -3.86,6.73 -6.11,6.73 -0.78,0 -1.35,-0.21 -2.29,-0.78 l 1.2,-3.18 c 0.73,0.31 1.14,0.42 1.77,0.42 2.24,0 3.55,-1.3 4.7,-4.54 l 2.4,-6.68 -6.63,-15.29 c -0.94,-2.14 -1.62,-2.71 -3.76,-2.76 V 58.5 h 8.87 v 0.89 c -1.41,0.21 -1.98,1.25 -1.3,2.82 l 4.43,10.43 z"
                 fill="#ffffff"
                 id="path38856" />
              <path
                 d="M 123.78,40.35 V 29.42 c 0,-6.69 -4.8,-9.06 -8.91,-9.06 -4.46,0 -8.08,3 -9.13,7.6 l 1.26,0.35 c 1.05,-3.56 3.76,-5.3 6.55,-5.3 3.48,0 5.51,2.51 5.51,5.99 v 1.81 c -4.04,2.37 -13.66,2.09 -13.66,9.13 0,3.62 3.21,6.55 7.04,6.55 2.58,0 4.47,-1.02 6.92,-3.67 h 0.01 c 0,0 0,2.96 0,2.96 h 8.66 v -1.2 c -3.53,0 -4.24,-0.99 -4.24,-4.23 z m -4.73,0.36 c -0.98,2.09 -3.62,3.14 -5.09,3.14 -2.02,0 -3.77,-2.02 -3.77,-4.53 0,-5.02 4.18,-4.94 8.85,-6.97 v 8.36 z"
                 fill="#ffffff"
                 id="path38858" />
              <path
                 d="m 160.5,72.86 v -8.11 c 0,-4.96 -3.56,-6.72 -6.61,-6.72 -3.31,0 -5.99,2.22 -6.77,5.63 l 0.93,0.26 c 0.77,-2.64 2.79,-3.93 4.85,-3.93 2.58,0 4.08,1.86 4.08,4.45 v 1.34 c -3,1.76 -10.13,1.55 -10.13,6.77 0,2.69 2.38,4.85 5.22,4.85 1.91,0 3.32,-0.76 5.13,-2.72 v 0 c 0,0 0,2.19 0,2.19 h 6.42 v -0.89 c -2.61,0 -3.14,-0.73 -3.14,-3.14 z m -3.5,0.27 c -0.72,1.55 -2.69,2.33 -3.77,2.33 -1.5,0 -2.79,-1.5 -2.79,-3.36 0,-3.72 3.1,-3.67 6.56,-5.17 z"
                 fill="#ffffff"
                 id="path38860" />
            </g>
          </g>
          <path
             d="m 314.73,8.43 c -2.41,0 -4.07,-1.67 -4.07,-4.18 0,-2.51 1.69,-4.19 4.09,-4.19 2.4,0 4.07,1.69 4.07,4.2 0,2.51 -1.71,4.18 -4.09,4.18 z m 0.02,-7.89 c -1.96,0 -3.51,1.33 -3.51,3.71 0,2.38 1.57,3.69 3.49,3.69 1.92,0 3.51,-1.33 3.51,-3.69 0,-2.36 -1.57,-3.71 -3.49,-3.71 z m 0.97,5.87 -1.17,-1.76 h -0.34 v 1.76 h -1.03 V 1.79 h 1.58 c 1.06,0 1.71,0.5 1.71,1.4 0,0.67 -0.36,1.08 -0.88,1.28 l 1.33,1.94 h -1.21 z m -1.03,-3.8 h -0.49 v 1.31 h 0.47 c 0.49,0 0.77,-0.22 0.77,-0.67 0,-0.41 -0.27,-0.65 -0.76,-0.65 z"
             fill="#ffffff"
             id="path38866" />
        </g>
        <rect
           style="fill:#000000;fill-opacity:0.225589;stroke:none;stroke-width:1.04983;stroke-opacity:1;filter:url(#filter15500)"
           id="rect38870"
           width="64.416054"
           height="32.939934"
           x="-970.21924"
           y="-85.265945"
           ry="5.1811419"
           rx="4.7536545"
           transform="matrix(1,0,0,1.0677566,985.54535,151.26612)" />
        <text
           xml:space="preserve"
           style="font-style:normal;font-variant:normal;font-weight:600;font-stretch:normal;font-size:7.22745px;line-height:3;font-family:'Roboto Slab';-inkscape-font-specification:'Roboto Slab Semi-Bold';word-spacing:-1.16366px;fill:#6b21a8;fill-opacity:1;stroke:none;stroke-width:19.4902;stroke-dasharray:58.4704, 58.4704;stroke-dashoffset:0;stroke-opacity:1"
           x="43.31274"
           y="54.064121"
           id="text38874"><tspan
             sodipodi:role="line"
             id="tspan38872"
             style="font-style:normal;font-variant:normal;font-weight:600;font-stretch:normal;font-size:7.22745px;font-family:'Roboto Slab';-inkscape-font-specification:'Roboto Slab Semi-Bold';fill:#6b21a8;fill-opacity:1;stroke-width:19.4902"
             x="43.31274"
             y="54.064121">Your   Selected    Charities</tspan></text>
        <g
           id="g38986"
           transform="translate(1328.6322,-868.13168)">
          <rect
             style="fill:#d6e045;fill-opacity:1;stroke:none;stroke-width:1.08481;stroke-opacity:1"
             id="rect38876"
             width="64.416054"
             height="35.171833"
             x="-1313.298"
             y="928.35455"
             ry="5.5321984"
             rx="4.7536545" />
          <path
             style="fill:url(#linearGradient38994);fill-opacity:1;stroke:none;stroke-width:1.29508"
             d="m -1309.5825,963.37565 c -1.2111,-0.32571 -2.3282,-1.24536 -2.9455,-2.42503 -0.5879,-1.12349 -0.6777,-1.60162 -0.7352,-3.91694 l -0.051,-2.06801 h 32.1756 32.1755 v 2.0053 c 0,2.20986 -0.081,2.7237 -0.6001,3.81642 -0.355,0.74699 -1.345,1.82618 -2.0047,2.18521 -1.0977,0.59747 1.0388,0.55766 -29.5549,0.55065 -24.0899,-0.005 -28.0064,-0.0258 -28.4592,-0.1476 z"
             id="path38878" />
          <g
             id="g38980"
             transform="matrix(0.19902034,0,0,0.19902034,-1307.1104,938.06041)">
            <path
               d="m 27.2,42.4 a 1.07,1.07 0 0 0 -1,0.9 v 10.4 h 2 V 43.3 a 1.07,1.07 0 0 0 -1,-0.9"
               transform="translate(-0.9,-1.1)"
               id="path38880" />
            <path
               d="m 29.4,24.2 -3.3,-1.7 a 1.85,1.85 0 0 0 -0.7,-0.2 h -2.6 a 1.85,1.85 0 0 1 -0.7,-0.2 l -1.6,-1.2 a 0.71,0.71 0 0 1 -0.3,-0.6 v -1 a 0.43,0.43 0 0 1 0.4,-0.4 h 1 a 0.43,0.43 0 0 1 0.4,0.4 v 0.8 a 0.4,0.4 0 0 0 0.8,0 v -1.7 a 0.71,0.71 0 0 1 0.3,-0.6 l 1.5,-1.9 c 0,0 2.2,-1 2.1,-1.6 L 26.3,13 c 0,0 0,-0.5 -0.7,-1 -0.4,-0.3 -1.5,1.5 -1.7,1.5 A 1.58,1.58 0 0 1 23.1,13.2 L 22.5,12.6 C 22.4,12.1 23,11.5 23,10.9 23,10.3 22.8,9.4 22.8,9.4 c -3.3,1.7 -6.1,4.4 -6.9,8 l 0.6,1.1 a 0.6,0.6 0 0 0 0.6,0.3 h 0.5 a 0.71,0.71 0 0 1 0.6,0.3 l 1,1.6 a 1.21,1.21 0 0 0 0.5,0.5 l 2.1,1.4 a 1.85,1.85 0 0 0 0.7,0.2 h 0.3 a 0.43,0.43 0 0 1 0.4,0.4 l -0.5,0.7 c 0,0.1 -0.2,0 0.1,1 L 23,26 c 0,0 0.2,0.4 0.5,0.4 H 24 l 0.1,0.5 c 0,0.3 0.4,2.2 0.9,5 0,0 0.7,-0.1 0.7,-0.3 0,-0.2 -0.1,-0.4 -0.3,-0.4 L 28.3,28 a 1.47,1.47 0 0 0 0.5,-0.6 l 1,-2 A 1.85,1.85 0 0 0 30,24.7 v -0.1 c -0.3,-0.1 -0.4,-0.3 -0.6,-0.4"
               transform="translate(-0.9,-1.1)"
               id="path38882" />
            <path
               d="m 27.2,1.1 a 26.31,26.31 0 0 0 -7.6,51.5 v -8.4 a 2,2 0 0 0 -2,-2 v -1.7 h 19.1 v 1.7 a 2,2 0 0 0 -2,2 v 8.4 A 26.31,26.31 0 0 0 27.2,1.1 M 38.7,39.4 H 15.6 V 36.8 H 38.7 Z M 27.2,33.3 a 13,13 0 1 1 13,-13 13,13 0 0 1 -13,13"
               transform="translate(-0.9,-1.1)"
               id="path38884" />
            <path
               d="m 22.9,42.4 a 1,1 0 0 0 -1,0.9 v 9.9 l 2,0.3 V 43.3 a 1,1 0 0 0 -1,-0.9"
               transform="translate(-0.9,-1.1)"
               id="path38886" />
            <path
               d="m 35.5,13.5 0.3,-0.1 c 0.5,-0.2 0.7,-0.3 0.5,-0.6 C 35,10.6 31.5,9.3 31.5,9.3 l -0.9,1 a 17.1,17.1 0 0 0 -1.1,1.4 4,4 0 0 0 0.4,1.2 c 0.2,0 0.3,0 0.4,0.2 l 0.1,0.4 -0.5,0.2 a 0.57,0.57 0 0 0 -0.4,0.7 l 0.7,1.3 a 0.57,0.57 0 0 0 0.7,0.4 l 0.8,-0.3 a 1.38,1.38 0 0 0 0.4,-0.3 4.22,4.22 0 0 0 0.3,-1.2 4.14,4.14 0 0 1 1.9,-0.5 c 0.2,0.1 0.5,0.9 0.5,0.9 a 0.52,0.52 0 0 0 0.4,0.2 l 0.8,0.2 c 0.1,0 0.3,0 0.3,-0.1 0,-0.1 0,-0.3 -0.1,-0.3 l -0.4,-0.2 c -0.1,0 -0.2,-0.2 -0.3,-0.3 l -0.2,-0.5 c 0,0 0.1,-0.2 0.2,-0.2"
               transform="translate(-0.9,-1.1)"
               id="path38888" />
            <path
               d="m 37.7,16.6 a 18.15,18.15 0 0 1 -2,0.1 c -0.6,0 -0.6,-0.6 -0.5,-0.6 l -2.5,0.2 a 0.37,0.37 0 0 0 -0.4,0.3 C 32.2,16.9 31.6,18 31.6,18 a 1.06,1.06 0 0 0 0.3,1.2 c 0.6,0.6 1.1,1 1.1,1 a 2,2 0 0 0 0.8,0.1 l 1,-0.1 c 0.5,0 0.5,1.3 0.5,1.6 0,0.3 1.4,2.9 1.4,3.2 0,0.3 0.4,0.2 0.6,0.2 h 0.4 a 0.44,0.44 0 0 0 0.3,-0.1 11,11 0 0 0 0.6,-7.6"
               transform="translate(-0.9,-1.1)"
               id="path38890" />
            <path
               d="m 31.4,42.4 a 1.07,1.07 0 0 0 -1,0.9 v 10.2 l 2,-0.3 v -9.9 a 1,1 0 0 0 -1,-0.9"
               transform="translate(-0.9,-1.1)"
               id="path38892" />
            <path
               d="m 60.6,5.3 h 12.6 v 4.3 h -8 V 18 H 71 v 4.3 h -5.7 v 9.5 h 8 v 4.3 H 60.6 Z"
               transform="translate(-0.9,-1.1)"
               id="path38894" />
            <path
               d="m 82.1,5.3 h 6 l 5.4,30.9 h -4.8 l -1.1,-6.8 h -5 l -1.1,6.8 H 77 Z m 1.2,19.8 H 87 L 85.1,12.8 Z"
               transform="translate(-0.9,-1.1)"
               id="path38896" />
            <path
               d="m 97.8,5.3 h 6.5 c 2.7,0 4.7,0.7 5.9,2.2 1.2,1.5 1.8,3.7 1.8,6.8 a 12.81,12.81 0 0 1 -0.7,4.8 7,7 0 0 1 -2.4,3 l 3.6,14.2 h -4.9 l -2.9,-12.9 h -2.2 v 12.9 h -4.6 v -31 z m 6.1,13.7 a 7.45,7.45 0 0 0 1.8,-0.2 1.42,1.42 0 0 0 0.9,-0.8 11.64,11.64 0 0 0 0.6,-1.5 13.61,13.61 0 0 0 0.2,-2.1 8,8 0 0 0 -0.3,-2.3 3.49,3.49 0 0 0 -0.7,-1.5 1.8,1.8 0 0 0 -0.9,-0.6 6.27,6.27 0 0 0 -1.6,-0.2 h -1.5 v 9.3 h 1.5 z"
               transform="translate(-0.9,-1.1)"
               id="path38898" />
            <path
               d="m 120.7,9.6 h -4.9 V 5.3 h 14.5 v 4.3 h -5 v 26.6 h -4.6 z"
               transform="translate(-0.9,-1.1)"
               id="path38900" />
            <path
               d="m 133.9,5.3 h 4.6 v 12.6 h 5.1 V 5.3 h 4.6 v 30.9 h -4.6 V 22.3 h -5.1 v 13.9 h -4.6 z"
               transform="translate(-0.9,-1.1)"
               id="path38902" />
            <path
               d="m 151.9,31.9 h 1.1 a 2,2 0 0 0 1.9,-1 8.29,8.29 0 0 0 0.5,-3.7 V 5.3 h 4.6 v 21.2 a 22.67,22.67 0 0 1 -0.1,2.8 12.48,12.48 0 0 1 -0.2,2.1 7.49,7.49 0 0 1 -0.4,1.6 13.39,13.39 0 0 1 -0.6,1.2 c -0.9,1.4 -2.4,2 -4.6,2 h -2.2 z"
               transform="translate(-0.9,-1.1)"
               id="path38904" />
            <path
               d="m 165.4,5.3 h 4.6 v 20.3 a 30.29,30.29 0 0 0 0.1,3.4 3.23,3.23 0 0 0 0.3,1.6 2.34,2.34 0 0 0 2.3,1.7 2.3,2.3 0 0 0 2.4,-2.1 33.89,33.89 0 0 0 0.2,-4.6 V 5.3 h 4.6 v 20.8 a 25.32,25.32 0 0 1 -0.1,2.9 q -0.15,1.2 -0.3,2.1 a 4.42,4.42 0 0 1 -0.6,1.6 5.51,5.51 0 0 1 -0.9,1.4 5.78,5.78 0 0 1 -2.3,1.8 7.65,7.65 0 0 1 -3,0.6 8.15,8.15 0 0 1 -3.1,-0.6 6.09,6.09 0 0 1 -2.4,-1.8 5.51,5.51 0 0 1 -0.9,-1.4 c -0.2,-0.5 -0.4,-1 -0.6,-1.6 -0.2,-0.6 -0.2,-1.3 -0.3,-2.1 -0.1,-0.8 -0.1,-1.8 -0.1,-2.9 V 5.3 Z"
               transform="translate(-0.9,-1.1)"
               id="path38906" />
            <path
               d="m 188.6,27.5 q 0.15,4.8 3.3,4.8 a 2.58,2.58 0 0 0 2.1,-0.9 3.74,3.74 0 0 0 0.8,-2.5 5.37,5.37 0 0 0 -1.2,-3.3 c -0.2,-0.2 -0.4,-0.5 -0.5,-0.6 l -0.6,-0.6 -0.9,-0.9 c -0.4,-0.4 -0.9,-0.8 -1.6,-1.4 a 29.38,29.38 0 0 1 -2.5,-2.5 13.8,13.8 0 0 1 -1.6,-2.3 10.2,10.2 0 0 1 -0.9,-2.2 9.86,9.86 0 0 1 -0.3,-2.4 8,8 0 0 1 2,-5.6 A 6.93,6.93 0 0 1 192,5 c 4.1,0 6.4,2.5 7,7.4 l -4.5,0.6 a 6.78,6.78 0 0 0 -0.8,-2.9 2,2 0 0 0 -1.9,-0.8 2.56,2.56 0 0 0 -1.9,0.8 3.23,3.23 0 0 0 -0.7,2.2 7.72,7.72 0 0 0 0.2,1.5 5.34,5.34 0 0 0 0.6,1.4 13.28,13.28 0 0 0 1.2,1.6 c 0.5,0.6 1.2,1.2 2,2 1.2,1.1 2.2,2.1 3,2.9 a 9.4,9.4 0 0 1 1.8,2.4 7.32,7.32 0 0 1 0.9,2.3 10.07,10.07 0 0 1 0.3,2.5 10.73,10.73 0 0 1 -0.5,3.2 8.74,8.74 0 0 1 -1.5,2.5 6.34,6.34 0 0 1 -2.3,1.6 7.31,7.31 0 0 1 -3,0.6 7.79,7.79 0 0 1 -3.1,-0.6 8.07,8.07 0 0 1 -2.4,-1.7 7.6,7.6 0 0 1 -1.6,-2.6 9.34,9.34 0 0 1 -0.6,-3.4 z"
               transform="translate(-0.9,-1.1)"
               id="path38908" />
            <path
               d="m 207.5,9.6 h -4.9 V 5.3 h 14.5 v 4.3 h -5 v 26.6 h -4.6 z"
               transform="translate(-0.9,-1.1)"
               id="path38910" />
            <path
               d="m 220.7,5.3 h 4.6 v 30.9 h -4.6 z"
               transform="translate(-0.9,-1.1)"
               id="path38912" />
            <path
               d="m 230.4,15.6 a 29.12,29.12 0 0 1 0.1,-3.1 7.32,7.32 0 0 1 0.3,-2.2 4.42,4.42 0 0 1 0.6,-1.6 11,11 0 0 1 0.9,-1.4 5.78,5.78 0 0 1 2.3,-1.8 7.79,7.79 0 0 1 3.1,-0.6 7.51,7.51 0 0 1 3.7,0.9 6,6 0 0 1 2.5,2.5 5.36,5.36 0 0 1 0.5,1.1 c 0.1,0.4 0.2,0.7 0.3,1.2 0.1,0.5 0.1,0.9 0.2,1.5 v 3.6 h -4.7 v -2.4 a 7.12,7.12 0 0 0 -0.1,-1.6 3.7,3.7 0 0 0 -0.8,-1.8 2.41,2.41 0 0 0 -1.7,-0.7 2.3,2.3 0 0 0 -2.4,2.1 33.89,33.89 0 0 0 -0.2,4.6 v 9.8 a 30.29,30.29 0 0 0 0.1,3.4 3.23,3.23 0 0 0 0.3,1.6 2.34,2.34 0 0 0 2.3,1.7 2.19,2.19 0 0 0 1.7,-0.7 3.67,3.67 0 0 0 0.8,-1.9 10.36,10.36 0 0 0 0.1,-2 v -2.5 h 4.7 v 3.9 a 6.05,6.05 0 0 1 -0.2,1.5 c -0.1,0.4 -0.2,0.9 -0.3,1.2 a 6.12,6.12 0 0 1 -0.5,1.2 7.19,7.19 0 0 1 -2.5,2.7 7.51,7.51 0 0 1 -3.7,0.9 8.15,8.15 0 0 1 -3.1,-0.6 6.09,6.09 0 0 1 -2.4,-1.8 5.51,5.51 0 0 1 -0.9,-1.4 c -0.2,-0.5 -0.4,-1 -0.6,-1.6 -0.2,-0.6 -0.2,-1.3 -0.3,-2.2 -0.1,-0.9 -0.1,-1.9 -0.1,-3.1 z"
               transform="translate(-0.9,-1.1)"
               id="path38914" />
            <path
               d="m 249.7,5.3 h 12.6 v 4.3 h -8 V 18 h 5.7 v 4.3 h -5.7 v 9.5 h 8 v 4.3 h -12.6 z"
               transform="translate(-0.9,-1.1)"
               id="path38916" />
            <path
               d="m 63.7,48.6 h -3.1 v -6.3 h 3 a 1.58,1.58 0 0 1 1.8,1.6 1.49,1.49 0 0 1 -0.8,1.4 1.43,1.43 0 0 1 1.2,1.5 c 0,1.2 -0.9,1.8 -2.1,1.8 z m -0.4,-3.8 c 0.4,0 0.6,-0.3 0.6,-0.7 a 0.53,0.53 0 0 0 -0.6,-0.6 h -1.1 v 1.3 z m 0.3,1.3 h -1.5 v 1.4 h 1.5 a 0.68,0.68 0 0 0 0.7,-0.7 0.63,0.63 0 0 0 -0.7,-0.7 z"
               transform="translate(-0.9,-1.1)"
               id="path38918" />
            <path
               d="m 66.8,42.3 h 4.6 v 1.3 h -3 v 1.2 h 2.7 v 1.3 h -2.7 v 1.3 h 3 v 1.3 h -4.6 z"
               transform="translate(-0.9,-1.1)"
               id="path38920" />
            <path
               d="m 75,47.5 a 1.24,1.24 0 0 0 1.3,-1.2 h 1.4 A 2.45,2.45 0 0 1 75,48.7 2.68,2.68 0 0 1 72.1,45.8 V 45 a 2.68,2.68 0 0 1 2.9,-2.9 2.51,2.51 0 0 1 2.7,2.4 H 76.3 A 1.18,1.18 0 0 0 75,43.3 c -0.9,0 -1.3,0.6 -1.3,1.5 v 1 c 0,1.1 0.4,1.7 1.3,1.7 z"
               transform="translate(-0.9,-1.1)"
               id="path38922" />
            <path
               d="m 82.2,47.5 h -2.3 l -0.4,1.2 H 78 l 2.3,-6.3 h 1.6 l 2.3,6.3 h -1.5 z m -1.9,-1.3 h 1.5 L 81,43.7 Z"
               transform="translate(-0.9,-1.1)"
               id="path38924" />
            <path
               d="M 88.5,42.3 H 90 v 4 a 2.71,2.71 0 0 1 -5.4,0 v -4 h 1.5 v 4 a 1.1,1.1 0 1 0 2.2,0 v -4 z"
               transform="translate(-0.9,-1.1)"
               id="path38926" />
            <path
               d="m 93.6,48.8 c -1.5,0 -2.5,-0.7 -2.5,-2 v -0.2 h 1.5 v 0.1 c 0,0.5 0.3,0.9 1.1,0.9 0.6,0 1.1,-0.3 1.1,-0.7 a 0.55,0.55 0 0 0 -0.4,-0.6 l -1.6,-0.4 a 1.58,1.58 0 0 1 -1.5,-1.7 c 0,-1.3 0.9,-2 2.4,-2 1.5,0 2.3,0.8 2.3,1.9 v 0.2 h -1.4 v -0.1 c 0,-0.4 -0.2,-0.8 -0.9,-0.8 -0.5,0 -0.9,0.2 -0.9,0.6 a 0.46,0.46 0 0 0 0.4,0.5 l 1.7,0.5 c 1,0.3 1.4,0.8 1.4,1.7 a 2.54,2.54 0 0 1 -2.7,2.1 z"
               transform="translate(-0.9,-1.1)"
               id="path38928" />
            <path
               d="m 97.1,42.3 h 4.6 v 1.3 h -3 v 1.2 h 2.7 v 1.3 h -2.7 v 1.3 h 3 v 1.3 h -4.6 z"
               transform="translate(-0.9,-1.1)"
               id="path38930" />
            <path
               d="m 109,42.3 v 1.3 h -1.7 v 5 h -1.5 v -5 h -1.7 v -1.3 z"
               transform="translate(-0.9,-1.1)"
               id="path38932" />
            <path
               d="m 113.7,48.6 v -2.5 h -2.2 v 2.5 h -1.6 v -6.3 h 1.6 v 2.4 h 2.2 v -2.4 h 1.6 v 6.3 z"
               transform="translate(-0.9,-1.1)"
               id="path38934" />
            <path
               d="m 116.5,42.3 h 4.6 v 1.3 h -3 v 1.2 h 2.7 v 1.3 H 118 v 1.3 h 3 v 1.3 h -4.6 v -6.4 z"
               transform="translate(-0.9,-1.1)"
               id="path38936" />
            <path
               d="m 124.1,42.3 h 4.6 v 1.3 h -3 v 1.2 h 2.7 v 1.3 h -2.7 v 1.3 h 3 v 1.3 h -4.6 z"
               transform="translate(-0.9,-1.1)"
               id="path38938" />
            <path
               d="m 133.5,47.5 h -2.3 l -0.4,1.2 h -1.5 l 2.3,-6.3 h 1.6 l 2.3,6.3 H 134 Z m -1.9,-1.3 h 1.5 l -0.8,-2.5 z"
               transform="translate(-0.9,-1.1)"
               id="path38940" />
            <path
               d="m 138.8,46.8 h -1 v 1.9 h -1.5 v -6.3 h 3 a 2.16,2.16 0 0 1 2.4,2.2 2.1,2.1 0 0 1 -1.2,2 l 1.3,2.1 H 140 Z m 0.2,-3.2 h -1.2 v 2 h 1.2 a 1,1 0 0 0 0,-2 z"
               transform="translate(-0.9,-1.1)"
               id="path38942" />
            <path
               d="m 147,42.3 v 1.3 h -1.7 v 5 h -1.5 v -5 H 142 v -1.3 z"
               transform="translate(-0.9,-1.1)"
               id="path38944" />
            <path
               d="m 151.6,48.6 v -2.5 h -2.2 v 2.5 h -1.6 v -6.3 h 1.6 v 2.4 h 2.2 v -2.4 h 1.5 v 6.3 z"
               transform="translate(-0.9,-1.1)"
               id="path38946" />
            <path
               d="m 160.3,48.6 -2.4,-3.7 v 3.7 h -1.5 v -6.3 h 1.5 l 2.4,3.7 v -3.7 h 1.5 v 6.3 z"
               transform="translate(-0.9,-1.1)"
               id="path38948" />
            <path
               d="m 163,42.3 h 4.6 v 1.3 h -3 v 1.2 h 2.7 v 1.3 h -2.7 v 1.3 h 3 v 1.3 H 163 Z"
               transform="translate(-0.9,-1.1)"
               id="path38950" />
            <path
               d="m 168.6,42.3 h 4.6 v 1.3 h -3 v 1.2 h 2.7 v 1.3 h -2.7 v 1.3 h 3 v 1.3 h -4.6 z"
               transform="translate(-0.9,-1.1)"
               id="path38952" />
            <path
               d="m 177,42.3 a 2.39,2.39 0 0 1 2.6,2.5 v 1.3 a 2.34,2.34 0 0 1 -2.6,2.5 h -2.8 v -6.3 z m 1.1,2.5 c 0,-0.8 -0.4,-1.2 -1.4,-1.2 h -0.9 v 3.8 h 0.9 c 0.9,0 1.4,-0.4 1.4,-1.2 z"
               transform="translate(-0.9,-1.1)"
               id="path38954" />
            <path
               d="m 183.1,48.8 c -1.5,0 -2.5,-0.7 -2.5,-2 v -0.2 h 1.5 v 0.1 c 0,0.5 0.3,0.9 1.1,0.9 0.6,0 1.1,-0.3 1.1,-0.7 a 0.55,0.55 0 0 0 -0.4,-0.6 l -1.6,-0.4 a 1.58,1.58 0 0 1 -1.5,-1.7 c 0,-1.3 0.9,-2 2.4,-2 1.5,0 2.3,0.8 2.3,1.9 v 0.2 h -1.4 v -0.1 c 0,-0.4 -0.2,-0.8 -0.9,-0.8 -0.5,0 -0.9,0.2 -0.9,0.6 a 0.46,0.46 0 0 0 0.4,0.5 l 1.7,0.5 c 1,0.3 1.4,0.8 1.4,1.7 a 2.54,2.54 0 0 1 -2.7,2.1 z"
               transform="translate(-0.9,-1.1)"
               id="path38956" />
            <path
               d="m 192.4,47.5 h -2.3 l -0.4,1.2 h -1.5 l 2.3,-6.3 h 1.6 l 2.3,6.3 h -1.6 z m -1.9,-1.3 h 1.5 l -0.8,-2.5 z"
               transform="translate(-0.9,-1.1)"
               id="path38958" />
            <path
               d="m 200.9,44.5 a 1.06,1.06 0 0 0 -1.2,-1 c -0.9,0 -1.3,0.5 -1.3,1.5 v 1 c 0,0.9 0.4,1.6 1.3,1.6 0.7,0 1.2,-0.4 1.2,-1 h -1.2 v -1.3 h 2.7 v 0.9 a 2.58,2.58 0 0 1 -2.8,2.6 2.62,2.62 0 0 1 -2.8,-2.8 v -0.9 a 2.58,2.58 0 0 1 2.8,-2.8 c 1.7,0 2.7,1 2.7,2.3 h -1.4 z"
               transform="translate(-0.9,-1.1)"
               id="path38960" />
            <path
               d="m 206.3,48.8 a 2.68,2.68 0 0 1 -2.9,-2.9 v -0.8 a 2.73,2.73 0 0 1 2.9,-2.9 2.68,2.68 0 0 1 2.9,2.9 v 0.8 a 2.73,2.73 0 0 1 -2.9,2.9 z m 0,-5.3 c -0.9,0 -1.3,0.6 -1.3,1.5 v 1 c 0,0.9 0.4,1.5 1.3,1.5 0.9,0 1.3,-0.6 1.3,-1.5 v -1 c 0,-0.9 -0.4,-1.5 -1.3,-1.5 z"
               transform="translate(-0.9,-1.1)"
               id="path38962" />
            <path
               d="M 212.9,48.8 A 2.68,2.68 0 0 1 210,45.9 v -0.8 a 2.73,2.73 0 0 1 2.9,-2.9 2.68,2.68 0 0 1 2.9,2.9 v 0.8 a 2.73,2.73 0 0 1 -2.9,2.9 z m 0,-5.3 c -0.9,0 -1.3,0.6 -1.3,1.5 v 1 c 0,0.9 0.4,1.5 1.3,1.5 0.9,0 1.3,-0.6 1.3,-1.5 v -1 a 1.23,1.23 0 0 0 -1.3,-1.5 z"
               transform="translate(-0.9,-1.1)"
               id="path38964" />
            <path
               d="m 219.6,42.3 a 2.39,2.39 0 0 1 2.6,2.5 v 1.3 a 2.34,2.34 0 0 1 -2.6,2.5 h -2.8 v -6.3 z m 1.1,2.5 c 0,-0.8 -0.4,-1.2 -1.4,-1.2 h -0.9 v 3.8 h 0.9 c 0.9,0 1.4,-0.4 1.4,-1.2 z"
               transform="translate(-0.9,-1.1)"
               id="path38966" />
            <path
               d="m 226.9,42.3 v 5 h 2.8 v 1.3 h -4.3 v -6.3 z"
               transform="translate(-0.9,-1.1)"
               id="path38968" />
            <path
               d="m 234.4,47.5 h -2.3 l -0.4,1.2 h -1.5 l 2.3,-6.3 h 1.6 l 2.3,6.3 h -1.6 z m -1.9,-1.3 h 1.5 l -0.8,-2.5 z"
               transform="translate(-0.9,-1.1)"
               id="path38970" />
            <path
               d="m 242.2,46.5 0.8,-4.1 h 1.5 l -1.5,6.3 h -1.4 l -1.2,-4.4 -1.2,4.4 h -1.4 l -1.5,-6.3 h 1.5 l 0.8,4.1 1.2,-4.1 h 1.4 z"
               transform="translate(-0.9,-1.1)"
               id="path38972" />
            <path
               d="m 248.4,46.4 v 2.2 h -1.6 v -2.2 l -2.1,-4.1 h 1.7 l 1.2,2.6 1.2,-2.6 h 1.7 z"
               transform="translate(-0.9,-1.1)"
               id="path38974" />
            <path
               d="m 251.2,42.3 h 4.6 v 1.3 h -3 v 1.2 h 2.8 v 1.3 h -2.8 v 1.3 h 3 v 1.3 h -4.6 z"
               transform="translate(-0.9,-1.1)"
               id="path38976" />
            <path
               d="m 259.4,46.8 h -1 v 1.9 h -1.5 v -6.3 h 3 a 2.16,2.16 0 0 1 2.4,2.2 2.1,2.1 0 0 1 -1.2,2 l 1.3,2.1 h -1.8 z m 0.2,-3.2 h -1.2 v 2 h 1.2 a 0.94,0.94 0 0 0 1,-1 0.9,0.9 0 0 0 -1,-1 z"
               transform="translate(-0.9,-1.1)"
               id="path38978" />
          </g>
          <text
             xml:space="preserve"
             style="font-style:normal;font-variant:normal;font-weight:bold;font-stretch:normal;font-size:4.7625px;font-family:'Roboto Slab';-inkscape-font-specification:'Roboto Slab Bold';letter-spacing:0px;word-spacing:0px;fill:#ffffff;fill-opacity:1;stroke:none;stroke-width:22.0328;stroke-dasharray:66.0986, 66.0986;stroke-dashoffset:0;stroke-opacity:1"
             x="-1294.9545"
             y="960.55176"
             id="text38984"><tspan
               sodipodi:role="line"
               id="tspan38982"
               style="font-style:normal;font-variant:normal;font-weight:bold;font-stretch:normal;font-size:4.7625px;font-family:'Roboto Slab';-inkscape-font-specification:'Roboto Slab Bold';fill:#ffffff;fill-opacity:1;stroke-width:22.0328"
               x="-1294.9545"
               y="960.55176">Earthjustice</tspan></text>
        </g>
      </g>
    </g>
  </g>
</svg>
