<?xml version="1.0" encoding="UTF-8" standalone="no"?>
<!-- Created with Inkscape (http://www.inkscape.org/) -->

<svg
   width="466.52301"
   height="283.159"
   viewBox="0 0 123.43421 74.919151"
   version="1.1"
   id="svg38194"
   sodipodi:docname="charity_amount.svg"
   inkscape:version="1.2 (dc2aeda, 2022-05-15)"
   xmlns:inkscape="http://www.inkscape.org/namespaces/inkscape"
   xmlns:sodipodi="http://sodipodi.sourceforge.net/DTD/sodipodi-0.dtd"
   xmlns="http://www.w3.org/2000/svg"
   xmlns:svg="http://www.w3.org/2000/svg">
  <sodipodi:namedview
     id="namedview161"
     pagecolor="#ffffff"
     bordercolor="#000000"
     borderopacity="0.25"
     inkscape:showpageshadow="2"
     inkscape:pageopacity="0.0"
     inkscape:pagecheckerboard="0"
     inkscape:deskcolor="#d1d1d1"
     showgrid="false"
     inkscape:zoom="0.83345401"
     inkscape:cx="0.59991313"
     inkscape:cy="117.58297"
     inkscape:window-width="1440"
     inkscape:window-height="900"
     inkscape:window-x="0"
     inkscape:window-y="0"
     inkscape:window-maximized="0"
     inkscape:current-layer="svg38194" />
  <defs
     id="defs38191">
    <filter
       style="color-interpolation-filters:sRGB"
       id="filter21294"
       x="-0.046377101"
       y="-0.049740601"
       width="1.0927542"
       height="1.0994812">
      <feGaussianBlur
         stdDeviation="0.46014782"
         id="feGaussianBlur21296" />
    </filter>
    <filter
       style="color-interpolation-filters:sRGB"
       id="filter21284"
       x="-0.046377101"
       y="-0.049740601"
       width="1.0927542"
       height="1.0994812">
      <feGaussianBlur
         stdDeviation="0.46014782"
         id="feGaussianBlur21286" />
    </filter>
  </defs>
  <g
     id="g658">
    <g
       id="g17129"
       transform="matrix(1.1082758,0,0,1.1082758,193.67764,-696.50295)">
      <path
         style="fill:#ff0000;fill-opacity:1;stroke:none;stroke-width:0.729237;stroke-opacity:1"
         d="m -114.50173,694.85965 c -3.18012,-2.42187 -5.01393,-4.16816 -6.54392,-6.23175 -3.29,-4.43719 -4.41854,-8.37634 -3.27527,-11.43178 0.65462,-1.75008 2.24154,-2.93072 4.38761,-3.26478 2.35952,-0.36729 5.32915,0.60315 6.65031,2.17323 l 0.39168,0.46532 0.76798,-0.74019 c 2.09195,-2.01626 5.66838,-2.56097 8.3299,-1.26871 1.66783,0.80996 2.62214,2.32632 2.82402,4.48768 0.35428,3.79462 -2.72093,9.45969 -7.29469,13.43857 -1.35657,1.18004 -4.43013,3.57012 -4.58931,3.56872 -0.043,-6.1e-4 -0.78485,-0.53872 -1.64831,-1.19631 z"
         id="path17125" />
      <path
         style="opacity:0.99;fill:#000000;fill-opacity:0.198653;stroke:none;stroke-width:6.36737;stroke-dashoffset:210.392;stroke-opacity:0.984314"
         d="m -427.93783,2629.7352 c -3.20242,-2.2756 -9.12371,-6.8522 -12.49173,-9.6548 -8.98119,-7.4736 -14.53894,-13.5027 -20.04422,-21.7439 -6.10529,-9.1395 -9.50564,-17.1244 -10.69915,-25.1246 -0.27361,-1.834 -0.27483,-6.7148 -0.002,-8.4147 0.78052,-4.8649 2.42474,-8.4645 5.1657,-11.3091 1.80238,-1.8705 3.44441,-3.0458 5.88945,-4.2157 2.24467,-1.0739 4.81128,-1.8087 7.58731,-2.1721 1.82164,-0.2384 5.84102,-0.1607 7.74648,0.1498 3.79174,0.6179 7.19351,1.7116 10.18716,3.2753 2.77133,1.4476 4.75845,2.9946 6.65027,5.1774 l 1.19563,1.3795 0.008,8.8076 c 0.004,4.8442 0.0498,21.39 0.10146,36.7684 0.0516,15.3785 0.0805,27.9743 0.0641,27.9907 -0.0164,0.016 -0.62746,-0.3948 -1.35786,-0.9138 z"
         id="path17127"
         transform="scale(0.26458333)" />
    </g>
    <g
       id="g21292"
       transform="matrix(1.5849535,0,0,1.5849535,231.21639,-1038.3128)"
       style="fill:#000000;filter:url(#filter21294)">
      <path
         style="fill:#000000;fill-opacity:1;stroke:none;stroke-width:0.729237;stroke-opacity:1"
         d="m -114.50173,694.85965 c -3.18012,-2.42187 -5.01393,-4.16816 -6.54392,-6.23175 -3.29,-4.43719 -4.41854,-8.37634 -3.27527,-11.43178 0.65462,-1.75008 2.24154,-2.93072 4.38761,-3.26478 2.35952,-0.36729 5.32915,0.60315 6.65031,2.17323 l 0.39168,0.46532 0.76798,-0.74019 c 2.09195,-2.01626 5.66838,-2.56097 8.3299,-1.26871 1.66783,0.80996 2.62214,2.32632 2.82402,4.48768 0.35428,3.79462 -2.72093,9.45969 -7.29469,13.43857 -1.35657,1.18004 -4.43013,3.57012 -4.58931,3.56872 -0.043,-6.1e-4 -0.78485,-0.53872 -1.64831,-1.19631 z"
         id="path21288" />
      <path
         style="opacity:0.99;fill:#000000;fill-opacity:0.198653;stroke:none;stroke-width:6.36737;stroke-dashoffset:210.392;stroke-opacity:0.984314"
         d="m -427.93783,2629.7352 c -3.20242,-2.2756 -9.12371,-6.8522 -12.49173,-9.6548 -8.98119,-7.4736 -14.53894,-13.5027 -20.04422,-21.7439 -6.10529,-9.1395 -9.50564,-17.1244 -10.69915,-25.1246 -0.27361,-1.834 -0.27483,-6.7148 -0.002,-8.4147 0.78052,-4.8649 2.42474,-8.4645 5.1657,-11.3091 1.80238,-1.8705 3.44441,-3.0458 5.88945,-4.2157 2.24467,-1.0739 4.81128,-1.8087 7.58731,-2.1721 1.82164,-0.2384 5.84102,-0.1607 7.74648,0.1498 3.79174,0.6179 7.19351,1.7116 10.18716,3.2753 2.77133,1.4476 4.75845,2.9946 6.65027,5.1774 l 1.19563,1.3795 0.008,8.8076 c 0.004,4.8442 0.0498,21.39 0.10146,36.7684 0.0516,15.3785 0.0805,27.9743 0.0641,27.9907 -0.0164,0.016 -0.62746,-0.3948 -1.35786,-0.9138 z"
         id="path21290"
         transform="scale(0.26458333)" />
    </g>
    <g
       id="g17135"
       transform="matrix(1.5849535,0,0,1.5849535,231.21639,-1038.3128)">
      <path
         style="fill:#ff0000;fill-opacity:1;stroke:none;stroke-width:0.729237;stroke-opacity:1"
         d="m -114.50173,694.85965 c -3.18012,-2.42187 -5.01393,-4.16816 -6.54392,-6.23175 -3.29,-4.43719 -4.41854,-8.37634 -3.27527,-11.43178 0.65462,-1.75008 2.24154,-2.93072 4.38761,-3.26478 2.35952,-0.36729 5.32915,0.60315 6.65031,2.17323 l 0.39168,0.46532 0.76798,-0.74019 c 2.09195,-2.01626 5.66838,-2.56097 8.3299,-1.26871 1.66783,0.80996 2.62214,2.32632 2.82402,4.48768 0.35428,3.79462 -2.72093,9.45969 -7.29469,13.43857 -1.35657,1.18004 -4.43013,3.57012 -4.58931,3.56872 -0.043,-6.1e-4 -0.78485,-0.53872 -1.64831,-1.19631 z"
         id="path17131" />
      <path
         style="opacity:0.99;fill:#000000;fill-opacity:0.198653;stroke:none;stroke-width:6.36737;stroke-dashoffset:210.392;stroke-opacity:0.984314"
         d="m -427.93783,2629.7352 c -3.20242,-2.2756 -9.12371,-6.8522 -12.49173,-9.6548 -8.98119,-7.4736 -14.53894,-13.5027 -20.04422,-21.7439 -6.10529,-9.1395 -9.50564,-17.1244 -10.69915,-25.1246 -0.27361,-1.834 -0.27483,-6.7148 -0.002,-8.4147 0.78052,-4.8649 2.42474,-8.4645 5.1657,-11.3091 1.80238,-1.8705 3.44441,-3.0458 5.88945,-4.2157 2.24467,-1.0739 4.81128,-1.8087 7.58731,-2.1721 1.82164,-0.2384 5.84102,-0.1607 7.74648,0.1498 3.79174,0.6179 7.19351,1.7116 10.18716,3.2753 2.77133,1.4476 4.75845,2.9946 6.65027,5.1774 l 1.19563,1.3795 0.008,8.8076 c 0.004,4.8442 0.0498,21.39 0.10146,36.7684 0.0516,15.3785 0.0805,27.9743 0.0641,27.9907 -0.0164,0.016 -0.62746,-0.3948 -1.35786,-0.9138 z"
         id="path17133"
         transform="scale(0.26458333)" />
    </g>
    <g
       id="g21282"
       transform="matrix(2.2642193,0,0,2.2642193,284.97137,-1523.252)"
       style="fill:#000000;filter:url(#filter21284)">
      <path
         style="fill:#000000;fill-opacity:1;stroke:none;stroke-width:0.729237;stroke-opacity:1"
         d="m -114.50173,694.85965 c -3.18012,-2.42187 -5.01393,-4.16816 -6.54392,-6.23175 -3.29,-4.43719 -4.41854,-8.37634 -3.27527,-11.43178 0.65462,-1.75008 2.24154,-2.93072 4.38761,-3.26478 2.35952,-0.36729 5.32915,0.60315 6.65031,2.17323 l 0.39168,0.46532 0.76798,-0.74019 c 2.09195,-2.01626 5.66838,-2.56097 8.3299,-1.26871 1.66783,0.80996 2.62214,2.32632 2.82402,4.48768 0.35428,3.79462 -2.72093,9.45969 -7.29469,13.43857 -1.35657,1.18004 -4.43013,3.57012 -4.58931,3.56872 -0.043,-6.1e-4 -0.78485,-0.53872 -1.64831,-1.19631 z"
         id="path21278" />
      <path
         style="opacity:0.99;fill:#000000;fill-opacity:0.198653;stroke:none;stroke-width:6.36737;stroke-dashoffset:210.392;stroke-opacity:0.984314"
         d="m -427.93783,2629.7352 c -3.20242,-2.2756 -9.12371,-6.8522 -12.49173,-9.6548 -8.98119,-7.4736 -14.53894,-13.5027 -20.04422,-21.7439 -6.10529,-9.1395 -9.50564,-17.1244 -10.69915,-25.1246 -0.27361,-1.834 -0.27483,-6.7148 -0.002,-8.4147 0.78052,-4.8649 2.42474,-8.4645 5.1657,-11.3091 1.80238,-1.8705 3.44441,-3.0458 5.88945,-4.2157 2.24467,-1.0739 4.81128,-1.8087 7.58731,-2.1721 1.82164,-0.2384 5.84102,-0.1607 7.74648,0.1498 3.79174,0.6179 7.19351,1.7116 10.18716,3.2753 2.77133,1.4476 4.75845,2.9946 6.65027,5.1774 l 1.19563,1.3795 0.008,8.8076 c 0.004,4.8442 0.0498,21.39 0.10146,36.7684 0.0516,15.3785 0.0805,27.9743 0.0641,27.9907 -0.0164,0.016 -0.62746,-0.3948 -1.35786,-0.9138 z"
         id="path21280"
         transform="scale(0.26458333)" />
    </g>
    <g
       id="g17141"
       transform="matrix(2.2642193,0,0,2.2642193,284.97137,-1523.252)">
      <path
         style="fill:#ff0000;fill-opacity:1;stroke:none;stroke-width:0.729237;stroke-opacity:1"
         d="m -114.50173,694.85965 c -3.18012,-2.42187 -5.01393,-4.16816 -6.54392,-6.23175 -3.29,-4.43719 -4.41854,-8.37634 -3.27527,-11.43178 0.65462,-1.75008 2.24154,-2.93072 4.38761,-3.26478 2.35952,-0.36729 5.32915,0.60315 6.65031,2.17323 l 0.39168,0.46532 0.76798,-0.74019 c 2.09195,-2.01626 5.66838,-2.56097 8.3299,-1.26871 1.66783,0.80996 2.62214,2.32632 2.82402,4.48768 0.35428,3.79462 -2.72093,9.45969 -7.29469,13.43857 -1.35657,1.18004 -4.43013,3.57012 -4.58931,3.56872 -0.043,-6.1e-4 -0.78485,-0.53872 -1.64831,-1.19631 z"
         id="path17137" />
      <path
         style="opacity:0.99;fill:#000000;fill-opacity:0.198653;stroke:none;stroke-width:6.36737;stroke-dashoffset:210.392;stroke-opacity:0.984314"
         d="m -427.93783,2629.7352 c -3.20242,-2.2756 -9.12371,-6.8522 -12.49173,-9.6548 -8.98119,-7.4736 -14.53894,-13.5027 -20.04422,-21.7439 -6.10529,-9.1395 -9.50564,-17.1244 -10.69915,-25.1246 -0.27361,-1.834 -0.27483,-6.7148 -0.002,-8.4147 0.78052,-4.8649 2.42474,-8.4645 5.1657,-11.3091 1.80238,-1.8705 3.44441,-3.0458 5.88945,-4.2157 2.24467,-1.0739 4.81128,-1.8087 7.58731,-2.1721 1.82164,-0.2384 5.84102,-0.1607 7.74648,0.1498 3.79174,0.6179 7.19351,1.7116 10.18716,3.2753 2.77133,1.4476 4.75845,2.9946 6.65027,5.1774 l 1.19563,1.3795 0.008,8.8076 c 0.004,4.8442 0.0498,21.39 0.10146,36.7684 0.0516,15.3785 0.0805,27.9743 0.0641,27.9907 -0.0164,0.016 -0.62746,-0.3948 -1.35786,-0.9138 z"
         id="path17139"
         transform="scale(0.26458333)" />
    </g>
    <text
       xml:space="preserve"
       style="font-style:normal;font-variant:normal;font-weight:600;font-stretch:normal;font-size:10.5833px;font-family:'Roboto Slab';-inkscape-font-specification:'Roboto Slab Semi-Bold';fill:#ffffff;fill-opacity:1;stroke-width:1.80784"
       x="59.80619"
       y="23.323004"
       id="text17169"><tspan
         style="font-style:normal;font-variant:normal;font-weight:600;font-stretch:normal;font-size:10.5833px;font-family:'Roboto Slab';-inkscape-font-specification:'Roboto Slab Semi-Bold';fill:#ffffff;fill-opacity:1;stroke-width:1.80784"
         x="59.80619"
         y="23.323004"
         id="tspan17167">$1,000,000</tspan></text>
    <text
       xml:space="preserve"
       style="font-style:normal;font-variant:normal;font-weight:600;font-stretch:normal;font-size:10.5833px;font-family:'Roboto Slab';-inkscape-font-specification:'Roboto Slab Semi-Bold';fill:#ffffff;fill-opacity:1;stroke-width:1.80784"
       x="74.712502"
       y="42.512325"
       id="text17177"><tspan
         style="font-style:normal;font-variant:normal;font-weight:600;font-stretch:normal;font-size:10.5833px;font-family:'Roboto Slab';-inkscape-font-specification:'Roboto Slab Semi-Bold';fill:#ffffff;fill-opacity:1;stroke-width:1.80784"
         x="74.712502"
         y="42.512325"
         id="tspan17175">$200,000</tspan></text>
    <text
       xml:space="preserve"
       style="font-style:normal;font-variant:normal;font-weight:600;font-stretch:normal;font-size:10.5833px;font-family:'Roboto Slab';-inkscape-font-specification:'Roboto Slab Semi-Bold';fill:#ffffff;fill-opacity:1;stroke-width:1.80784"
       x="86.232399"
       y="61.701672"
       id="text17185"><tspan
         style="font-style:normal;font-variant:normal;font-weight:600;font-stretch:normal;font-size:10.5833px;font-family:'Roboto Slab';-inkscape-font-specification:'Roboto Slab Semi-Bold';fill:#ffffff;fill-opacity:1;stroke-width:1.80784"
         x="86.232399"
         y="61.701672"
         id="tspan17183">$75,400</tspan></text>
  </g>
</svg>
