<?xml version="1.0" encoding="UTF-8" standalone="no"?>
<!-- Created with Inkscape (http://www.inkscape.org/) -->

<svg
   width="28.469"
   height="28.469999"
   viewBox="0 0 7.5324227 7.5326873"
   version="1.1"
   id="svg76449"
   inkscape:version="1.2 (dc2aeda, 2022-05-15)"
   sodipodi:docname="dots_small.svg"
   xmlns:inkscape="http://www.inkscape.org/namespaces/inkscape"
   xmlns:sodipodi="http://sodipodi.sourceforge.net/DTD/sodipodi-0.dtd"
   xmlns="http://www.w3.org/2000/svg"
   xmlns:svg="http://www.w3.org/2000/svg">
  <sodipodi:namedview
     id="namedview76451"
     pagecolor="#ffffff"
     bordercolor="#000000"
     borderopacity="0.25"
     inkscape:showpageshadow="2"
     inkscape:pageopacity="0.0"
     inkscape:pagecheckerboard="0"
     inkscape:deskcolor="#d1d1d1"
     inkscape:document-units="mm"
     showgrid="false"
     inkscape:zoom="8.8563626"
     inkscape:cx="5.5327455"
     inkscape:cy="26.082943"
     inkscape:window-width="1440"
     inkscape:window-height="900"
     inkscape:window-x="0"
     inkscape:window-y="0"
     inkscape:window-maximized="0"
     inkscape:current-layer="layer1" />
  <defs
     id="defs76446" />
  <g
     inkscape:label="Layer 1"
     inkscape:groupmode="layer"
     id="layer1">
    <path
       id="circle53353"
       style="fill:#00ffa4;fill-opacity:1;stroke:none;stroke-width:0.637924;stroke-dasharray:none;stroke-opacity:1"
       d="M 5.68596,4.1889 A 1.4972671,1.4972671 0 0 0 4.18889,5.68648 1.4972671,1.4972671 0 0 0 4.81779,6.90501 1.4972671,1.4972671 0 0 1 4.53822,6.03529 1.4972671,1.4972671 0 0 1 6.03529,4.53823 1.4972671,1.4972671 0 0 1 6.90501,4.81676 1.4972671,1.4972671 0 0 0 5.68596,4.1889 Z" />
    <path
       id="circle53355"
       style="fill:#00ffa4;fill-opacity:1;stroke:none;stroke-width:0.637924;stroke-dasharray:none;stroke-opacity:1"
       d="M 1.49707,4.1889 A 1.4972671,1.4972671 0 0 0 0,5.68648 1.4972671,1.4972671 0 0 0 0.62839,6.90501 1.4972671,1.4972671 0 0 1 0.34882,6.03529 1.4972671,1.4972671 0 0 1 1.8464,4.53823 1.4972671,1.4972671 0 0 1 2.7156,4.81676 1.4972671,1.4972671 0 0 0 1.49707,4.1889 Z" />
    <path
       id="circle53357"
       style="fill:#00ffa4;fill-opacity:1;stroke:none;stroke-width:0.637924;stroke-dasharray:none;stroke-opacity:1"
       d="M 5.68596,0 A 1.4972671,1.4972671 0 0 0 4.18889,1.49707 1.4972671,1.4972671 0 0 0 4.81728,2.7156 1.4972671,1.4972671 0 0 1 4.53822,1.8464 1.4972671,1.4972671 0 0 1 6.03529,0.34882 1.4972671,1.4972671 0 0 1 6.90501,0.62736 1.4972671,1.4972671 0 0 0 5.68596,0 Z" />
    <circle
       style="fill:#ffffff;fill-opacity:0.7;stroke:none;stroke-width:0.637924;stroke-dasharray:none;stroke-opacity:1"
       id="circle53361"
       cx="6.0352654"
       cy="6.0353661"
       r="1.4972671" />
    <circle
       style="fill:#ffffff;fill-opacity:0.7;stroke:none;stroke-width:0.637924;stroke-dasharray:none;stroke-opacity:1"
       id="circle53363"
       cx="1.8461481"
       cy="6.0353661"
       r="1.4972671" />
    <circle
       style="fill:#ffffff;fill-opacity:0.7;stroke:none;stroke-width:0.637924;stroke-dasharray:none;stroke-opacity:1"
       id="circle53365"
       cx="6.0352654"
       cy="1.8462486"
       r="1.4972671" />
  </g>
</svg>
