<?xml version="1.0" encoding="UTF-8" standalone="no"?>
<!-- Created with Inkscape (http://www.inkscape.org/) -->

<svg
   width="568.60498"
   height="208.616"
   viewBox="0 0 150.4434 55.196315"
   version="1.1"
   id="svg15879"
   xmlns="http://www.w3.org/2000/svg"
   xmlns:svg="http://www.w3.org/2000/svg">
  <defs
     id="defs15876" />
  <g
     id="layer1">
    <g
       id="g16422"
       transform="translate(286.64543,147.15319)">
      <g
         id="g15116"
         transform="matrix(1.7552791,0,0,1.7552791,-63.727755,-1325.6214)"
         style="fill:#0f172a;fill-opacity:1">
        <path
           style="fill:#0f172a;fill-opacity:1;stroke:none;stroke-width:0.729237;stroke-opacity:1"
           d="m -114.50173,694.85965 c -3.18012,-2.42187 -5.01393,-4.16816 -6.54392,-6.23175 -3.29,-4.43719 -4.41854,-8.37634 -3.27527,-11.43178 0.65462,-1.75008 2.24154,-2.93072 4.38761,-3.26478 2.35952,-0.36729 5.32915,0.60315 6.65031,2.17323 l 0.39168,0.46532 0.76798,-0.74019 c 2.09195,-2.01626 5.66838,-2.56097 8.3299,-1.26871 1.66783,0.80996 2.62214,2.32632 2.82402,4.48768 0.35428,3.79462 -2.72093,9.45969 -7.29469,13.43857 -1.35657,1.18004 -4.43013,3.57012 -4.58931,3.56872 -0.043,-6.1e-4 -0.78485,-0.53872 -1.64831,-1.19631 z"
           id="path15112" />
        <path
           style="opacity:0.99;fill:#0f172a;fill-opacity:1;stroke:none;stroke-width:6.36737;stroke-dashoffset:210.392;stroke-opacity:0.984314"
           d="m -427.93783,2629.7352 c -3.20242,-2.2756 -9.12371,-6.8522 -12.49173,-9.6548 -8.98119,-7.4736 -14.53894,-13.5027 -20.04422,-21.7439 -6.10529,-9.1395 -9.50564,-17.1244 -10.69915,-25.1246 -0.27361,-1.834 -0.27483,-6.7148 -0.002,-8.4147 0.78052,-4.8649 2.42474,-8.4645 5.1657,-11.3091 1.80238,-1.8705 3.44441,-3.0458 5.88945,-4.2157 2.24467,-1.0739 4.81128,-1.8087 7.58731,-2.1721 1.82164,-0.2384 5.84102,-0.1607 7.74648,0.1498 3.79174,0.6179 7.19351,1.7116 10.18716,3.2753 2.77133,1.4476 4.75845,2.9946 6.65027,5.1774 l 1.19563,1.3795 0.008,8.8076 c 0.004,4.8442 0.0498,21.39 0.10146,36.7684 0.0516,15.3785 0.0805,27.9743 0.0641,27.9907 -0.0164,0.016 -0.62746,-0.3948 -1.35786,-0.9138 z"
           id="path15114"
           transform="scale(0.26458333)" />
      </g>
      <path
         style="fill:#00c7a4;fill-opacity:1;stroke:#00c7a4;stroke-width:1.28001;stroke-opacity:1"
         d="m -268.00685,-105.39937 c -5.58199,-4.25106 -8.80085,-7.31629 -11.48641,-10.93846 -5.77486,-7.7885 -7.75577,-14.70282 -5.74901,-20.06597 1.14904,-3.07188 3.93454,-5.14423 7.70148,-5.73059 4.14162,-0.6447 9.35415,1.05869 11.67316,3.81462 l 0.68751,0.81677 1.34801,-1.29925 c 3.67196,-3.5391 9.94959,-4.49521 14.6213,-2.22694 2.92751,1.42171 4.60258,4.08335 4.95694,7.87713 0.62186,6.66062 -4.77599,16.60441 -12.80421,23.58844 -2.38116,2.0713 -7.77611,6.26657 -8.05552,6.26411 -0.0755,-0.001 -1.37763,-0.9456 -2.89325,-2.09986 z"
         id="path15118" />
      <path
         style="fill:#0f172a;fill-opacity:1;stroke:#0f172a;stroke-width:0.946111;stroke-opacity:1"
         d="m -188.29767,-96.09882 c -4.12588,-3.14214 -6.50508,-5.40778 -8.49008,-8.08508 -4.26845,-5.7568 -5.73262,-10.86746 -4.24934,-14.83159 0.84931,-2.27055 2.90818,-3.80231 5.69249,-4.23572 3.06124,-0.47652 6.91404,0.78252 8.62812,2.81955 l 0.50816,0.6037 0.99637,-0.96032 c 2.7141,-2.6159 7.35416,-3.3226 10.80722,-1.64602 2.16384,1.05084 3.40196,3.01817 3.66388,5.82231 0.45964,4.92314 -3.53014,12.273 -9.46413,17.4352 -1.76001,1.53098 -5.74765,4.63187 -5.95417,4.63005 -0.0558,-7.6e-4 -1.01826,-0.69893 -2.13852,-1.55208 z"
         id="path15120" />
      <path
         style="fill:#00c7a4;fill-opacity:1;stroke:#ffffff;stroke-width:0.946111;stroke-opacity:1"
         d="m -188.29767,-93.98214 c -4.12588,-3.14214 -6.50508,-5.40778 -8.49008,-8.08508 -4.26845,-5.7568 -5.73262,-10.86746 -4.24934,-14.83159 0.84931,-2.27055 2.90818,-3.80231 5.69249,-4.23572 3.06124,-0.47652 6.91404,0.78252 8.62812,2.81955 l 0.50816,0.6037 0.99637,-0.96032 c 2.7141,-2.6159 7.35416,-3.3226 10.80722,-1.64602 2.16384,1.05084 3.40196,3.01817 3.66388,5.82231 0.45964,4.92314 -3.53014,12.273 -9.46413,17.4352 -1.76001,1.53098 -5.74765,4.63187 -5.95417,4.63005 -0.0558,-7.6e-4 -1.01826,-0.69893 -2.13852,-1.55208 z"
         id="path15122" />
      <g
         id="g15128"
         transform="matrix(1.1568164,0,0,1.1568164,-19.431016,-926.61427)"
         style="fill:#0ab8a5;fill-opacity:1">
        <path
           style="fill:#0ab8a5;fill-opacity:1;stroke:none;stroke-width:0.729237;stroke-opacity:1"
           d="m -114.50173,694.85965 c -3.18012,-2.42187 -5.01393,-4.16816 -6.54392,-6.23175 -3.29,-4.43719 -4.41854,-8.37634 -3.27527,-11.43178 0.65462,-1.75008 2.24154,-2.93072 4.38761,-3.26478 2.35952,-0.36729 5.32915,0.60315 6.65031,2.17323 l 0.39168,0.46532 0.76798,-0.74019 c 2.09195,-2.01626 5.66838,-2.56097 8.3299,-1.26871 1.66783,0.80996 2.62214,2.32632 2.82402,4.48768 0.35428,3.79462 -2.72093,9.45969 -7.29469,13.43857 -1.35657,1.18004 -4.43013,3.57012 -4.58931,3.56872 -0.043,-6.1e-4 -0.78485,-0.53872 -1.64831,-1.19631 z"
           id="path15124" />
        <path
           style="opacity:0.99;fill:#0ab8a5;fill-opacity:1;stroke:none;stroke-width:6.36737;stroke-dashoffset:210.392;stroke-opacity:0.984314"
           d="m -427.93783,2629.7352 c -3.20242,-2.2756 -9.12371,-6.8522 -12.49173,-9.6548 -8.98119,-7.4736 -14.53894,-13.5027 -20.04422,-21.7439 -6.10529,-9.1395 -9.50564,-17.1244 -10.69915,-25.1246 -0.27361,-1.834 -0.27483,-6.7148 -0.002,-8.4147 0.78052,-4.8649 2.42474,-8.4645 5.1657,-11.3091 1.80238,-1.8705 3.44441,-3.0458 5.88945,-4.2157 2.24467,-1.0739 4.81128,-1.8087 7.58731,-2.1721 1.82164,-0.2384 5.84102,-0.1607 7.74648,0.1498 3.79174,0.6179 7.19351,1.7116 10.18716,3.2753 2.77133,1.4476 4.75845,2.9946 6.65027,5.1774 l 1.19563,1.3795 0.008,8.8076 c 0.004,4.8442 0.0498,21.39 0.10146,36.7684 0.0516,15.3785 0.0805,27.9743 0.0641,27.9907 -0.0164,0.016 -0.62746,-0.3948 -1.35786,-0.9138 z"
           id="path15126"
           transform="scale(0.26458333)" />
      </g>
      <path
         style="fill:#00c7a4;fill-opacity:1;stroke:#733dab;stroke-width:0.843593;stroke-opacity:1"
         d="m -154.06112,-122.42714 c -3.6788,-2.80165 -5.8002,-4.8218 -7.57011,-7.20899 -3.80592,-5.13301 -5.11145,-9.68989 -3.78888,-13.22447 0.75727,-2.02452 2.59305,-3.3903 5.07565,-3.77674 2.72953,-0.4249 6.16485,0.69772 7.6932,2.51402 l 0.4531,0.53829 0.8884,-0.85626 c 2.42001,-2.33244 6.55728,-2.96257 9.63617,-1.46767 1.92937,0.93698 3.03333,2.69112 3.26687,5.19142 0.40984,4.38968 -3.14762,10.94313 -8.43862,15.54596 -1.5693,1.36509 -5.12484,4.12998 -5.30898,4.12835 -0.0498,-6.8e-4 -0.90793,-0.62319 -1.9068,-1.38391 z"
         id="path15130" />
    </g>
  </g>
</svg>
