<?xml version="1.0" encoding="UTF-8" standalone="no"?>
<!-- Created with Inkscape (http://www.inkscape.org/) -->

<svg
   width="628.40802"
   height="267.63501"
   viewBox="0 0 166.26629 70.811763"
   version="1.1"
   id="svg17571"
   xmlns="http://www.w3.org/2000/svg"
   xmlns:svg="http://www.w3.org/2000/svg">
  <defs
     id="defs17568" />
  <g
     id="layer1">
    <g
       id="g18144"
       transform="translate(-6.218567,103.36352)">
      <g
         id="g14324"
         transform="matrix(1.2457524,0,0,1.2457524,290.87529,-942.81836)"
         style="fill:#0f172a;fill-opacity:1">
        <path
           style="fill:#0f172a;fill-opacity:1;stroke:none;stroke-width:0.729237;stroke-opacity:1"
           d="m -114.50173,694.85965 c -3.18012,-2.42187 -5.01393,-4.16816 -6.54392,-6.23175 -3.29,-4.43719 -4.41854,-8.37634 -3.27527,-11.43178 0.65462,-1.75008 2.24154,-2.93072 4.38761,-3.26478 2.35952,-0.36729 5.32915,0.60315 6.65031,2.17323 l 0.39168,0.46532 0.76798,-0.74019 c 2.09195,-2.01626 5.66838,-2.56097 8.3299,-1.26871 1.66783,0.80996 2.62214,2.32632 2.82402,4.48768 0.35428,3.79462 -2.72093,9.45969 -7.29469,13.43857 -1.35657,1.18004 -4.43013,3.57012 -4.58931,3.56872 -0.043,-6.1e-4 -0.78485,-0.53872 -1.64831,-1.19631 z"
           id="path14320" />
        <path
           style="opacity:0.99;fill:#0f172a;fill-opacity:1;stroke:none;stroke-width:6.36737;stroke-dashoffset:210.392;stroke-opacity:0.984314"
           d="m -427.93783,2629.7352 c -3.20242,-2.2756 -9.12371,-6.8522 -12.49173,-9.6548 -8.98119,-7.4736 -14.53894,-13.5027 -20.04422,-21.7439 -6.10529,-9.1395 -9.50564,-17.1244 -10.69915,-25.1246 -0.27361,-1.834 -0.27483,-6.7148 -0.002,-8.4147 0.78052,-4.8649 2.42474,-8.4645 5.1657,-11.3091 1.80238,-1.8705 3.44441,-3.0458 5.88945,-4.2157 2.24467,-1.0739 4.81128,-1.8087 7.58731,-2.1721 1.82164,-0.2384 5.84102,-0.1607 7.74648,0.1498 3.79174,0.6179 7.19351,1.7116 10.18716,3.2753 2.77133,1.4476 4.75845,2.9946 6.65027,5.1774 l 1.19563,1.3795 0.008,8.8076 c 0.004,4.8442 0.0498,21.39 0.10146,36.7684 0.0516,15.3785 0.0805,27.9743 0.0641,27.9907 -0.0164,0.016 -0.62746,-0.3948 -1.35786,-0.9138 z"
           id="path14322"
           transform="scale(0.26458333)" />
      </g>
      <path
         style="fill:#ff0000;fill-opacity:1;stroke:#00c7a4;stroke-width:0.908448;stroke-opacity:1"
         d="m 144.30733,-74.68868 c -3.96164,-3.01705 -6.24612,-5.1925 -8.15211,-7.76322 -4.09852,-5.52763 -5.50441,-10.43484 -4.08017,-14.24117 0.81549,-2.18016 2.79241,-3.65094 5.46587,-4.0671 2.93938,-0.45755 6.63881,0.75137 8.28465,2.70731 l 0.48793,0.57967 0.95671,-0.9221 c 2.60606,-2.51176 7.0614,-3.19033 10.377,-1.58049 2.0777,1.00901 3.26654,2.89802 3.51803,5.59053 0.44135,4.72716 -3.3896,11.78444 -9.08738,16.74113 -1.68995,1.47004 -5.51884,4.44749 -5.71714,4.44575 -0.0536,-7.4e-4 -0.97774,-0.67111 -2.05339,-1.49031 z"
         id="path14326" />
      <g
         id="g14340"
         transform="matrix(1.5039381,0,0,1.5039381,250.97849,-1098.6172)"
         style="fill:#0f172a;fill-opacity:1">
        <path
           style="fill:#0f172a;fill-opacity:1;stroke:none;stroke-width:0.729237;stroke-opacity:1"
           d="m -114.50173,694.85965 c -3.18012,-2.42187 -5.01393,-4.16816 -6.54392,-6.23175 -3.29,-4.43719 -4.41854,-8.37634 -3.27527,-11.43178 0.65462,-1.75008 2.24154,-2.93072 4.38761,-3.26478 2.35952,-0.36729 5.32915,0.60315 6.65031,2.17323 l 0.39168,0.46532 0.76798,-0.74019 c 2.09195,-2.01626 5.66838,-2.56097 8.3299,-1.26871 1.66783,0.80996 2.62214,2.32632 2.82402,4.48768 0.35428,3.79462 -2.72093,9.45969 -7.29469,13.43857 -1.35657,1.18004 -4.43013,3.57012 -4.58931,3.56872 -0.043,-6.1e-4 -0.78485,-0.53872 -1.64831,-1.19631 z"
           id="path14336" />
        <path
           style="opacity:0.99;fill:#0f172a;fill-opacity:1;stroke:none;stroke-width:6.36737;stroke-dashoffset:210.392;stroke-opacity:0.984314"
           d="m -427.93783,2629.7352 c -3.20242,-2.2756 -9.12371,-6.8522 -12.49173,-9.6548 -8.98119,-7.4736 -14.53894,-13.5027 -20.04422,-21.7439 -6.10529,-9.1395 -9.50564,-17.1244 -10.69915,-25.1246 -0.27361,-1.834 -0.27483,-6.7148 -0.002,-8.4147 0.78052,-4.8649 2.42474,-8.4645 5.1657,-11.3091 1.80238,-1.8705 3.44441,-3.0458 5.88945,-4.2157 2.24467,-1.0739 4.81128,-1.8087 7.58731,-2.1721 1.82164,-0.2384 5.84102,-0.1607 7.74648,0.1498 3.79174,0.6179 7.19351,1.7116 10.18716,3.2753 2.77133,1.4476 4.75845,2.9946 6.65027,5.1774 l 1.19563,1.3795 0.008,8.8076 c 0.004,4.8442 0.0498,21.39 0.10146,36.7684 0.0516,15.3785 0.0805,27.9743 0.0641,27.9907 -0.0164,0.016 -0.62746,-0.3948 -1.35786,-0.9138 z"
           id="path14338"
           transform="scale(0.26458333)" />
      </g>
      <path
         style="fill:#00c7a4;fill-opacity:1;stroke:#00c7a4;stroke-width:1.09672;stroke-opacity:1"
         d="m 77.00876,-52.06217 c -4.7827,-3.64235 -7.54065,-6.26867 -9.84165,-9.37217 -4.94796,-6.67326 -6.64521,-12.5975 -4.9258,-17.19269 0.9845,-2.63202 3.37114,-4.40762 6.59869,-4.91003 3.54857,-0.55238 8.01471,0.9071 10.00165,3.26841 l 0.58907,0.69981 1.15498,-1.1132 c 3.14617,-3.03233 8.5249,-3.85155 12.52766,-1.90807 2.50832,1.21814 3.94354,3.49865 4.24715,6.74919 0.53282,5.70688 -4.09211,14.2268 -10.97076,20.21078 -2.0402,1.77471 -6.66264,5.36925 -6.90203,5.36714 -0.0647,-7.4e-4 -1.18037,-0.8102 -2.47896,-1.79917 z"
         id="path14342" />
      <g
         id="g14360"
         transform="matrix(0.88954055,0,0,0.88954055,262.27655,-652.60648)"
         style="fill:#0f172a;fill-opacity:1">
        <path
           style="fill:#0f172a;fill-opacity:1;stroke:none;stroke-width:0.729237;stroke-opacity:1"
           d="m -114.50173,694.85965 c -3.18012,-2.42187 -5.01393,-4.16816 -6.54392,-6.23175 -3.29,-4.43719 -4.41854,-8.37634 -3.27527,-11.43178 0.65462,-1.75008 2.24154,-2.93072 4.38761,-3.26478 2.35952,-0.36729 5.32915,0.60315 6.65031,2.17323 l 0.39168,0.46532 0.76798,-0.74019 c 2.09195,-2.01626 5.66838,-2.56097 8.3299,-1.26871 1.66783,0.80996 2.62214,2.32632 2.82402,4.48768 0.35428,3.79462 -2.72093,9.45969 -7.29469,13.43857 -1.35657,1.18004 -4.43013,3.57012 -4.58931,3.56872 -0.043,-6.1e-4 -0.78485,-0.53872 -1.64831,-1.19631 z"
           id="path14356" />
        <path
           style="opacity:0.99;fill:#0f172a;fill-opacity:1;stroke:none;stroke-width:6.36737;stroke-dashoffset:210.392;stroke-opacity:0.984314"
           d="m -427.93783,2629.7352 c -3.20242,-2.2756 -9.12371,-6.8522 -12.49173,-9.6548 -8.98119,-7.4736 -14.53894,-13.5027 -20.04422,-21.7439 -6.10529,-9.1395 -9.50564,-17.1244 -10.69915,-25.1246 -0.27361,-1.834 -0.27483,-6.7148 -0.002,-8.4147 0.78052,-4.8649 2.42474,-8.4645 5.1657,-11.3091 1.80238,-1.8705 3.44441,-3.0458 5.88945,-4.2157 2.24467,-1.0739 4.81128,-1.8087 7.58731,-2.1721 1.82164,-0.2384 5.84102,-0.1607 7.74648,0.1498 3.79174,0.6179 7.19351,1.7116 10.18716,3.2753 2.77133,1.4476 4.75845,2.9946 6.65027,5.1774 l 1.19563,1.3795 0.008,8.8076 c 0.004,4.8442 0.0498,21.39 0.10146,36.7684 0.0516,15.3785 0.0805,27.9743 0.0641,27.9907 -0.0164,0.016 -0.62746,-0.3948 -1.35786,-0.9138 z"
           id="path14358"
           transform="scale(0.26458333)" />
      </g>
      <path
         style="fill:#00c7a4;fill-opacity:1;stroke:#ffffff;stroke-width:0.648686;stroke-opacity:1"
         d="m 158.75197,-34.22222 c -2.82883,-2.15435 -4.46009,-3.70775 -5.82108,-5.5434 -2.92658,-3.94705 -3.93047,-7.45109 -2.91348,-10.16903 0.58231,-1.55677 1.99394,-2.60699 3.90295,-2.90415 2.09889,-0.32672 4.7405,0.53652 5.91573,1.93318 l 0.34841,0.41392 0.68315,-0.65843 c 1.86088,-1.79355 5.04225,-2.27809 7.40978,-1.12857 1.48361,0.72049 2.3325,2.06935 2.51208,3.99197 0.31515,3.37547 -2.42037,8.41478 -6.48891,11.95416 -1.20673,1.04969 -3.94078,3.17577 -4.08238,3.17452 -0.0383,-5.3e-4 -0.69816,-0.47922 -1.46625,-1.06417 z"
         id="path14362" />
      <g
         id="g14368"
         transform="matrix(1.1848346,0,0,1.1848346,154.03166,-859.12417)"
         style="fill:#0f172a;fill-opacity:1">
        <path
           style="fill:#0f172a;fill-opacity:1;stroke:none;stroke-width:0.729237;stroke-opacity:1"
           d="m -114.50173,694.85965 c -3.18012,-2.42187 -5.01393,-4.16816 -6.54392,-6.23175 -3.29,-4.43719 -4.41854,-8.37634 -3.27527,-11.43178 0.65462,-1.75008 2.24154,-2.93072 4.38761,-3.26478 2.35952,-0.36729 5.32915,0.60315 6.65031,2.17323 l 0.39168,0.46532 0.76798,-0.74019 c 2.09195,-2.01626 5.66838,-2.56097 8.3299,-1.26871 1.66783,0.80996 2.62214,2.32632 2.82402,4.48768 0.35428,3.79462 -2.72093,9.45969 -7.29469,13.43857 -1.35657,1.18004 -4.43013,3.57012 -4.58931,3.56872 -0.043,-6.1e-4 -0.78485,-0.53872 -1.64831,-1.19631 z"
           id="path14364" />
        <path
           style="opacity:0.99;fill:#0f172a;fill-opacity:1;stroke:none;stroke-width:6.36737;stroke-dashoffset:210.392;stroke-opacity:0.984314"
           d="m -427.93783,2629.7352 c -3.20242,-2.2756 -9.12371,-6.8522 -12.49173,-9.6548 -8.98119,-7.4736 -14.53894,-13.5027 -20.04422,-21.7439 -6.10529,-9.1395 -9.50564,-17.1244 -10.69915,-25.1246 -0.27361,-1.834 -0.27483,-6.7148 -0.002,-8.4147 0.78052,-4.8649 2.42474,-8.4645 5.1657,-11.3091 1.80238,-1.8705 3.44441,-3.0458 5.88945,-4.2157 2.24467,-1.0739 4.81128,-1.8087 7.58731,-2.1721 1.82164,-0.2384 5.84102,-0.1607 7.74648,0.1498 3.79174,0.6179 7.19351,1.7116 10.18716,3.2753 2.77133,1.4476 4.75845,2.9946 6.65027,5.1774 l 1.19563,1.3795 0.008,8.8076 c 0.004,4.8442 0.0498,21.39 0.10146,36.7684 0.0516,15.3785 0.0805,27.9743 0.0641,27.9907 -0.0164,0.016 -0.62746,-0.3948 -1.35786,-0.9138 z"
           id="path14366"
           transform="scale(0.26458333)" />
      </g>
      <path
         style="fill:#00c7a4;fill-opacity:1;stroke:#00c7a4;stroke-width:0.864022;stroke-opacity:1"
         d="m 21.4325,-34.4012 c -3.76791,-2.86951 -5.94068,-4.93858 -7.75346,-7.38359 -3.8981,-5.25733 -5.23524,-9.92458 -3.88065,-13.54477 0.77561,-2.07356 2.65586,-3.47242 5.19859,-3.86822 2.79564,-0.43518 6.31416,0.71463 7.87952,2.57492 l 0.46408,0.55133 0.90992,-0.87701 c 2.47862,-2.38894 6.7161,-3.03433 9.86956,-1.50322 1.9761,0.95968 3.1068,2.75632 3.34599,5.31716 0.41977,4.496 -3.22385,11.20818 -8.64299,15.92248 -1.60731,1.39816 -5.24897,4.23002 -5.43758,4.22835 -0.051,-6.7e-4 -0.92991,-0.63829 -1.95298,-1.41743 z"
         id="path14370" />
    </g>
  </g>
</svg>
