<?xml version="1.0" encoding="UTF-8" standalone="no"?>
<!-- Created with Inkscape (http://www.inkscape.org/) -->

<svg
   width="90"
   height="83.914001"
   viewBox="0 0 23.812499 22.202246"
   version="1.1"
   id="svg3942"
   inkscape:version="1.2 (dc2aeda, 2022-05-15)"
   sodipodi:docname="logo.svg"
   xmlns:inkscape="http://www.inkscape.org/namespaces/inkscape"
   xmlns:sodipodi="http://sodipodi.sourceforge.net/DTD/sodipodi-0.dtd"
   xmlns="http://www.w3.org/2000/svg"
   xmlns:svg="http://www.w3.org/2000/svg">
  <sodipodi:namedview
     id="namedview3944"
     pagecolor="#ffffff"
     bordercolor="#000000"
     borderopacity="0.25"
     inkscape:showpageshadow="2"
     inkscape:pageopacity="0.0"
     inkscape:pagecheckerboard="0"
     inkscape:deskcolor="#d1d1d1"
     inkscape:document-units="mm"
     showgrid="false"
     inkscape:zoom="2.784408"
     inkscape:cx="41.840132"
     inkscape:cy="77.215695"
     inkscape:window-width="2560"
     inkscape:window-height="1412"
     inkscape:window-x="0"
     inkscape:window-y="28"
     inkscape:window-maximized="0"
     inkscape:current-layer="layer1" />
  <defs
     id="defs3939">
    <clipPath
       clipPathUnits="userSpaceOnUse"
       id="clipPath5352">
      <path
         style="fill:#ff0000;fill-opacity:1;stroke:none;stroke-width:0.729237;stroke-opacity:1"
         d="m -66.632823,694.2214 c -3.180119,-2.42187 -5.013928,-4.16817 -6.543918,-6.23176 -3.290001,-4.43717 -4.418542,-8.37634 -3.275272,-11.43177 0.654622,-1.75009 2.241542,-2.93071 4.387612,-3.26478 2.35952,-0.36729 5.32915,0.60315 6.65031,2.17324 l 0.391679,0.46532 0.767979,-0.7402 c 2.091952,-2.01626 5.668381,-2.56098 8.329901,-1.2687 1.66783,0.80994 2.62214,2.32632 2.82402,4.48768 0.354279,3.7946 -2.72093,9.45967 -7.29469,13.43855 -1.356569,1.18005 -4.43013,3.57013 -4.589309,3.56873 -0.043,0 -0.784852,-0.53872 -1.648312,-1.19631 z"
         id="path5354" />
    </clipPath>
    <clipPath
       clipPathUnits="userSpaceOnUse"
       id="clipPath5348">
      <path
         style="fill:#ff0000;fill-opacity:1;stroke:none;stroke-width:0.729237;stroke-opacity:1"
         d="m -66.632823,694.2214 c -3.180119,-2.42187 -5.013928,-4.16817 -6.543918,-6.23176 -3.290001,-4.43717 -4.418542,-8.37634 -3.275272,-11.43177 0.654622,-1.75009 2.241542,-2.93071 4.387612,-3.26478 2.35952,-0.36729 5.32915,0.60315 6.65031,2.17324 l 0.391679,0.46532 0.767979,-0.7402 c 2.091952,-2.01626 5.668381,-2.56098 8.329901,-1.2687 1.66783,0.80994 2.62214,2.32632 2.82402,4.48768 0.354279,3.7946 -2.72093,9.45967 -7.29469,13.43855 -1.356569,1.18005 -4.43013,3.57013 -4.589309,3.56873 -0.043,0 -0.784852,-0.53872 -1.648312,-1.19631 z"
         id="path5350" />
    </clipPath>
    <clipPath
       clipPathUnits="userSpaceOnUse"
       id="clipPath5352-3">
      <path
         style="fill:#ff0000;fill-opacity:1;stroke:none;stroke-width:0.729237;stroke-opacity:1"
         d="m -66.632823,694.2214 c -3.180119,-2.42187 -5.013928,-4.16817 -6.543918,-6.23176 -3.290001,-4.43717 -4.418542,-8.37634 -3.275272,-11.43177 0.654622,-1.75009 2.241542,-2.93071 4.387612,-3.26478 2.35952,-0.36729 5.32915,0.60315 6.65031,2.17324 l 0.391679,0.46532 0.767979,-0.7402 c 2.091952,-2.01626 5.668381,-2.56098 8.329901,-1.2687 1.66783,0.80994 2.62214,2.32632 2.82402,4.48768 0.354279,3.7946 -2.72093,9.45967 -7.29469,13.43855 -1.356569,1.18005 -4.43013,3.57013 -4.589309,3.56873 -0.043,0 -0.784852,-0.53872 -1.648312,-1.19631 z"
         id="path5354-8" />
    </clipPath>
    <clipPath
       clipPathUnits="userSpaceOnUse"
       id="clipPath5348-0">
      <path
         style="fill:#ff0000;fill-opacity:1;stroke:none;stroke-width:0.729237;stroke-opacity:1"
         d="m -66.632823,694.2214 c -3.180119,-2.42187 -5.013928,-4.16817 -6.543918,-6.23176 -3.290001,-4.43717 -4.418542,-8.37634 -3.275272,-11.43177 0.654622,-1.75009 2.241542,-2.93071 4.387612,-3.26478 2.35952,-0.36729 5.32915,0.60315 6.65031,2.17324 l 0.391679,0.46532 0.767979,-0.7402 c 2.091952,-2.01626 5.668381,-2.56098 8.329901,-1.2687 1.66783,0.80994 2.62214,2.32632 2.82402,4.48768 0.354279,3.7946 -2.72093,9.45967 -7.29469,13.43855 -1.356569,1.18005 -4.43013,3.57013 -4.589309,3.56873 -0.043,0 -0.784852,-0.53872 -1.648312,-1.19631 z"
         id="path5350-2" />
    </clipPath>
  </defs>
  <g
     inkscape:label="Layer 1"
     inkscape:groupmode="layer"
     id="layer1">
    <g
       id="g4202"
       transform="translate(124.7542,-673.85368)">
      <path
         style="fill:#ff0000;fill-opacity:1;stroke:none;stroke-width:0.729237;stroke-opacity:1"
         d="m -114.50173,694.85965 c -3.18012,-2.42187 -5.01393,-4.16816 -6.54392,-6.23175 -3.29,-4.43719 -4.41854,-8.37634 -3.27527,-11.43178 0.65462,-1.75008 2.24154,-2.93072 4.38761,-3.26478 2.35952,-0.36729 5.32915,0.60315 6.65031,2.17323 l 0.39168,0.46532 0.76798,-0.74019 c 2.09195,-2.01626 5.66838,-2.56097 8.3299,-1.26871 1.66783,0.80996 2.62214,2.32632 2.82402,4.48768 0.35428,3.79462 -2.72093,9.45969 -7.29469,13.43857 -1.35657,1.18004 -4.43013,3.57012 -4.58931,3.56872 -0.043,-6.1e-4 -0.78485,-0.53872 -1.64831,-1.19631 z"
         id="path18688-8" />
      <path
         style="opacity:0.99;fill:#000000;fill-opacity:0.198653;stroke:none;stroke-width:6.36737;stroke-dashoffset:210.392;stroke-opacity:0.984314"
         d="m -427.93783,2629.7352 c -3.20242,-2.2756 -9.12371,-6.8522 -12.49173,-9.6548 -8.98119,-7.4736 -14.53894,-13.5027 -20.04422,-21.7439 -6.10529,-9.1395 -9.50564,-17.1244 -10.69915,-25.1246 -0.27361,-1.834 -0.27483,-6.7148 -0.002,-8.4147 0.78052,-4.8649 2.42474,-8.4645 5.1657,-11.3091 1.80238,-1.8705 3.44441,-3.0458 5.88945,-4.2157 2.24467,-1.0739 4.81128,-1.8087 7.58731,-2.1721 1.82164,-0.2384 5.84102,-0.1607 7.74648,0.1498 3.79174,0.6179 7.19351,1.7116 10.18716,3.2753 2.77133,1.4476 4.75845,2.9946 6.65027,5.1774 l 1.19563,1.3795 0.008,8.8076 c 0.004,4.8442 0.0498,21.39 0.10146,36.7684 0.0516,15.3785 0.0805,27.9743 0.0641,27.9907 -0.0164,0.016 -0.62746,-0.3948 -1.35786,-0.9138 z"
         id="path29244"
         transform="scale(0.26458333)" />
    </g>
  </g>
</svg>
