<?xml version="1.0" encoding="UTF-8" standalone="no"?>
<!-- Created with Inkscape (http://www.inkscape.org/) -->

<svg
   width="91.661003"
   height="83.914001"
   viewBox="0 0 24.251973 22.202246"
   version="1.1"
   id="svg3942"
   inkscape:version="1.2 (dc2aeda, 2022-05-15)"
   sodipodi:docname="menu-logo.svg"
   xmlns:inkscape="http://www.inkscape.org/namespaces/inkscape"
   xmlns:sodipodi="http://sodipodi.sourceforge.net/DTD/sodipodi-0.dtd"
   xmlns="http://www.w3.org/2000/svg"
   xmlns:svg="http://www.w3.org/2000/svg">
  <sodipodi:namedview
     id="namedview3944"
     pagecolor="#ffffff"
     bordercolor="#000000"
     borderopacity="0.25"
     inkscape:showpageshadow="2"
     inkscape:pageopacity="0.0"
     inkscape:pagecheckerboard="0"
     inkscape:deskcolor="#d1d1d1"
     inkscape:document-units="mm"
     showgrid="false"
     inkscape:zoom="6.1786482"
     inkscape:cx="24.681774"
     inkscape:cy="69.918207"
     inkscape:window-width="2560"
     inkscape:window-height="1412"
     inkscape:window-x="0"
     inkscape:window-y="28"
     inkscape:window-maximized="0"
     inkscape:current-layer="layer1" />
  <defs
     id="defs3939">
    <clipPath
       clipPathUnits="userSpaceOnUse"
       id="clipPath5352">
      <path
         style="fill:#ff0000;fill-opacity:1;stroke:none;stroke-width:0.729237;stroke-opacity:1"
         d="m -66.632823,694.2214 c -3.180119,-2.42187 -5.013928,-4.16817 -6.543918,-6.23176 -3.290001,-4.43717 -4.418542,-8.37634 -3.275272,-11.43177 0.654622,-1.75009 2.241542,-2.93071 4.387612,-3.26478 2.35952,-0.36729 5.32915,0.60315 6.65031,2.17324 l 0.391679,0.46532 0.767979,-0.7402 c 2.091952,-2.01626 5.668381,-2.56098 8.329901,-1.2687 1.66783,0.80994 2.62214,2.32632 2.82402,4.48768 0.354279,3.7946 -2.72093,9.45967 -7.29469,13.43855 -1.356569,1.18005 -4.43013,3.57013 -4.589309,3.56873 -0.043,0 -0.784852,-0.53872 -1.648312,-1.19631 z"
         id="path5354" />
    </clipPath>
    <clipPath
       clipPathUnits="userSpaceOnUse"
       id="clipPath5348">
      <path
         style="fill:#ff0000;fill-opacity:1;stroke:none;stroke-width:0.729237;stroke-opacity:1"
         d="m -66.632823,694.2214 c -3.180119,-2.42187 -5.013928,-4.16817 -6.543918,-6.23176 -3.290001,-4.43717 -4.418542,-8.37634 -3.275272,-11.43177 0.654622,-1.75009 2.241542,-2.93071 4.387612,-3.26478 2.35952,-0.36729 5.32915,0.60315 6.65031,2.17324 l 0.391679,0.46532 0.767979,-0.7402 c 2.091952,-2.01626 5.668381,-2.56098 8.329901,-1.2687 1.66783,0.80994 2.62214,2.32632 2.82402,4.48768 0.354279,3.7946 -2.72093,9.45967 -7.29469,13.43855 -1.356569,1.18005 -4.43013,3.57013 -4.589309,3.56873 -0.043,0 -0.784852,-0.53872 -1.648312,-1.19631 z"
         id="path5350" />
    </clipPath>
    <clipPath
       clipPathUnits="userSpaceOnUse"
       id="clipPath5352-3">
      <path
         style="fill:#ff0000;fill-opacity:1;stroke:none;stroke-width:0.729237;stroke-opacity:1"
         d="m -66.632823,694.2214 c -3.180119,-2.42187 -5.013928,-4.16817 -6.543918,-6.23176 -3.290001,-4.43717 -4.418542,-8.37634 -3.275272,-11.43177 0.654622,-1.75009 2.241542,-2.93071 4.387612,-3.26478 2.35952,-0.36729 5.32915,0.60315 6.65031,2.17324 l 0.391679,0.46532 0.767979,-0.7402 c 2.091952,-2.01626 5.668381,-2.56098 8.329901,-1.2687 1.66783,0.80994 2.62214,2.32632 2.82402,4.48768 0.354279,3.7946 -2.72093,9.45967 -7.29469,13.43855 -1.356569,1.18005 -4.43013,3.57013 -4.589309,3.56873 -0.043,0 -0.784852,-0.53872 -1.648312,-1.19631 z"
         id="path5354-8" />
    </clipPath>
    <clipPath
       clipPathUnits="userSpaceOnUse"
       id="clipPath5348-0">
      <path
         style="fill:#ff0000;fill-opacity:1;stroke:none;stroke-width:0.729237;stroke-opacity:1"
         d="m -66.632823,694.2214 c -3.180119,-2.42187 -5.013928,-4.16817 -6.543918,-6.23176 -3.290001,-4.43717 -4.418542,-8.37634 -3.275272,-11.43177 0.654622,-1.75009 2.241542,-2.93071 4.387612,-3.26478 2.35952,-0.36729 5.32915,0.60315 6.65031,2.17324 l 0.391679,0.46532 0.767979,-0.7402 c 2.091952,-2.01626 5.668381,-2.56098 8.329901,-1.2687 1.66783,0.80994 2.62214,2.32632 2.82402,4.48768 0.354279,3.7946 -2.72093,9.45967 -7.29469,13.43855 -1.356569,1.18005 -4.43013,3.57013 -4.589309,3.56873 -0.043,0 -0.784852,-0.53872 -1.648312,-1.19631 z"
         id="path5350-2" />
    </clipPath>
  </defs>
  <g
     inkscape:label="Layer 1"
     inkscape:groupmode="layer"
     id="layer1">
    <path
       id="path5358"
       style="fill:#ff0000;fill-opacity:1;stroke:none;stroke-width:0.729237;stroke-opacity:1"
       d="M 6.1825684 0.00051676432 C 5.7927193 -0.0045974207 5.4091934 0.020125701 5.0405192 0.077514648 C 2.8944536 0.41157398 1.3078087 1.5923552 0.6531901 3.3424316 C 0.55285204 3.6105896 0.47055841 3.8856766 0.40514323 4.1671875 L 23.840405 4.1671875 C 23.46386 2.5474336 22.570042 1.3822054 21.180619 0.70745036 C 18.519105 -0.58480706 14.942324 -0.040149226 12.850378 1.9761068 L 12.082467 2.7161133 L 11.690759 2.2510254 C 10.576033 0.92627304 8.2877527 0.028133363 6.1825684 0.00051676432 z M 0.77669678 9.0175374 C 1.2100247 10.334454 1.8958704 11.728695 2.8292847 13.184725 L 21.412646 13.184725 C 22.303862 11.786397 22.999232 10.367363 23.448181 9.0175374 L 0.77669678 9.0175374 z M 6.8802002 18.035075 C 7.865998 18.948334 9.0296251 19.907315 10.472229 21.005953 C 11.335687 21.663541 12.077707 22.201652 12.120707 22.202262 C 12.279887 22.203662 15.353525 19.813526 16.710091 18.633488 C 16.934745 18.438053 17.155409 18.23822 17.372583 18.035075 L 6.8802002 18.035075 z " />
    <path
       id="path5360"
       style="opacity:0.99;fill:#000000;fill-opacity:0.198653;stroke:none;stroke-width:1.6847;stroke-dashoffset:210.392;stroke-opacity:0.984314"
       d="M 5.9686279 0.029972331 C 5.6845036 0.031264906 5.4222826 0.043000144 5.2415405 0.066662598 C 4.5070521 0.1628124 3.8278099 0.3571651 3.2339111 0.64130452 C 2.5869925 0.95083392 2.1527457 1.2615829 1.6758667 1.7564819 C 1.0645981 2.3908621 0.66013734 3.1681306 0.42426351 4.1671875 L 12.063863 4.1671875 L 12.062313 2.7078451 L 11.746053 2.3424927 C 11.245505 1.7649539 10.719709 1.3555597 9.9864705 0.97255046 C 9.1944021 0.55882128 8.2942558 0.26994313 7.2910278 0.10645345 C 6.9759347 0.055141054 6.4421686 0.027818038 5.9686279 0.029972331 z M 0.79788411 9.0175374 C 1.2330826 10.345534 1.9082358 11.710526 2.8540894 13.184725 L 12.086601 13.184725 C 12.082044 11.74706 12.077179 10.27402 12.073682 9.0175374 L 0.79788411 9.0175374 z M 6.9101725 18.035075 C 7.3795547 18.46953 7.8857628 18.912038 8.4434123 19.376078 C 9.3345305 20.117608 10.901339 21.328366 11.748637 21.930444 C 11.941887 22.067764 12.103788 22.17629 12.107788 22.17229 C 12.110744 22.169307 12.106821 20.341168 12.100553 18.035075 L 6.9101725 18.035075 z " />
  </g>
</svg>
