<?xml version="1.0" encoding="UTF-8" standalone="no"?>
<!-- Created with Inkscape (http://www.inkscape.org/) -->

<svg
   width="91.661003"
   height="83.914001"
   viewBox="0 0 24.251973 22.202246"
   version="1.1"
   id="svg3942"
   inkscape:version="1.2 (dc2aeda, 2022-05-15)"
   sodipodi:docname="menu-logo.svg"
   xmlns:inkscape="http://www.inkscape.org/namespaces/inkscape"
   xmlns:sodipodi="http://sodipodi.sourceforge.net/DTD/sodipodi-0.dtd"
   xmlns="http://www.w3.org/2000/svg"
   xmlns:svg="http://www.w3.org/2000/svg">
  <sodipodi:namedview
     id="namedview3944"
     pagecolor="#ffffff"
     bordercolor="#000000"
     borderopacity="0.25"
     inkscape:showpageshadow="2"
     inkscape:pageopacity="0.0"
     inkscape:pagecheckerboard="0"
     inkscape:deskcolor="#d1d1d1"
     inkscape:document-units="mm"
     showgrid="false"
     inkscape:zoom="7.2838781"
     inkscape:cx="-9.5416205"
     inkscape:cy="55.19038"
     inkscape:window-width="2560"
     inkscape:window-height="1412"
     inkscape:window-x="0"
     inkscape:window-y="28"
     inkscape:window-maximized="0"
     inkscape:current-layer="layer1" />
  <defs
     id="defs3939">
    <clipPath
       clipPathUnits="userSpaceOnUse"
       id="clipPath5352">
      <path
         style="fill:#ff0000;fill-opacity:1;stroke:none;stroke-width:0.729237;stroke-opacity:1"
         d="m -66.632823,694.2214 c -3.180119,-2.42187 -5.013928,-4.16817 -6.543918,-6.23176 -3.290001,-4.43717 -4.418542,-8.37634 -3.275272,-11.43177 0.654622,-1.75009 2.241542,-2.93071 4.387612,-3.26478 2.35952,-0.36729 5.32915,0.60315 6.65031,2.17324 l 0.391679,0.46532 0.767979,-0.7402 c 2.091952,-2.01626 5.668381,-2.56098 8.329901,-1.2687 1.66783,0.80994 2.62214,2.32632 2.82402,4.48768 0.354279,3.7946 -2.72093,9.45967 -7.29469,13.43855 -1.356569,1.18005 -4.43013,3.57013 -4.589309,3.56873 -0.043,0 -0.784852,-0.53872 -1.648312,-1.19631 z"
         id="path5354" />
    </clipPath>
    <clipPath
       clipPathUnits="userSpaceOnUse"
       id="clipPath5348">
      <path
         style="fill:#ff0000;fill-opacity:1;stroke:none;stroke-width:0.729237;stroke-opacity:1"
         d="m -66.632823,694.2214 c -3.180119,-2.42187 -5.013928,-4.16817 -6.543918,-6.23176 -3.290001,-4.43717 -4.418542,-8.37634 -3.275272,-11.43177 0.654622,-1.75009 2.241542,-2.93071 4.387612,-3.26478 2.35952,-0.36729 5.32915,0.60315 6.65031,2.17324 l 0.391679,0.46532 0.767979,-0.7402 c 2.091952,-2.01626 5.668381,-2.56098 8.329901,-1.2687 1.66783,0.80994 2.62214,2.32632 2.82402,4.48768 0.354279,3.7946 -2.72093,9.45967 -7.29469,13.43855 -1.356569,1.18005 -4.43013,3.57013 -4.589309,3.56873 -0.043,0 -0.784852,-0.53872 -1.648312,-1.19631 z"
         id="path5350" />
    </clipPath>
    <clipPath
       clipPathUnits="userSpaceOnUse"
       id="clipPath5352-3">
      <path
         style="fill:#ff0000;fill-opacity:1;stroke:none;stroke-width:0.729237;stroke-opacity:1"
         d="m -66.632823,694.2214 c -3.180119,-2.42187 -5.013928,-4.16817 -6.543918,-6.23176 -3.290001,-4.43717 -4.418542,-8.37634 -3.275272,-11.43177 0.654622,-1.75009 2.241542,-2.93071 4.387612,-3.26478 2.35952,-0.36729 5.32915,0.60315 6.65031,2.17324 l 0.391679,0.46532 0.767979,-0.7402 c 2.091952,-2.01626 5.668381,-2.56098 8.329901,-1.2687 1.66783,0.80994 2.62214,2.32632 2.82402,4.48768 0.354279,3.7946 -2.72093,9.45967 -7.29469,13.43855 -1.356569,1.18005 -4.43013,3.57013 -4.589309,3.56873 -0.043,0 -0.784852,-0.53872 -1.648312,-1.19631 z"
         id="path5354-8" />
    </clipPath>
    <clipPath
       clipPathUnits="userSpaceOnUse"
       id="clipPath5348-0">
      <path
         style="fill:#ff0000;fill-opacity:1;stroke:none;stroke-width:0.729237;stroke-opacity:1"
         d="m -66.632823,694.2214 c -3.180119,-2.42187 -5.013928,-4.16817 -6.543918,-6.23176 -3.290001,-4.43717 -4.418542,-8.37634 -3.275272,-11.43177 0.654622,-1.75009 2.241542,-2.93071 4.387612,-3.26478 2.35952,-0.36729 5.32915,0.60315 6.65031,2.17324 l 0.391679,0.46532 0.767979,-0.7402 c 2.091952,-2.01626 5.668381,-2.56098 8.329901,-1.2687 1.66783,0.80994 2.62214,2.32632 2.82402,4.48768 0.354279,3.7946 -2.72093,9.45967 -7.29469,13.43855 -1.356569,1.18005 -4.43013,3.57013 -4.589309,3.56873 -0.043,0 -0.784852,-0.53872 -1.648312,-1.19631 z"
         id="path5350-2" />
    </clipPath>
  </defs>
  <g
     inkscape:label="Layer 1"
     inkscape:groupmode="layer"
     id="layer1">
    <path
       style="fill:#ff0000;fill-opacity:1;stroke:none;stroke-width:0.729237;stroke-opacity:1"
       d="M 10.47222,21.00597 C 7.2921,18.5841 5.45829,16.83781 3.9283,14.77422 0.6383,10.33703 -0.49024,6.39788 0.65303,3.34244 1.30765,1.59236 2.89457,0.41172 5.04064,0.07766 c 2.35952,-0.36729 5.32915,0.60315 6.65031,2.17323 l 0.39168,0.46532 0.76798,-0.74019 c 2.09195,-2.01626 5.66838,-2.56097 8.3299,-1.26871 1.66783,0.80996 2.62214,2.32632 2.82402,4.48768 0.35428,3.79462 -2.72093,9.45969 -7.29469,13.43857 -1.35657,1.18004 -4.43013,3.57012 -4.58931,3.56872 -0.043,-6.1e-4 -0.78485,-0.53872 -1.64831,-1.19631 z"
       id="path5358" />
    <path
       style="opacity:0.99;fill:#000000;fill-opacity:0.198653;stroke:none;stroke-width:1.6847;stroke-dashoffset:210.392;stroke-opacity:0.984314"
       d="M 11.74873,21.93041 C 10.90143,21.32833 9.33475,20.11744 8.44363,19.37591 6.06736,17.39853 4.59687,15.80333 3.14026,13.62284 1.52491,11.20468 0.62523,9.09201 0.30945,6.97529 0.23705,6.49005 0.23675,5.19867 0.30892,4.7489 0.51543,3.46173 0.95046,2.50934 1.67568,1.7567 2.15256,1.2618 2.58701,0.95083 3.23393,0.6413 3.82783,0.35716 4.50691,0.16275 5.2414,0.0666 5.72338,0.0035 6.78684,0.0241 7.29099,0.1062 c 1.00323,0.16349 1.90329,0.45286 2.69536,0.86659 0.73324,0.38301 1.259,0.79232 1.75955,1.36986 l 0.31634,0.36499 0.002,2.33034 c 10e-4,1.2817 0.0132,5.65944 0.0268,9.72831 0.0137,4.06889 0.0213,7.40153 0.017,7.40587 -0.004,0.004 -0.16602,-0.10446 -0.35927,-0.24178 z"
       id="path5360" />
    <rect
       style="opacity:1;fill:#ffffff;stroke:none;stroke-width:15.876;stroke-dashoffset:210.392;stroke-opacity:0.984314"
       id="rect5362"
       width="54.762032"
       height="4.8507156"
       x="-87.240929"
       y="677.38239"
       clip-path="url(#clipPath5352-3)"
       transform="matrix(1.0132934,0,0,1,77.968832,-673.21544)" />
    <rect
       style="opacity:1;fill:#ffffff;stroke:none;stroke-width:15.876;stroke-dashoffset:210.392;stroke-opacity:0.984314"
       id="rect5364"
       width="54.762032"
       height="4.8507156"
       x="-87.95575"
       y="686.40002"
       clip-path="url(#clipPath5348-0)"
       transform="matrix(1.033711,0,0,1,79.29555,-673.21544)" />
  </g>
</svg>
