<?xml version="1.0" encoding="UTF-8" standalone="no"?>
<!-- Created with Inkscape (http://www.inkscape.org/) -->

<svg
   width="87.322998"
   height="64.434998"
   viewBox="0 0 23.10421 17.048427"
   version="1.1"
   id="svg13440"
   xmlns="http://www.w3.org/2000/svg"
   xmlns:svg="http://www.w3.org/2000/svg">
  <defs
     id="defs13437" />
  <g
     id="layer1">
    <g
       id="g14358"
       transform="translate(-0.31328058,-0.24956115)">
      <path
         id="path8500"
         style="fill:#5ac4a6;fill-opacity:1;stroke-width:0.45408"
         d="M 12.5312,1.5896 A 10.886245,7.8541691 0 0 0 1.64495,9.4437 10.886245,7.8541691 0 0 0 12.5312,17.2979 10.886245,7.8541691 0 0 0 19.46463,15.4933 l 3.22293,1.279 -1.17918,-2.8944 A 10.886245,7.8541691 0 0 0 23.41744,9.4437 10.886245,7.8541691 0 0 0 12.5312,1.5896 Z" />
      <path
         id="path8502"
         style="fill:#ffffff;fill-opacity:1;stroke:none;stroke-width:0.754;stroke-dasharray:none;stroke-opacity:1"
         d="M 11.199521,0.24956115 A 10.886245,7.8541691 0 0 0 0.31328058,8.1037612 10.886245,7.8541691 0 0 0 11.199521,15.957861 a 10.886245,7.8541691 0 0 0 6.93344,-1.8046 l 3.22293,1.279 -1.17918,-2.8942 a 10.886245,7.8541691 0 0 0 1.90906,-4.4342998 10.886245,7.8541691 0 0 0 -10.88625,-7.85420005 z" />
    </g>
  </g>
</svg>
