<?xml version="1.0" encoding="UTF-8" standalone="no"?>
<!-- Created with Inkscape (http://www.inkscape.org/) -->

<svg
   width="88.507004"
   height="65.377998"
   viewBox="0 0 23.417478 17.297929"
   version="1.1"
   id="svg13440"
   xmlns="http://www.w3.org/2000/svg"
   xmlns:svg="http://www.w3.org/2000/svg">
  <defs
     id="defs13437" />
  <g
     id="layer1">
    <g
       id="g13424"
       transform="translate(-52.720444,-942.68348)">
      <path
         id="path8500"
         style="fill:#5ac4a6;fill-opacity:1;stroke-width:0.45408"
         d="m 65.251644,944.27308 a 10.886245,7.8541691 0 0 0 -10.88625,7.8541 10.886245,7.8541691 0 0 0 10.88625,7.8542 10.886245,7.8541691 0 0 0 6.93343,-1.8046 l 3.22293,1.279 -1.17918,-2.8944 a 10.886245,7.8541691 0 0 0 1.90906,-4.4342 10.886245,7.8541691 0 0 0 -10.88624,-7.8541 z" />
      <path
         id="path8502"
         style="fill:#ffffff;fill-opacity:1;stroke:#6326a2;stroke-width:0.754;stroke-dasharray:none;stroke-opacity:1"
         d="m 63.983684,943.06048 a 10.886245,7.8541691 0 0 0 -10.88624,7.8542 10.886245,7.8541691 0 0 0 10.88624,7.8541 10.886245,7.8541691 0 0 0 6.93344,-1.8046 l 3.22293,1.279 -1.17918,-2.8942 a 10.886245,7.8541691 0 0 0 1.90906,-4.4343 10.886245,7.8541691 0 0 0 -10.88625,-7.8542 z" />
    </g>
  </g>
</svg>
