<?xml version="1.0" encoding="UTF-8" standalone="no"?>
<!-- Created with Inkscape (http://www.inkscape.org/) -->

<svg
   width="91.661003"
   height="83.914001"
   viewBox="0 0 24.251973 22.202246"
   version="1.1"
   id="svg3942"
   inkscape:version="1.2 (dc2aeda, 2022-05-15)"
   sodipodi:docname="menu-logo.svg"
   xmlns:inkscape="http://www.inkscape.org/namespaces/inkscape"
   xmlns:sodipodi="http://sodipodi.sourceforge.net/DTD/sodipodi-0.dtd"
   xmlns="http://www.w3.org/2000/svg"
   xmlns:svg="http://www.w3.org/2000/svg">
  <sodipodi:namedview
     id="namedview3944"
     pagecolor="#ffffff"
     bordercolor="#000000"
     borderopacity="0.25"
     inkscape:showpageshadow="2"
     inkscape:pageopacity="0.0"
     inkscape:pagecheckerboard="0"
     inkscape:deskcolor="#d1d1d1"
     inkscape:document-units="mm"
     showgrid="false"
     inkscape:zoom="0.2102413"
     inkscape:cx="397.16269"
     inkscape:cy="561.25984"
     inkscape:window-width="2560"
     inkscape:window-height="1412"
     inkscape:window-x="0"
     inkscape:window-y="28"
     inkscape:window-maximized="0"
     inkscape:current-layer="layer1" />
  <defs
     id="defs3939">
    <clipPath
       clipPathUnits="userSpaceOnUse"
       id="clipPath5352">
      <path
         style="fill:#ff0000;fill-opacity:1;stroke:none;stroke-width:0.729237;stroke-opacity:1"
         d="m -66.632823,694.2214 c -3.180119,-2.42187 -5.013928,-4.16817 -6.543918,-6.23176 -3.290001,-4.43717 -4.418542,-8.37634 -3.275272,-11.43177 0.654622,-1.75009 2.241542,-2.93071 4.387612,-3.26478 2.35952,-0.36729 5.32915,0.60315 6.65031,2.17324 l 0.391679,0.46532 0.767979,-0.7402 c 2.091952,-2.01626 5.668381,-2.56098 8.329901,-1.2687 1.66783,0.80994 2.62214,2.32632 2.82402,4.48768 0.354279,3.7946 -2.72093,9.45967 -7.29469,13.43855 -1.356569,1.18005 -4.43013,3.57013 -4.589309,3.56873 -0.043,0 -0.784852,-0.53872 -1.648312,-1.19631 z"
         id="path5354" />
    </clipPath>
    <clipPath
       clipPathUnits="userSpaceOnUse"
       id="clipPath5348">
      <path
         style="fill:#ff0000;fill-opacity:1;stroke:none;stroke-width:0.729237;stroke-opacity:1"
         d="m -66.632823,694.2214 c -3.180119,-2.42187 -5.013928,-4.16817 -6.543918,-6.23176 -3.290001,-4.43717 -4.418542,-8.37634 -3.275272,-11.43177 0.654622,-1.75009 2.241542,-2.93071 4.387612,-3.26478 2.35952,-0.36729 5.32915,0.60315 6.65031,2.17324 l 0.391679,0.46532 0.767979,-0.7402 c 2.091952,-2.01626 5.668381,-2.56098 8.329901,-1.2687 1.66783,0.80994 2.62214,2.32632 2.82402,4.48768 0.354279,3.7946 -2.72093,9.45967 -7.29469,13.43855 -1.356569,1.18005 -4.43013,3.57013 -4.589309,3.56873 -0.043,0 -0.784852,-0.53872 -1.648312,-1.19631 z"
         id="path5350" />
    </clipPath>
    <clipPath
       clipPathUnits="userSpaceOnUse"
       id="clipPath5352-3">
      <path
         style="fill:#ff0000;fill-opacity:1;stroke:none;stroke-width:0.729237;stroke-opacity:1"
         d="m -66.632823,694.2214 c -3.180119,-2.42187 -5.013928,-4.16817 -6.543918,-6.23176 -3.290001,-4.43717 -4.418542,-8.37634 -3.275272,-11.43177 0.654622,-1.75009 2.241542,-2.93071 4.387612,-3.26478 2.35952,-0.36729 5.32915,0.60315 6.65031,2.17324 l 0.391679,0.46532 0.767979,-0.7402 c 2.091952,-2.01626 5.668381,-2.56098 8.329901,-1.2687 1.66783,0.80994 2.62214,2.32632 2.82402,4.48768 0.354279,3.7946 -2.72093,9.45967 -7.29469,13.43855 -1.356569,1.18005 -4.43013,3.57013 -4.589309,3.56873 -0.043,0 -0.784852,-0.53872 -1.648312,-1.19631 z"
         id="path5354-8" />
    </clipPath>
    <clipPath
       clipPathUnits="userSpaceOnUse"
       id="clipPath5348-0">
      <path
         style="fill:#ff0000;fill-opacity:1;stroke:none;stroke-width:0.729237;stroke-opacity:1"
         d="m -66.632823,694.2214 c -3.180119,-2.42187 -5.013928,-4.16817 -6.543918,-6.23176 -3.290001,-4.43717 -4.418542,-8.37634 -3.275272,-11.43177 0.654622,-1.75009 2.241542,-2.93071 4.387612,-3.26478 2.35952,-0.36729 5.32915,0.60315 6.65031,2.17324 l 0.391679,0.46532 0.767979,-0.7402 c 2.091952,-2.01626 5.668381,-2.56098 8.329901,-1.2687 1.66783,0.80994 2.62214,2.32632 2.82402,4.48768 0.354279,3.7946 -2.72093,9.45967 -7.29469,13.43855 -1.356569,1.18005 -4.43013,3.57013 -4.589309,3.56873 -0.043,0 -0.784852,-0.53872 -1.648312,-1.19631 z"
         id="path5350-2" />
    </clipPath>
  </defs>
  <g
     inkscape:label="Layer 1"
     inkscape:groupmode="layer"
     id="layer1">
    <g
       id="g3937"
       transform="translate(130.45794,-727.02927)">
      <path
         style="fill:#ff0000;fill-opacity:1;stroke:none;stroke-width:0.729237;stroke-opacity:1"
         d="m -119.98572,748.03524 c -3.18012,-2.42187 -5.01393,-4.16816 -6.54392,-6.23175 -3.29,-4.43719 -4.41854,-8.37634 -3.27527,-11.43178 0.65462,-1.75008 2.24154,-2.93072 4.38761,-3.26478 2.35952,-0.36729 5.32915,0.60315 6.65031,2.17323 l 0.39168,0.46532 0.76798,-0.74019 c 2.09195,-2.01626 5.66838,-2.56097 8.3299,-1.26871 1.66783,0.80996 2.62214,2.32632 2.82402,4.48768 0.35428,3.79462 -2.72093,9.45969 -7.29469,13.43857 -1.35657,1.18004 -4.43013,3.57012 -4.58931,3.56872 -0.043,-6.1e-4 -0.78485,-0.53872 -1.64831,-1.19631 z"
         id="path5358" />
      <path
         style="opacity:0.99;fill:#000000;fill-opacity:0.198653;stroke:none;stroke-width:1.6847;stroke-dashoffset:210.392;stroke-opacity:0.984314"
         d="m -118.70921,748.95968 c -0.8473,-0.60208 -2.41398,-1.81297 -3.3051,-2.5545 -2.37627,-1.97738 -3.84676,-3.57258 -5.30337,-5.75307 -1.61535,-2.41816 -2.51503,-4.53083 -2.83081,-6.64755 -0.0724,-0.48524 -0.0727,-1.77662 -5.3e-4,-2.22639 0.20651,-1.28717 0.64154,-2.23956 1.36676,-2.9922 0.47688,-0.4949 0.91133,-0.80587 1.55825,-1.1154 0.5939,-0.28414 1.27298,-0.47855 2.00747,-0.5747 0.48198,-0.0631 1.54544,-0.0425 2.04959,0.0396 1.00323,0.16349 1.90329,0.45286 2.69536,0.86659 0.73324,0.38301 1.259,0.79232 1.75955,1.36986 l 0.31634,0.36499 0.002,2.33034 c 10e-4,1.2817 0.0132,5.65944 0.0268,9.72831 0.0137,4.06889 0.0213,7.40153 0.017,7.40587 -0.004,0.004 -0.16602,-0.10446 -0.35927,-0.24178 z"
         id="path5360" />
      <rect
         style="opacity:0.99;fill:#ffffff;stroke:none;stroke-width:15.876;stroke-dashoffset:210.392;stroke-opacity:0.984314"
         id="rect5362"
         width="54.762032"
         height="4.8507156"
         x="-87.240929"
         y="677.38239"
         clip-path="url(#clipPath5352-3)"
         transform="matrix(1.0132934,0,0,1,-52.489108,53.813833)" />
      <rect
         style="opacity:0.99;fill:#ffffff;stroke:none;stroke-width:15.876;stroke-dashoffset:210.392;stroke-opacity:0.984314"
         id="rect5364"
         width="54.762032"
         height="4.8507156"
         x="-87.95575"
         y="686.40002"
         clip-path="url(#clipPath5348-0)"
         transform="matrix(1.0184566,0,0,1,-52.153606,53.813833)" />
    </g>
  </g>
</svg>
